<svg width="326" height="371" viewBox="0 0 326 371" fill="none" xmlns="http://www.w3.org/2000/svg">
    <path d="M177.786 123.044C175.367 127.102 172.75 131.171 169.979 135.141C162.864 145.368 154.825 154.935 147.325 161.775C121.878 184.968 113.399 160.973 115.786 151.174C117.688 143.323 138.439 114.269 150.382 98.1471C153.373 94.1112 155.804 90.9001 157.255 89.0196C164.535 79.6283 173.564 74.7236 185.693 78.4186C196.69 81.7507 190.191 102.128 177.786 123.044Z"
          fill="#A7CAF0"/>
    <path d="M177.787 123.044C175.784 121.298 173.944 119.373 172.289 117.293C165.9 109.331 161.864 100.555 150.295 98.1471C153.286 94.1112 155.716 90.9001 157.168 89.0196C164.448 79.6283 173.476 74.7236 185.606 78.4186C196.691 81.7507 190.192 102.128 177.787 123.044Z"
          fill="#A7CAF0"/>
    <path d="M130.238 249.806C122.837 275.374 104.736 326.014 104.945 327.004C105.022 327.444 105.396 332.921 105.803 339.002C106.342 346.942 106.902 355.904 106.902 355.904C106.902 355.904 56.5915 371.839 52.2807 370.673C47.9699 369.507 48.7947 363.371 55.4368 358.389C56.8334 357.29 58.8679 355.618 61.2102 353.573C69.9088 345.941 82.7752 333.646 82.7752 333.646C82.7752 333.646 94.311 235.917 96.2244 226.888C98.1379 217.86 106.023 208.292 117.811 209.293C130.062 210.327 137.639 224.238 130.238 249.806Z"
          fill="#FEBD9D"/>
    <path d="M106.891 355.904C106.891 355.904 56.5798 371.839 52.269 370.673C47.9582 369.507 48.7829 363.371 55.4251 358.389C56.8217 357.29 58.8561 355.618 61.1985 353.573C70.4029 355.464 80.2562 352.385 85.3917 348.536C91.3897 343.887 98.3464 340.631 105.758 339.002C106.297 346.941 106.891 355.904 106.891 355.904Z"
          fill="#83ADDF"/>
    <path d="M300.158 118.821C300.4 116.963 300.29 114.335 294.956 111.508L293.186 119.514C293.186 119.514 299.74 122.076 300.158 118.821Z"
          fill="#A7CAF0"/>
    <path d="M275.217 110.574C276.932 102.447 277.68 101.699 277.416 97.7402C277.152 93.7813 276.668 89.0856 283.19 81.1678C289.711 73.25 293.56 67.0588 294.846 67.6966C296.133 68.3344 295.275 74.0528 292.812 79.5513C292.812 79.5513 310.132 69.654 313.772 68.2684C317.412 66.8828 315.059 73.503 307.79 77.066C307.79 77.066 319.227 70.1599 322.009 70.7207C324.791 71.2816 319.655 75.3175 315.697 77.9017C315.697 77.9017 323.207 73.195 324.681 74.7456C326.155 76.2962 322.031 79.5843 318.589 81.6627C318.589 81.6627 323.075 79.3093 323.823 80.486C324.571 81.6627 323.823 82.9493 319.424 85.7206C315.026 88.4918 305.425 93.2095 298.046 101.655L296.111 122.439C296.111 122.439 278.813 125.332 275.217 110.574Z"
          fill="#FEBD9D"/>
    <path d="M285.873 77.8469C290.778 71.6007 293.747 67.1469 294.847 67.6967C296.133 68.3346 295.275 74.02 292.812 79.5184C292.812 79.5184 310.132 69.6212 313.772 68.2356C317.412 66.85 315.059 73.4701 307.79 77.0331C307.79 77.0331 319.227 70.1271 322.009 70.6879C324.791 71.2488 319.656 75.2846 315.697 77.8689C315.697 77.8689 323.208 73.1622 324.681 74.7128C326.155 76.2634 322.031 79.5514 318.589 81.6299C318.589 81.6299 323.076 79.2765 323.823 80.4532C324.571 81.6299 323.823 82.9165 319.425 85.6877"
          stroke="#F4A789" stroke-width="1.03288" stroke-linecap="round" stroke-linejoin="round"/>
    <path d="M294.098 93.3526C294.845 87.4802 298.771 85.5228 302.081 84.676" stroke="#F4A789" stroke-width="1.03288"
          stroke-linecap="round" stroke-linejoin="round"/>
    <path d="M301.764 78.8696C306.492 79.0896 311.441 83.4444 311.771 85.0499" stroke="#F4A789" stroke-width="1.03288"
          stroke-linecap="round" stroke-linejoin="round"/>
    <path d="M304.105 79.2875C304.171 79.2875 310.594 75.3286 310.594 75.3286" stroke="#F4A789" stroke-width="1.03288"
          stroke-linecap="round" stroke-linejoin="round"/>
    <path d="M316.884 77.0442L308.812 81.7289" stroke="#F4A789" stroke-width="1.03288" stroke-linecap="round"
          stroke-linejoin="round"/>
    <path d="M319.522 81.0139L313.408 84.434" stroke="#F4A789" stroke-width="1.03288" stroke-linecap="round"
          stroke-linejoin="round"/>
    <path d="M260.921 189.169C269.114 197.439 284.762 192.413 290.316 170.474C295.869 148.535 300.213 118.789 300.213 118.789C291.097 116.782 282.59 112.636 275.393 106.692C267.376 128.433 250.265 178.436 260.921 189.169Z"
          fill="#A7CAF0"/>
    <path d="M275.338 106.714C270.049 121.142 260.712 148.062 258.172 167.648" stroke="#83ADDF" stroke-width="1.03288"
          stroke-linecap="round" stroke-linejoin="round"/>
    <path d="M100.368 216.177C95.7048 239.194 87.5891 257.614 79.0885 277.628C70.5878 297.643 61.8783 322.705 61.8783 326.62V344.325C61.8783 344.325 5.06811 353.98 2.49482 353.98C-0.0784588 353.98 -1.90395 348.481 3.59452 344.556C4.96913 343.588 7.76236 341.487 11.2044 338.859C21.6185 330.941 37.861 318.339 37.861 318.339C37.861 318.339 57.4025 237.302 61.8783 211.218C69.0923 169.121 106.724 185.012 100.368 216.177Z"
          fill="#FEBD9D"/>
    <path d="M92.8672 243.406C94.8136 237.808 96.5952 232.057 98.1457 226.031C106.635 227.779 116.841 229.209 129.586 231.474"
          stroke="#F4A789" stroke-width="1.03288" stroke-linecap="round" stroke-linejoin="round"/>
    <path d="M61.8783 328.082V344.347C61.8783 344.347 5.06811 354.002 2.49482 354.002C-0.0784587 354.002 -1.90395 348.504 3.59452 344.578C4.96913 343.61 7.76236 341.51 11.2044 338.881C21.5085 341.257 33.6821 337.331 40.2693 334.362C47.1313 331.236 54.4099 329.121 61.8783 328.082Z"
          fill="#83ADDF"/>
    <path d="M126.277 171.804C136.96 171.804 145.621 164.05 145.621 154.484C145.621 144.919 136.96 137.164 126.277 137.164C115.594 137.164 106.934 144.919 106.934 154.484C106.934 164.05 115.594 171.804 126.277 171.804Z"
          fill="#A7CAF0"/>
    <path d="M249.21 87.3039C248.497 87.7402 247.763 88.1403 247.01 88.5026C235.035 94.254 228.634 92.5824 227.436 86.919C226.237 81.2556 213.7 85.5334 212.964 75.5152C212.227 65.497 216.67 62.2529 215.834 57.1393C215.834 57.1393 216.417 55.8197 217.318 54.2691C219.188 50.97 222.465 46.7362 224.906 51.058C228.524 57.4582 230.768 56.7764 237.443 57.5242C244.118 58.272 247.186 62.9017 245.141 66.2448C242.655 70.3026 243.975 72.0622 251.266 72.733C257.82 73.3488 258.821 81.5415 249.21 87.3039Z"
          fill="#B25E47"/>
    <path d="M249.21 87.3041C248.497 87.7404 247.763 88.1405 247.01 88.5027C235.035 94.2541 228.634 92.5826 227.436 86.9192C226.237 81.2558 213.7 85.5336 212.964 75.5154C212.227 65.4972 216.67 62.2531 215.834 57.1395C215.834 57.1395 216.417 55.8199 217.318 54.2693C226.116 56.9745 228.612 61.5822 227.755 65.5741C226.655 70.6657 231.131 77.3409 242.249 76.4281C247.835 75.9552 249.221 81.6077 249.21 87.3041Z"
          fill="#B25E47"/>
    <path d="M242.987 229.593C238.685 235.592 232.883 240.355 226.162 243.406C226.162 243.406 226.162 241.745 225.777 239.007C224.49 228.439 219.025 201.617 195.931 188.146L194.315 187.849H194.183L182.746 185.782C182.746 185.782 179.755 173.839 177.588 164.481C175.422 155.122 170.176 146.764 169.978 136.889C169.978 136.339 169.978 135.79 169.978 135.24C170.066 128.828 171.408 122.692 172.332 117.392C172.745 115.211 173.024 113.008 173.167 110.793C173.475 104.008 168.12 96.3875 167.603 91.6588C167.086 86.9301 167.603 76.9339 180.063 77.9896C182.097 78.1546 183.966 78.3085 185.693 78.4845C187.419 78.6604 189.278 78.8474 190.851 79.0453L192.5 79.2873C194.704 79.5862 196.884 80.0456 199.021 80.6619C200.736 81.1536 202.389 81.8398 203.948 82.7073C208.776 85.4015 219.827 81.9595 221.18 81.5196H221.312C223.709 81.3657 225.832 81.2007 227.723 81.0248C229.615 80.8488 231.198 80.7389 232.617 80.5849C236.818 80.156 239.292 79.7821 240.579 79.6282C241.337 79.6282 242.426 89.9543 243.603 103.821C244.23 111.354 244.878 119.954 245.516 128.488C246.825 146.259 248.035 163.843 248.749 171.376C248.859 172.596 248.969 173.575 249.057 174.213C250.146 182.186 256.865 210.03 242.987 229.593Z"
          fill="#A7CAF0"/>
    <path d="M243.613 103.744C240.131 105.88 236.848 108.324 233.804 111.046C221.531 121.812 212.723 134.305 194.215 130.731C188.15 129.706 182.481 127.045 177.818 123.033C175.815 121.286 173.975 119.361 172.32 117.282C172.733 115.101 173.012 112.898 173.156 110.683C173.464 103.898 168.108 96.2774 167.591 91.5487C167.074 86.82 167.591 76.8238 180.051 77.8795C182.085 78.0445 183.955 78.1984 185.681 78.3744C187.408 78.5503 189.266 78.7373 190.839 78.9352C193.601 79.2591 196.332 79.7996 199.009 80.5518C200.724 81.0435 202.377 81.7297 203.936 82.5972C208.764 85.2914 219.816 81.8494 221.168 81.4095H221.3C226.007 81.1016 229.713 80.7607 232.605 80.4748C236.806 80.0459 239.28 79.672 240.567 79.5181C241.348 79.551 242.436 89.8442 243.613 103.744Z"
          fill="#A7CAF0"/>
    <path d="M215.142 159.829C216.627 170.737 218.791 181.542 221.619 192.182L194.313 187.783H194.181C194.181 187.783 193.412 170.188 188.221 154.099C185.522 145.599 184.404 136.676 184.922 127.773C185.416 120.339 186.642 112.972 188.584 105.779C190.644 97.0812 191.947 88.2211 192.477 79.2983C193.731 79.4853 194.896 79.6832 195.974 79.9142L196.722 80.0681C197.525 80.2441 198.283 80.453 198.998 80.673C200.713 81.1647 202.366 81.8509 203.925 82.7184C208.752 85.4126 219.804 81.9706 221.157 81.5307H221.289L225.468 81.2338L226.238 81.1678L227.7 81.0359C225.633 87.3921 217.077 113.73 214.284 127.619C213.987 129.158 213.745 130.533 213.591 131.71C212.799 138.044 213.635 148.832 215.142 159.829Z"
          fill="white"/>
    <path d="M227.721 80.9149C225.654 87.2712 217.098 113.609 214.305 127.498C208.251 131.094 201.053 132.243 194.181 130.709C190.986 130.125 187.88 129.127 184.943 127.74C185.437 120.306 186.664 112.939 188.605 105.746C190.666 97.0482 191.968 88.1882 192.498 79.2654C193.752 79.4523 194.918 79.6503 195.995 79.8812L196.743 80.0352C197.546 80.2111 198.305 80.4201 199.019 80.64C200.734 81.1317 202.387 81.818 203.946 82.6854C208.774 85.3797 219.826 81.9376 221.178 81.4978H221.31L225.489 81.2008L226.259 81.1349L227.721 80.9149Z"
          fill="#F9F9F9"/>
    <path d="M226.767 112.806L233.145 127.366C231.319 130.478 220.059 150.899 215.143 159.829C213.625 148.832 212.801 138.044 213.614 131.589C215.143 119.657 225.425 87.964 227.723 80.915C229.571 80.772 231.198 80.6291 232.617 80.4751L234.531 108.143C233.156 109.045 226.767 112.806 226.767 112.806Z"
          fill="#A7CAF0"/>
    <path d="M188.605 105.702C186.263 115.17 181.622 133.524 188.22 154.088C182.7 146.04 178.769 137.011 176.641 127.487L183.833 111.519L180.182 106.735C180.182 106.735 184.152 95.7386 190.849 79.0012L192.498 79.2432C191.967 88.1586 190.664 97.0112 188.605 105.702Z"
          fill="#A7CAF0"/>
    <path d="M224.632 79.6721C227.294 78.8694 229.515 79.6721 229.46 80.7718C229.328 83.719 224.204 101.446 221.993 102.348C221.586 102.513 219.046 94.3421 216.176 93.3523C213.306 92.3626 207.961 93.7262 208.082 93.6602C208.203 93.5943 218.903 77.8466 224.632 79.6721Z"
          fill="#683F1D"/>
    <path d="M199.186 79.0564C203.705 85.1597 203.1 89.7234 201.385 89.9323C199.669 90.1413 197.723 89.9983 195.733 92.0767C193.742 94.1552 190.586 97.5752 190.355 97.1463C189.167 94.9469 191.169 80.6509 192.049 79.1663C193.192 77.3518 197.965 77.4068 199.186 79.0564Z"
          fill="#683F1D"/>
    <path d="M202.64 100.445C202.09 112.058 199.395 116.512 197.779 123.682C196.162 130.852 197.581 140.617 200.209 151.878C202.838 163.139 202.695 169.187 202.64 170.419C202.585 171.65 199.989 178.7 205.675 181.416"
          stroke="#DDDDDD" stroke-width="1.37717" stroke-linecap="round" stroke-linejoin="round"/>
    <path d="M224.633 79.6611C224.633 79.6611 207.159 97.5201 203.079 94.8589C198.999 92.1976 197.404 82.0914 197.866 78.6824C198.02 77.5827 198.328 75.4933 198.669 73.1839C199.384 68.5322 200.275 62.8798 200.429 61.6701C200.912 51.7729 217.133 43.2393 221.774 54.2142C221.101 62.8011 222.071 71.4376 224.633 79.6611Z"
          fill="#FEBD9D"/>
    <path d="M198.691 73.1838C199.406 68.5321 200.297 62.8797 200.451 61.6701L211.019 57.9861C212.13 67.0036 207.544 72.1391 198.691 73.1838Z"
          fill="#F4A789"/>
    <path d="M169.979 135.141C170.066 128.73 171.408 122.593 172.332 117.293C172.745 115.113 173.024 112.909 173.168 110.695C173.311 107.396 172.156 103.975 170.858 100.797"
          stroke="#83ADDF" stroke-width="1.03288" stroke-linecap="round" stroke-linejoin="round"/>
    <path d="M225.193 192.93C218.462 191.313 195.93 188.069 195.93 188.069" stroke="#83ADDF" stroke-width="1.03288"
          stroke-linecap="round" stroke-linejoin="round"/>
    <path d="M86.071 182.922C74.2933 182.922 56.6982 201.903 68.8388 212.9C82.607 225.36 98.2116 225.898 129.597 231.463C129.586 231.441 145.608 182.922 86.071 182.922Z"
          fill="#FEBD9D"/>
    <path d="M225.731 238.93C211.798 242.229 182.106 239.556 164.324 237.577C159.673 237.049 155.846 236.587 153.327 236.279C151.37 236.048 150.182 235.927 150.028 235.938C115.476 239.161 111.143 231.606 96.6051 212.922C82.0672 194.238 85.8611 184.022 86.0701 182.922C113.057 180.657 159.31 182.746 182.755 185.704L195.951 188.091C201.69 191.45 206.748 195.855 210.863 201.078C221.629 214.626 224.829 231.166 225.731 238.93Z"
          fill="#FED81D"/>
    <path d="M130.234 230.693C141.429 233.992 153.328 236.279 153.328 236.279" stroke="#FCC71F" stroke-width="1.03288"
          stroke-linecap="round" stroke-linejoin="round"/>
    <path d="M225.731 238.93C211.798 242.229 182.106 239.556 164.324 237.577C172.627 231.419 181.468 231.661 191.278 233.486C211.523 237.258 215.372 230.011 210.522 222.302C206.245 215.517 204.419 205.895 210.797 201.056C221.629 214.626 224.829 231.166 225.731 238.93Z"
          fill="#FCC71F"/>
    <path d="M275.022 191.423C262.76 197.713 254.326 184.121 248.761 171.31C247.662 168.726 246.628 166.185 245.737 163.843C241.932 153.946 235.84 130.654 233.806 111.058C232.178 95.1011 233.267 81.5639 240.58 79.5514C249.278 77.1761 258.934 81.014 264.608 97.2235C265.733 100.521 266.622 103.895 267.269 107.319C272.493 134.107 287.833 184.847 275.022 191.423Z"
          fill="#A7CAF0"/>
    <path d="M248.762 171.31C247.662 168.725 246.629 166.185 245.738 163.843C242.78 156.145 238.403 140.298 235.676 124.419"
          stroke="#83ADDF" stroke-width="1.03288" stroke-linecap="round" stroke-linejoin="round"/>
    <path d="M264.619 97.1464C257.19 97.5787 249.979 99.8212 243.615 103.679C240.133 105.814 236.85 108.258 233.806 110.98C232.178 95.0239 233.267 81.4867 240.58 79.4743C249.289 77.1429 258.944 80.9809 264.619 97.1464Z"
          fill="#A7CAF0"/>
    <path d="M226.426 44.757C222.225 52.8288 189.905 43.6573 189.905 43.6573C184.66 42.1288 182.032 40.0503 182.208 36.8832C182.383 33.7161 187.321 33.5842 186.045 30.549C185.395 29.0758 185.022 27.495 184.946 25.8863C184.847 22.9941 185.946 19.651 190.191 16.9568C197.669 12.2061 207.94 18.5843 207.94 18.5843C207.94 18.5843 212.636 14.6584 221.137 19.0352C225.447 21.2346 227.812 25.7433 228.549 30.692C229.275 35.4871 228.535 40.3897 226.426 44.757Z"
          fill="#B25E47"/>
    <path d="M226.426 44.7572C222.225 52.8289 189.905 43.6575 189.905 43.6575C184.66 42.1289 182.032 40.0505 182.208 36.8834C182.383 33.7163 187.321 33.5843 186.045 30.5492C185.395 29.0759 185.022 27.4951 184.946 25.8864C191.907 18.5515 207.819 17.6388 209.535 24.5008C211.481 32.2867 215.187 44.6802 228.56 30.6921C229.282 35.4883 228.539 40.391 226.426 44.7572Z"
          fill="#B25E47"/>
    <path d="M206.83 22.7524C212.911 18.6285 218.575 21.7407 220.158 26.2934C222.457 32.8916 214.66 39.8086 222.457 45.703"
          stroke="#683F1D" stroke-width="1.03288" stroke-linecap="round" stroke-linejoin="round"/>
    <path d="M189.059 27.107C189.608 20.9267 199.154 15.0104 207.973 18.5514" stroke="#683F1D" stroke-width="1.03288"
          stroke-linecap="round" stroke-linejoin="round"/>
    <path d="M221.797 54.2584C221.797 54.2584 212.999 62.847 203.3 65.6182C193.821 68.3565 185.705 62.6381 186.486 48.9909C186.486 48.7709 186.486 48.54 186.486 48.3201C186.618 46.6595 186.816 45.021 187.079 43.4704C189.114 31.7147 195.228 23.2031 205.378 26.3812C208.491 27.3489 205.576 38.3458 207.666 43.2835C207.791 43.591 207.945 43.8857 208.128 44.1632C208.843 45.1633 209.78 45.9839 210.866 46.5606C214.308 48.452 218.982 48.0341 220.499 45.131C222.699 40.9191 228.67 38.8957 230.748 45.9557C232.255 51.0253 226.712 55.611 221.797 54.2584Z"
          fill="#FEBD9D"/>
    <path d="M210.866 46.5606C209.887 47.7263 208.604 48.598 207.16 49.0789C204.311 50.1785 201.562 49.8156 201.023 48.3641C200.485 46.9125 202.376 44.889 205.224 43.8443C206.021 43.5452 206.852 43.3493 207.699 43.2615C207.824 43.569 207.978 43.8637 208.16 44.1412C208.864 45.1455 209.789 45.9735 210.866 46.5606Z"
          fill="#F4A789"/>
    <path d="M189.443 48.2982C188.948 49.024 187.848 49.2219 186.518 48.947C186.518 48.727 186.518 48.4961 186.518 48.2762C186.65 46.6156 186.847 44.9771 187.111 43.4265C189.168 45.0761 190.191 47.1325 189.443 48.2982Z"
          fill="#F4A789"/>
    <path d="M191.203 40.6001C191.203 40.8415 191.275 41.0775 191.409 41.2782C191.543 41.479 191.734 41.6354 191.957 41.7278C192.18 41.8202 192.425 41.8444 192.662 41.7973C192.899 41.7502 193.116 41.6339 193.287 41.4632C193.458 41.2925 193.574 41.075 193.621 40.8382C193.668 40.6014 193.644 40.356 193.552 40.1329C193.459 39.9099 193.303 39.7192 193.102 39.5851C192.901 39.451 192.665 39.3794 192.424 39.3794C192.1 39.3794 191.79 39.508 191.561 39.7369C191.332 39.9658 191.203 40.2763 191.203 40.6001Z"
          fill="#683F1D"/>
    <path d="M197.965 42.4475C197.963 42.692 198.033 42.9317 198.168 43.1359C198.302 43.3401 198.495 43.4997 198.72 43.5943C198.946 43.6888 199.194 43.7142 199.434 43.667C199.674 43.6198 199.894 43.5023 200.067 43.3294C200.24 43.1565 200.358 42.936 200.405 42.6961C200.452 42.4561 200.427 42.2076 200.332 41.9821C200.238 41.7566 200.078 41.5643 199.874 41.4298C199.67 41.2953 199.43 41.2247 199.186 41.2269C198.862 41.2269 198.551 41.3555 198.322 41.5844C198.094 41.8133 197.965 42.1238 197.965 42.4475Z"
          fill="#683F1D"/>
    <path d="M222.016 49.1228C223.324 45.8237 226.205 44.2512 228.372 45.8237" stroke="#F4A789" stroke-width="1.03288"
          stroke-linecap="round" stroke-linejoin="round"/>
    <path d="M222.434 48.1663C225.931 45.494 228.35 51.4653 222.742 51.4653" stroke="#F4A789" stroke-width="1.03288"
          stroke-linecap="round" stroke-linejoin="round"/>
    <path d="M187.959 34.6949C187.629 36.2785 194.458 38.4669 195.107 35.2668C195.569 32.9684 188.344 32.9684 187.959 34.6949Z"
          fill="#B25E47"/>
    <path d="M199.242 35.7175C198.494 38.4997 206.258 39.9513 207.094 38.0708C207.809 36.4873 200.089 32.5724 199.242 35.7175Z"
          fill="#B25E47"/>
    <path d="M192.191 48.0672C190.674 45.7028 191.466 43.9323 193.456 43.9323C195.886 43.9323 196.678 41.733 196.568 38.6538"
          stroke="#F4A789" stroke-width="1.03288" stroke-linecap="round" stroke-linejoin="round"/>
    <path d="M192.139 50.4976C195.273 50.8825 199.441 48.947 199.441 48.947C199.441 48.947 199.254 54.4455 195.79 54.9184C192.326 55.3912 192.139 50.4976 192.139 50.4976Z"
          fill="white" stroke="#F4A789" stroke-width="1.03288" stroke-linecap="round" stroke-linejoin="round"/>
    <path d="M107.383 18.1445C104.161 16.088 100.455 16.6599 99.3659 19.4971C97.7933 23.6099 100.752 26.3921 104.073 27.4698L107.383 18.1445Z"
          fill="#F9F9F9" stroke="#DDDDDD" stroke-width="1.37717" stroke-linecap="round" stroke-linejoin="round"/>
    <path d="M146.299 45.7024C151.555 47.9018 154.393 49.0785 155.261 48.3967C156.13 47.7148 160.144 38.4994 159.715 37.5207C159.286 36.542 151.061 32.0222 151.061 32.0222L146.299 45.7024Z"
          fill="#DDDDDD" stroke="#DDDDDD" stroke-width="1.37717" stroke-linecap="round" stroke-linejoin="round"/>
    <path d="M117.113 84.8627C117.938 81.3437 129.738 78.5065 133.73 77.8357V89.6794C133.73 89.6794 121.259 92.2747 117.113 84.8627Z"
          fill="#A7CAF0"/>
    <path d="M122.106 90.1192C124.141 80.321 125.515 78.0226 124.877 76.7909C124.24 75.5593 120.116 71.5344 119.621 67.4105C119.126 63.2867 123.492 56.4136 125.031 54.2142C126.571 52.0148 128.715 50.4423 135.467 51.509C142.22 52.5757 144.837 53.4884 144.914 56.8315C144.991 60.1746 141.934 82.6963 141.934 82.6963C141.934 82.6963 136.655 99.4776 122.106 90.1192Z"
          fill="#FEBD9D"/>
    <path d="M130.496 40.9629C129.099 47.5611 125.426 58.558 124.052 63.9135C122.677 69.269 123.568 72.0842 127.956 72.975C132.344 73.8657 135.016 66.2668 135.907 61.2962C136.797 56.3256 139.206 43.9321 139.206 43.9321L130.496 40.9629Z"
          fill="#F9F9F9" stroke="#DDDDDD" stroke-width="1.37717" stroke-linecap="round" stroke-linejoin="round"/>
    <path d="M110.933 164.437C125.889 176.797 135.324 151.042 138.788 128.444C140.945 113.291 141.997 98.0015 141.933 82.6963C141.933 82.6963 129.474 86.1603 117.113 84.8957C113.308 103.206 98.7484 154.33 110.933 164.437Z"
          fill="#A7CAF0"/>
    <path d="M131.334 155.43C134.842 147.886 137.338 137.835 138.79 128.422C140.947 113.269 141.998 97.9795 141.935 82.6743"
          stroke="#83ADDF" stroke-width="1.03288" stroke-linecap="round" stroke-linejoin="round"/>
    <path d="M148.345 45.9556C146.63 46.6374 142.737 46.8463 137.634 46.2415C128.996 45.1508 120.609 42.5881 112.836 38.6646L123.459 15.571C131.448 17.8828 138.999 21.5021 145.805 26.2821C149.654 28.9763 152.403 31.5276 153.36 33.2101C154.316 34.8927 152.392 44.361 148.345 45.9556Z"
          fill="#F9F9F9" stroke="#DDDDDD" stroke-width="1.37717" stroke-linecap="round" stroke-linejoin="round"/>
    <path d="M148.346 45.9555C146.63 46.6373 142.737 46.8462 137.635 46.2414C142.748 40.468 146.366 34.2107 145.805 26.3259C149.654 29.0202 152.404 31.5715 153.36 33.254C154.317 34.9365 152.393 44.3609 148.346 45.9555Z"
          fill="#F9F9F9" stroke="#DDDDDD" stroke-width="1.37717" stroke-linecap="round" stroke-linejoin="round"/>
    <path d="M115.002 40.336C117.839 39.4893 126.559 22.499 125.306 17.4954C124.052 12.4918 113.385 1 113.385 1C113.385 1 99.771 24.5884 97.2637 42.0516C97.2637 42.0846 110.878 41.5457 115.002 40.336Z"
          fill="#DDDDDD" stroke="#DDDDDD" stroke-width="1.37717" stroke-linecap="round" stroke-linejoin="round"/>
    <path d="M98.3969 9.11578L94.207 2.2207" stroke="#DDDDDD" stroke-width="1.37717" stroke-linecap="round"
          stroke-linejoin="round"/>
    <path d="M82.0117 13.9214L89.4017 16.9126" stroke="#DDDDDD" stroke-width="1.37717" stroke-linecap="round"
          stroke-linejoin="round"/>
    <path d="M81.1426 28.8443L88.7855 27.4697" stroke="#DDDDDD" stroke-width="1.37717" stroke-linecap="round"
          stroke-linejoin="round"/>
    <path d="M118.433 62.308C121.49 60.7354 129.914 70.0059 124.79 70.5997C121.754 70.9846 113.936 64.6174 118.433 62.308Z"
          fill="#FEBD9D" stroke="#F4A789" stroke-width="1.03288" stroke-linecap="round" stroke-linejoin="round"/>
    <path d="M119.06 57.1724C122.128 55.5998 131.157 64.9472 126.087 65.574C123.074 65.9589 114.661 59.4707 119.06 57.1724Z"
          fill="#FEBD9D" stroke="#F4A789" stroke-width="1.03288" stroke-linecap="round" stroke-linejoin="round"/>
    <path d="M120.358 51.9488C123.657 50.2553 133.411 60.3065 127.902 60.9883C124.636 61.3952 115.519 54.4231 120.358 51.9488Z"
          fill="#FEBD9D" stroke="#F4A789" stroke-width="1.03288" stroke-linecap="round" stroke-linejoin="round"/>
    <path d="M122.228 47.2531C125.417 45.3946 134.951 55.7867 130.102 57.9641C127.858 58.9868 117.532 49.9913 122.228 47.2531Z"
          fill="#FEBD9D" stroke="#F4A789" stroke-width="1.03288" stroke-linecap="round" stroke-linejoin="round"/>
    <path d="M135.896 57.7882C135.115 56.7544 127.868 53.3234 128.715 50.5632C129.562 47.8029 138.228 50.6401 142.274 51.9488C146.321 53.2574 145.31 55.7647 144.298 63.9134C144.353 63.9134 140.724 64.1554 135.896 57.7882Z"
          fill="#FEBD9D"/>
    <path d="M135.896 57.7882C135.115 56.7544 127.868 53.3234 128.715 50.5632C129.562 47.8029 138.228 50.6401 142.274 51.9488C146.321 53.2574 145.31 55.7647 144.298 63.9134"
          stroke="#F4A789" stroke-width="1.03288" stroke-linecap="round" stroke-linejoin="round"/>
</svg>
