<svg width="429" height="320" viewBox="0 0 429 320" fill="none" xmlns="http://www.w3.org/2000/svg">
    <path d="M356.899 13.224H89.8555V229.035H356.899V13.224Z" stroke="#DDDDDD" stroke-width="2" stroke-linecap="round"
          stroke-linejoin="round"/>
    <path d="M240.26 42.3029H197.676V63.1197L186.81 65.7166L180.314 38.4886L236.171 25.1596L240.26 42.3029Z"
          stroke="#DDDDDD" stroke-miterlimit="10"/>
    <path d="M201.708 186.501H177.387V218.359H201.708V186.501Z" fill="#DDDDDD"/>
    <path d="M163.558 191.378H139.236V218.352H163.558V191.378Z" stroke="#DDDDDD" stroke-linecap="round"
          stroke-linejoin="round"/>
    <path d="M316.159 103.677H291.838V218.359H316.159V103.677Z" stroke="#DDDDDD" stroke-linecap="round"
          stroke-linejoin="round"/>
    <path d="M278.009 103.677H253.688V218.359H278.009V103.677Z" fill="#DDDDDD"/>
    <path d="M310.712 23.351L277.228 44.8153L287.713 51.2828C281.337 61.5856 248.078 104.894 248.078 104.894L210.498 108.413C196.599 135.071 164.691 181.969 164.691 181.969H66.5117V205.446L172.454 204.305L224.13 125.394L260.373 124.557L303.428 58.9395L311.697 62.0571L310.712 23.351Z"
          fill="#DDDDDD" stroke="#DDDDDD" stroke-linecap="round" stroke-linejoin="round"/>
    <path d="M239.859 146.83H215.537V218.359H239.859V146.83Z" stroke="#DDDDDD" stroke-linecap="round"
          stroke-linejoin="round"/>
    <path d="M372.043 229.035H74.7168V241.259H372.043V229.035Z" stroke="#DDDDDD" stroke-width="2" stroke-linecap="round"
          stroke-linejoin="round"/>
    <path d="M217.804 50.2481C217.79 50.2018 217.761 50.1614 217.721 50.1334C217.682 50.1053 217.634 50.0912 217.586 50.0933H214.602C214.553 50.0912 214.506 50.1053 214.466 50.1334C214.427 50.1614 214.397 50.2018 214.383 50.2481L210.112 61.7614C210.109 61.7871 210.109 61.8131 210.112 61.8388V61.9233C210.11 61.9857 210.133 62.0463 210.175 62.0922C210.224 62.1344 210.287 62.1569 210.351 62.1555H213.307C213.356 62.1603 213.405 62.1473 213.445 62.1188C213.485 62.0904 213.513 62.0485 213.525 62.0007L214.179 60.2765H218.043L218.683 62.0007C218.695 62.0485 218.723 62.0904 218.764 62.1188C218.804 62.1473 218.853 62.1603 218.902 62.1555H221.871C221.931 62.1562 221.989 62.1335 222.033 62.0922C222.076 62.0463 222.098 61.9857 222.097 61.9233V61.8388C222.1 61.8155 222.1 61.7918 222.097 61.7685L217.804 50.2481ZM215.27 57.2856L216.087 55.0547L216.931 57.2856H215.27Z"
          fill="#DDDDDD"/>
    <path d="M231.99 51.5009C231.512 51.0375 230.945 50.6761 230.322 50.4382C229.664 50.1989 228.968 50.0798 228.268 50.0863H223.672C223.64 50.083 223.607 50.087 223.577 50.0978C223.546 50.1087 223.518 50.1262 223.496 50.1491C223.473 50.172 223.455 50.1997 223.444 50.2303C223.433 50.2608 223.429 50.2934 223.433 50.3256V61.9163C223.431 61.9808 223.454 62.0435 223.496 62.0923C223.544 62.1357 223.607 62.1584 223.672 62.1556H228.246C228.947 62.1622 229.643 62.043 230.301 61.8037C230.923 61.5659 231.491 61.2044 231.969 60.7411C232.492 60.2078 232.882 59.5594 233.109 58.848C233.654 57.0707 233.654 55.1712 233.109 53.394C232.89 52.6841 232.506 52.0357 231.99 51.5009ZM229.386 58.4961C229.149 58.7563 228.858 58.9621 228.534 59.0994C228.21 59.2366 227.859 59.3021 227.507 59.2914H226.952C226.936 59.2938 226.92 59.2925 226.906 59.2877C226.891 59.2829 226.878 59.2747 226.867 59.2637C226.856 59.2527 226.847 59.2393 226.843 59.2245C226.838 59.2098 226.837 59.1941 226.839 59.1787V53.0491C226.839 52.9647 226.881 52.9295 226.952 52.9295H227.507C227.86 52.9168 228.21 52.9814 228.535 53.1188C228.86 53.2562 229.15 53.463 229.386 53.7247C229.859 54.4319 230.111 55.2634 230.111 56.1139C230.111 56.9645 229.859 57.796 229.386 58.5031V58.4961Z"
          fill="#DDDDDD"/>
    <path d="M242.399 57.5249C242.245 57.0903 242.006 56.6908 241.696 56.3496C241.41 56.0417 241.083 55.7742 240.725 55.5544C240.388 55.3525 240.022 55.203 239.641 55.111C239.348 55.0418 239.066 54.9329 238.803 54.7873C238.613 54.6836 238.447 54.5395 238.318 54.3651C238.238 54.2513 238.172 54.1285 238.121 53.9991C238.092 53.9127 238.075 53.8227 238.071 53.7317C238.076 53.65 238.093 53.5694 238.121 53.4924C238.168 53.3832 238.227 53.2793 238.297 53.1828C238.402 53.0412 238.55 52.9375 238.719 52.8872C238.944 52.8052 239.183 52.7693 239.423 52.7816C240.167 52.7977 240.907 52.8897 241.632 53.0561C241.664 53.0663 241.698 53.0677 241.73 53.0602C241.762 53.0528 241.792 53.0368 241.815 53.0139C241.867 52.9742 241.903 52.9164 241.914 52.852L242.139 50.5015C242.139 50.4407 242.119 50.3816 242.083 50.3326C242.046 50.2868 241.993 50.2566 241.935 50.2482C241.061 50.15 240.182 50.0983 239.303 50.0933C238.114 50.0249 236.934 50.3353 235.932 50.98C235.529 51.273 235.206 51.6622 234.992 52.1121C234.778 52.562 234.68 53.0583 234.708 53.5558C234.705 54.0767 234.795 54.5939 234.975 55.0829C235.132 55.5163 235.371 55.9154 235.679 56.2581C235.965 56.5592 236.289 56.8218 236.643 57.0393C236.978 57.2458 237.344 57.3978 237.727 57.4897C238.022 57.5514 238.304 57.6607 238.564 57.8134C238.758 57.9128 238.924 58.0577 239.05 58.2357C239.126 58.347 239.187 58.4676 239.233 58.5946C239.264 58.6803 239.281 58.7707 239.282 58.862C239.28 58.9464 239.264 59.0298 239.233 59.1083C239.193 59.2219 239.136 59.3287 239.064 59.425C238.956 59.5594 238.812 59.6597 238.649 59.7135C238.423 59.7949 238.184 59.8284 237.945 59.8121C237.234 59.7966 236.527 59.7093 235.834 59.5517C235.801 59.5414 235.767 59.5392 235.734 59.5454C235.701 59.5515 235.67 59.5658 235.644 59.5869C235.616 59.6062 235.593 59.6313 235.576 59.6604C235.559 59.6896 235.548 59.7221 235.545 59.7558L235.32 62.1063C235.32 62.1671 235.34 62.2262 235.376 62.2752C235.413 62.321 235.466 62.3512 235.524 62.3596C236.372 62.4612 237.225 62.5106 238.079 62.5074C239.697 62.5074 240.87 62.2236 241.597 61.6559C241.973 61.3379 242.267 60.9355 242.457 60.4816C242.646 60.0278 242.726 59.5354 242.688 59.045C242.686 58.5249 242.588 58.0097 242.399 57.5249Z"
          fill="#DDDDDD"/>
    <path d="M372.043 1H74.7168V13.2241H372.043V1Z" stroke="#DDDDDD" stroke-width="2" stroke-linecap="round"
          stroke-linejoin="round"/>
    <path d="M255.094 42.3029H197.668V70.2909H255.094V42.3029Z" stroke="#DDDDDD" stroke-width="2" stroke-linecap="round"
          stroke-linejoin="round"/>
    <path d="M340.67 294.371V316.11H375.857C375.857 316.11 377.969 314.09 371.564 310.972C365.519 308.031 361.874 305.159 358.841 298.256L340.67 294.371Z"
          fill="#683F1D"/>
    <path d="M339.959 300.304H362.162L363.309 128.758L341.739 130.391L339.959 300.304Z" fill="#A7CAF0"/>
    <path d="M345.42 152.003C348.397 151.524 349.53 150.448 349.53 150.448" stroke="#83ADDF" stroke-width="0.75"
          stroke-linecap="round" stroke-linejoin="round"/>
    <path d="M356.863 134.979C356.687 140.56 358.65 147.351 361.085 149.139" stroke="#83ADDF" stroke-width="0.75"
          stroke-linecap="round" stroke-linejoin="round"/>
    <path d="M322.199 303.442V318.742H357.387C357.387 318.742 359.498 316.722 353.087 313.604C347.049 310.663 343.403 307.791 340.37 300.888L322.199 303.442Z"
          fill="#683F1D"/>
    <path d="M357.386 318.756C357.386 318.756 359.497 316.736 353.086 313.618C347.048 310.677 343.402 307.805 340.369 300.902"
          stroke="#7F542D" stroke-width="0.75" stroke-linecap="round" stroke-linejoin="round"/>
    <path d="M310.939 110.348C307.864 151.996 309.461 180.019 312.206 215.565C314.95 251.112 319.384 303.442 319.384 303.442H342.608L344.311 125.394L310.939 110.348Z"
          fill="#A7CAF0"/>
    <path d="M342.586 303.456L343.979 154.037" stroke="#83ADDF" stroke-width="0.75" stroke-linecap="round"
          stroke-linejoin="round"/>
    <path d="M428.496 89.9395C428.496 96.6673 425.976 102.656 422.049 106.541C419.577 109.076 416.301 110.673 412.781 111.059C412.542 111.059 412.303 111.094 412.077 111.101H411.507C404.371 111.101 398.256 105.64 395.729 97.8989C394.891 95.3221 394.468 92.6282 394.477 89.9184C394.477 83.4017 396.841 77.5817 400.557 73.697C401.95 72.1724 403.64 70.9489 405.523 70.1017C407.406 69.2546 409.443 68.8016 411.507 68.7708C420.874 68.7637 428.496 78.2432 428.496 89.9395Z"
          fill="#FED81D"/>
    <path d="M422.043 106.548C419.571 109.083 416.294 110.68 412.774 111.066C412.535 111.066 412.296 111.101 412.071 111.108H411.501C404.365 111.108 398.249 105.647 395.723 97.9059C403.605 102.515 406.673 111.918 420.502 107.111C420.973 106.956 421.501 106.766 422.043 106.548Z"
          fill="#FCC71F"/>
    <path d="M420.467 107.097C419.515 108.236 418.343 109.173 417.022 109.85C415.7 110.527 414.256 110.931 412.775 111.038C412.536 111.038 412.296 111.073 412.071 111.08H411.501C409.403 111.081 407.317 110.763 405.315 110.137C392.824 106.435 378.798 97.3359 369.727 91.6567L369.6 91.5792C367.489 90.2421 365.624 89.1091 364.132 88.2857C363.886 88.1379 363.646 88.0113 363.428 87.8916C360.085 86.1182 357.383 82.149 355.729 77.5184C355.412 76.6246 355.131 75.7027 354.892 74.7667C351.971 63.2323 355.525 49.6571 371.261 55.0618C374.217 56.0682 378.122 58.1513 382.479 60.8677C388.717 64.8288 394.749 69.1061 400.551 73.683C410.818 81.6986 419.862 89.9677 421.846 93.5286C422.934 95.6862 423.383 98.1101 423.138 100.514C422.894 102.918 421.967 105.202 420.467 107.097Z"
          fill="#FED81D"/>
    <path d="M422.044 106.548C419.572 109.083 416.296 110.68 412.776 111.066C412.536 111.066 412.297 111.101 412.072 111.108H411.502C409.404 111.109 407.318 110.791 405.316 110.165C392.825 106.464 378.799 97.3641 369.728 91.6849C369.728 91.6849 369.685 91.6426 369.601 91.6075C367.49 90.2703 365.625 89.1373 364.133 88.3139C363.886 88.1661 363.647 88.0395 363.429 87.9198C360.086 86.1464 357.384 82.1772 355.73 77.5466C355.413 76.6528 355.132 75.7309 354.893 74.7949C360.044 73.9645 366.033 74.4572 372.69 77.3355C375.238 78.4404 379.995 80.4601 377.314 84.0562C373.943 88.5884 376.744 95.5555 386.864 95.5555C389.98 95.5059 393.049 96.3194 395.731 97.906C403.613 102.516 406.681 111.918 420.51 107.111C420.974 106.956 421.502 106.766 422.044 106.548Z"
          fill="#FCC71F"/>
    <path d="M382.443 60.9029C379.986 60.7171 377.514 60.883 375.103 61.3956C370.881 62.2823 365.856 64.4709 362.745 69.7068C360.914 72.7438 358.526 75.4083 355.708 77.5606C351.45 65.5969 354.23 49.263 371.24 55.097C374.181 56.1034 378.087 58.1865 382.443 60.9029Z"
          fill="#FED81D"/>
    <path d="M377.272 53.4643C375.949 53.1406 377.8 48.4325 381.34 43.9989C384.668 39.8327 386.773 37.5526 387.786 38.946C388.405 39.8046 387.483 53.1124 377.272 53.4643Z"
          fill="#FCC71F"/>
    <path d="M382.867 53.8725C378.645 47.9821 375.83 43.1193 373.845 41.5288C371.861 39.9383 370.031 39.136 369.82 37.3063C369.76 35.9626 370.074 34.6287 370.726 33.4524C371.378 32.2761 372.343 31.3033 373.514 30.6418C376.435 28.9458 389.412 44.8434 389.412 44.8434C389.412 44.8434 389.834 52.7535 382.867 53.8725Z"
          fill="#B25E47"/>
    <path d="M362.085 21.7957C364.604 19.2974 367.279 19.6845 372.909 24.9485C378.539 30.2125 384.83 32.9219 386.146 37.1515C387.554 41.7328 383.746 45.3642 378.644 44.7519C376.843 44.5408 374.035 44.2241 376.843 37.7919L369.284 31.4581C369.284 31.4581 367.173 34.618 363.943 33.7312C360.579 32.7741 356.209 27.6438 362.085 21.7957Z"
          fill="#DDDDDD" stroke="#DDDDDD" stroke-linecap="round" stroke-linejoin="round"/>
    <path d="M378.11 32.2885C379.327 32.9149 382.698 28.0661 381.094 27.109C378.933 25.8352 376.885 31.6552 378.11 32.2885Z"
          fill="#B25E47" stroke="#914839" stroke-width="0.75" stroke-linecap="round" stroke-linejoin="round"/>
    <path d="M376.844 37.7918C377.706 36.2908 379.061 35.1346 380.679 34.5194" stroke="#DDDDDD" stroke-linecap="round"
          stroke-linejoin="round"/>
    <path d="M369.285 31.43C369.742 30.7747 370.06 30.0321 370.217 29.2487C370.374 28.4653 370.369 27.6578 370.2 26.8768"
          stroke="#DDDDDD" stroke-linecap="round" stroke-linejoin="round"/>
    <path d="M369.347 38.1296C370.346 40.3957 373.218 37.1022 374.4 33.9071C375.533 30.8881 375.259 30.2054 373.534 30.5221C371.81 30.8388 367.982 35.1246 369.347 38.1296Z"
          fill="#B25E47" stroke="#914839" stroke-width="0.75" stroke-linecap="round" stroke-linejoin="round"/>
    <path d="M371.838 28.1505C373.203 28.8542 377.004 23.4776 375.195 22.429C372.767 21.0215 370.459 27.4538 371.838 28.1505Z"
          fill="#B25E47" stroke="#914839" stroke-width="0.75" stroke-linecap="round" stroke-linejoin="round"/>
    <path d="M374 29.2906C375.365 29.9944 379.166 24.6177 377.357 23.5691C374.929 22.1616 372.621 28.5939 374 29.2906Z"
          fill="#B25E47" stroke="#914839" stroke-width="0.75" stroke-linecap="round" stroke-linejoin="round"/>
    <path d="M376.104 30.8882C377.42 31.5919 381.03 26.4123 379.32 25.413C376.991 24.0548 374.788 30.2267 376.104 30.8882Z"
          fill="#B25E47" stroke="#914839" stroke-width="0.75" stroke-linecap="round" stroke-linejoin="round"/>
    <path d="M377.273 53.4643C382.65 61.0295 397.429 83.0216 403.017 90.3969C410.265 99.9819 427.612 101.537 427.648 83.2046C427.648 74.1263 387.816 38.946 387.816 38.946C387.816 38.946 385.761 49.7063 377.273 53.4643Z"
          fill="#FED81D"/>
    <path d="M382.389 55.7233C388.997 53.4995 391.263 46.0327 391.263 46.0327" stroke="#FCC71F" stroke-width="0.75"
          stroke-linecap="round" stroke-linejoin="round"/>
    <path d="M385.455 42.1832C395.308 55.8078 398.826 65.1183 396.483 68.7637C394.139 72.4092 388.854 70.4387 389.445 67.3563C390.149 63.5349 396.532 62.5637 393.9 72.8244C391.268 83.085 384.048 83.9788 382.739 81.1356C380.972 77.1946 388.319 73.0003 389.072 83.3383C389.825 93.6764 378.27 96.3225 375.047 93.7256C371.823 91.1288 380.916 84.3517 380.775 95.7172C380.634 107.083 367.2 107.435 361.141 105.915"
          stroke="#DDDDDD" stroke-width="2" stroke-linecap="round" stroke-linejoin="round"/>
    <path d="M377.273 53.4642C382.65 61.0295 397.429 83.0216 403.017 90.3969C404.681 92.567 406.812 94.3348 409.252 95.5694"
          stroke="#FCC71F" stroke-width="0.75" stroke-linecap="round" stroke-linejoin="round"/>
    <path d="M296.551 115.676C296.582 118.351 295.984 120.996 294.806 123.398C293.628 125.8 291.902 127.891 289.767 129.504C287.281 131.329 284.279 132.315 281.196 132.319H281.153C279.216 132.312 277.3 131.91 275.523 131.137C269.851 128.702 265.84 122.692 265.84 115.654C265.84 115.514 265.84 115.38 265.84 115.253C265.873 112.9 266.39 110.578 267.359 108.433C268.327 106.288 269.726 104.364 271.47 102.783C273.278 101.168 275.452 100.016 277.804 99.426C278.926 99.1405 280.08 98.9963 281.238 98.9967C287.325 98.9967 292.589 102.846 295.066 108.42C295.618 109.644 296.022 110.929 296.27 112.248C296.476 113.379 296.57 114.527 296.551 115.676Z"
          fill="#FED81D"/>
    <path d="M281.153 132.333C279.216 132.326 277.3 131.924 275.523 131.151C269.851 128.716 265.84 122.706 265.84 115.668C265.84 115.528 265.84 115.394 265.84 115.267C265.873 112.914 266.39 110.592 267.359 108.447C268.327 106.302 269.726 104.378 271.47 102.797C270.217 119.018 271.977 127.386 281.153 132.333Z"
          fill="#FCC71F"/>
    <path d="M327.262 67.2225C326.84 68.5667 326.347 69.939 325.798 71.3324C325.291 72.6132 324.731 73.9081 324.116 75.2171C323.919 75.6253 323.715 76.0405 323.511 76.4487C322.87 77.7435 322.188 79.0455 321.442 80.3474C321.196 80.7837 320.942 81.2201 320.689 81.6564C316.31 88.8682 311.346 95.7082 305.847 102.107C304.58 103.585 303.285 105.042 301.969 106.463L301.04 107.456C300.055 108.497 299.063 109.511 298.063 110.496C297.451 111.094 296.846 111.692 296.234 112.262C288.767 119.3 281.068 124.395 274.819 124.536C274.235 124.553 273.651 124.52 273.073 124.437C271.363 124.253 269.76 123.511 268.513 122.326C266.845 120.7 265.959 118.251 265.86 115.288C265.684 109.715 268.267 102.283 273.601 94.8798L274.516 93.5919C279.759 86.0759 287.5 73.324 296.086 62.9578C303.968 53.4361 312.568 45.9201 320.633 46.2861C321.279 46.3157 321.921 46.3981 322.554 46.5324C329.556 47.9821 330.591 56.5678 327.262 67.2225Z"
          fill="#FED81D"/>
    <path d="M274.496 115.07C273.36 116.405 272.762 118.116 272.821 119.868C272.879 121.62 273.59 123.287 274.813 124.543C274.229 124.56 273.645 124.527 273.068 124.444C271.357 124.26 269.754 123.518 268.507 122.333C266.839 120.707 265.953 118.258 265.854 115.295C265.678 109.722 268.261 102.29 273.595 94.8868L274.51 93.599C276.139 95.2032 277.264 97.2479 277.747 99.4823C278.168 101.265 278.319 103.101 278.198 104.929C277.994 108.708 276.685 112.502 274.496 115.07Z"
          fill="#FCC71F"/>
    <path d="M325.797 71.3324C324.361 74.8997 322.653 78.3512 320.688 81.6564C316.309 88.8683 311.345 95.7082 305.846 102.107C303.348 105.028 300.73 107.871 298.062 110.503"
          stroke="#FCC71F" stroke-width="0.75" stroke-linecap="round" stroke-linejoin="round"/>
    <path d="M327.264 67.2225C323.506 62.613 319.34 60.1147 312.485 60.0795C308.263 60.0795 302.971 60.9873 296.123 62.9297C304.005 53.408 312.605 45.892 320.67 46.2579C321.316 46.2875 321.958 46.3699 322.591 46.5042C329.558 47.9821 330.593 56.5678 327.264 67.2225Z"
          fill="#FED81D"/>
    <path d="M375.105 61.3956C374.81 67.9194 372.023 80.3053 370.073 89.7637C369.947 90.397 369.82 91.0374 369.693 91.699C367.265 104.169 364.83 122.833 364.816 125.655C364.816 135.078 358.293 133.396 340.052 132.861C331.079 132.615 321.156 132.284 313.753 130.799C311.664 130.42 309.618 129.835 307.644 129.054C304.125 127.576 302.056 125.493 302.415 122.509C302.462 122.137 302.539 121.77 302.647 121.411C304.418 115.113 305.492 108.64 305.849 102.107C306.11 98.5887 306.251 94.9714 306.42 91.2697C306.553 88.131 306.708 84.936 306.968 81.5509C307.482 74.8372 309.783 66.7723 312.458 60.0796C315.498 52.3384 318.953 46.3988 320.544 46.2651H320.642C323.675 46.0399 331.36 47.0674 342.613 47.2926C347.378 47.3952 352.095 48.2552 356.59 49.8401C358.56 50.5439 366.491 52.8451 371.22 55.1041C372.473 55.5998 373.611 56.3471 374.563 57.2998C375.049 57.9332 375.197 59.3829 375.105 61.3956Z"
          fill="#FED81D"/>
    <path d="M313.753 130.799C311.664 130.42 309.618 129.835 307.644 129.054C304.125 127.576 302.056 125.493 302.415 122.509C302.462 122.137 302.539 121.77 302.647 121.411C304.418 115.113 305.492 108.64 305.849 102.107C306.11 98.5886 306.251 94.9714 306.42 91.2697L322 76.4488C326.272 83.5988 318.066 97.4275 312.591 100.981C307.116 104.535 307.496 111.538 319.031 113.994C327.778 115.845 318.679 126.007 313.753 130.799Z"
          fill="#FCC71F"/>
    <path d="M382.445 60.903C379.987 60.7172 377.516 60.8831 375.105 61.3956C370.882 62.2823 365.858 64.471 362.747 69.7069C360.916 72.7438 358.528 75.4083 355.71 77.5607C348.363 83.1907 338.44 84.8726 332.113 74.3586C330.671 71.8708 329.058 69.4864 327.285 67.2226C323.527 62.6131 319.361 60.1148 312.507 60.0796C308.284 60.0796 302.992 60.9875 296.145 62.9298C304.026 53.4081 312.626 45.8921 320.691 46.258C323.724 46.0328 331.409 47.0603 342.662 47.2855C347.427 47.3882 352.144 48.2481 356.639 49.8331C358.609 50.5368 366.54 52.8381 371.269 55.0971C374.183 56.1034 378.089 58.1865 382.445 60.903Z"
          fill="#FED81D"/>
    <path d="M351.756 58.7214C351.756 58.7214 353.867 65.5126 354.683 66.1178L358.202 66.6667C359.358 64.6058 360.328 62.4462 361.102 60.2134L357.386 54.8578L351.756 58.7214Z"
          fill="#683F1D"/>
    <path d="M354.71 66.1178L346.596 97.0827C346.596 97.0827 347.532 101.221 352.169 107.512C352.169 107.512 356.863 101.39 357.856 98.7365L358.243 66.6667L354.71 66.1178Z"
          fill="#683F1D"/>
    <path d="M345.871 44.8295C343.942 44.8858 339.987 46.6522 339.938 48.2637C339.889 49.8753 343.527 62.6272 349.305 65.8011C349.305 65.8011 351.543 59.1366 357.37 58.2007L345.871 44.8295Z"
          fill="white"/>
    <path d="M357.385 58.2007C359.651 60.9861 361.533 64.0632 362.98 67.3494C362.98 67.3494 368.687 59.8827 367.906 53.8586C367.772 52.8522 362.761 50.4454 362.761 50.4454L357.385 58.2007Z"
          fill="white"/>
    <path d="M369.693 91.699C369.82 91.0374 369.947 90.397 370.073 89.7636C370.869 85.9142 371.805 81.572 372.649 77.3496C372.712 77.0399 372.769 76.7443 372.825 76.4488"
          stroke="#FCC71F" stroke-width="0.75" stroke-linecap="round" stroke-linejoin="round"/>
    <path d="M364.245 51.9092C364.245 51.9092 361.929 58.7355 357.207 58.7214C349.522 58.7214 344.723 46.3707 344.723 46.3707C347.087 36.7927 346.834 32.345 346.834 32.345C346.574 26.0113 361.12 17.6437 363.126 36.4549L363.302 38.9461L363.921 47.6726L364.245 51.9092Z"
          fill="#B25E47"/>
    <path d="M363.943 47.6725C359.017 47.5036 354.478 44.9279 354.238 38.9461H363.324L363.943 47.6725Z" fill="#914839"/>
    <path d="M362.725 14.0123C362.479 15.7154 360.29 16.8273 360.29 16.8273L355.272 24.3645C355.272 24.3645 350.691 29.6003 345.814 29.0655C345.095 28.9879 344.395 28.7855 343.745 28.4673C341.338 27.2991 342.739 25.033 342.246 24.2941C341.754 23.5551 340.571 23.4566 340.276 22.0914C339.98 20.7261 342.176 20.8246 341.24 19.3538C340.304 17.8829 339.769 16.6795 341.31 15.6169C342.851 14.5542 341.366 14.132 342.352 12.4289C343.112 11.1059 344.378 12.7104 344.843 10.9722C345.307 9.2339 346.722 9.85319 347.735 9.69133C349.016 9.48021 347.925 8.37533 349.678 7.95308C350.529 7.74196 350.508 8.74832 351.507 8.07976C351.934 7.75326 352.442 7.5509 352.976 7.49501C353.51 7.43913 354.049 7.53189 354.534 7.76307C355.821 8.6146 355.765 6.9045 357.349 7.42527C358.489 7.80529 357.764 8.6709 359.333 8.91721C360.902 9.16352 360.853 10.0854 360.987 11.0636C361.001 11.2007 361.022 11.337 361.05 11.4718C361.283 12.5837 362.964 12.3093 362.725 14.0123Z"
          fill="#683F1D"/>
    <path d="M363.807 13.189C363.554 15.0187 361.253 16.2291 361.253 16.2291L355.975 24.2659C355.975 24.2659 351.182 29.8959 346.066 29.3048C346.162 28.881 346.133 28.4383 345.982 28.031C345.461 27.2428 344.229 27.1372 343.92 25.6734C343.61 24.2096 345.911 24.3082 344.933 22.7388C343.955 21.1694 343.392 19.8816 344.996 18.7345C346.601 17.5874 345.06 17.1581 346.094 15.3354C346.889 13.9279 348.205 15.631 348.712 13.7731C349.219 11.9152 350.675 12.5767 351.738 12.4078C353.082 12.1826 351.935 11.0003 353.779 10.5429C354.673 10.3177 354.645 11.3944 355.693 10.6836C356.742 9.97284 358.079 9.80394 358.867 10.3388C360.218 11.2537 360.155 9.41688 361.844 9.97988L361.992 10.0362C361.992 10.184 362.034 10.3247 362.062 10.4725C362.308 11.6618 364.061 11.3874 363.807 13.189Z"
          fill="#683F1D"/>
    <path d="M367.188 38.2494C365.83 42.0848 357.632 46.4269 347.674 33.9213C346.393 34.3999 344.253 34.041 343.078 31.8101C341.607 28.9951 343.711 24.843 348.61 26.8346C349.51 27.2006 350.017 24.9345 348.919 23.3581C347.821 21.7817 345.963 17.9393 350.327 15.1383C354.69 12.3374 360.503 12.633 362.727 16.1236C364.129 18.4455 365.245 20.9291 366.048 23.52C366.421 24.6811 366.752 25.8775 367.027 27.088C367.941 31.1415 368.223 35.3148 367.188 38.2494Z"
          fill="#B25E47"/>
    <path d="M357.905 28.0309C357.673 28.9669 355.85 29.3188 353.823 28.8191C351.796 28.3195 350.347 27.1653 350.572 26.2293C350.797 25.2934 352.627 24.9485 354.654 25.4482C356.68 25.9478 358.13 27.102 357.905 28.0309Z"
          fill="#914839"/>
    <path d="M367.047 27.0668C366.076 27.6017 365.182 27.7284 364.738 27.278C364.084 26.6305 364.668 24.9486 366.069 23.4988C366.442 24.66 366.772 25.8564 367.047 27.0668Z"
          fill="#914839"/>
    <path d="M352.275 21.5776C352.43 22.3869 357.694 20.8246 357.201 19.1567C356.49 16.8907 351.986 20.1279 352.275 21.5776Z"
          fill="#683F1D"/>
    <path d="M359.938 19.1286C360.051 20.1702 364.259 20.1843 364.245 19.5087C364.231 18.8331 359.685 16.7711 359.938 19.1286Z"
          fill="#683F1D"/>
    <path d="M356.264 23.9985C356.264 24.1864 356.319 24.37 356.424 24.5263C356.528 24.6825 356.677 24.8043 356.85 24.8762C357.024 24.9481 357.215 24.9669 357.399 24.9303C357.583 24.8936 357.753 24.8031 357.886 24.6703C358.018 24.5374 358.109 24.3681 358.146 24.1838C358.182 23.9995 358.163 23.8085 358.092 23.6349C358.02 23.4613 357.898 23.3129 357.742 23.2085C357.585 23.1041 357.402 23.0484 357.214 23.0484C357.089 23.0484 356.965 23.073 356.85 23.1207C356.735 23.1685 356.63 23.2384 356.542 23.3267C356.454 23.4149 356.384 23.5196 356.336 23.6349C356.288 23.7502 356.264 23.8737 356.264 23.9985Z"
          fill="#683F1D"/>
    <path d="M361.746 23.0484C361.745 23.238 361.8 23.4238 361.904 23.5821C362.008 23.7404 362.157 23.8642 362.332 23.9377C362.507 24.0112 362.699 24.0312 362.886 23.995C363.072 23.9589 363.243 23.8683 363.377 23.7347C363.512 23.6012 363.604 23.4307 363.641 23.2448C363.679 23.059 363.66 22.8662 363.588 22.6909C363.516 22.5156 363.393 22.3657 363.236 22.2602C363.078 22.1547 362.893 22.0984 362.703 22.0984C362.578 22.0975 362.454 22.1213 362.337 22.1687C362.221 22.216 362.116 22.2858 362.027 22.3741C361.938 22.4625 361.867 22.5675 361.819 22.6832C361.771 22.799 361.746 22.9231 361.746 23.0484Z"
          fill="#683F1D"/>
    <path d="M344.717 29.6847C345.421 27.862 348.137 28.1998 348.982 30.2196" stroke="#914839" stroke-width="0.75"
          stroke-linecap="round" stroke-linejoin="round"/>
    <path d="M348.44 29.3399C347.152 28.5588 344.957 31.5004 348.44 32.3379" stroke="#914839" stroke-width="0.75"
          stroke-linecap="round" stroke-linejoin="round"/>
    <path d="M347.672 33.9072C348.518 33.6743 349.313 33.2852 350.015 32.7601" stroke="#914839" stroke-width="0.75"
          stroke-linecap="round" stroke-linejoin="round"/>
    <path d="M359.672 21.4228C359.672 24.9415 361.283 25.3356 362.902 25.969C364.253 26.5038 363.824 27.9958 363.507 28.4814"
          stroke="#914839" stroke-width="0.75" stroke-linecap="round" stroke-linejoin="round"/>
    <path d="M357.906 30.7755C360.665 30.7755 362.748 30.6207 362.748 30.6207C362.748 30.6207 361.524 34.0972 359.933 33.9213C358.343 33.7453 357.906 30.7755 357.906 30.7755Z"
          fill="white" stroke="#914839" stroke-width="0.75" stroke-linecap="round" stroke-linejoin="round"/>
    <path d="M357.283 121.019L323.947 100.156L293.665 148.543L327 169.405L357.283 121.019Z" fill="#DDDDDD"/>
    <path d="M352.16 123.234L324.193 105.732L298.787 146.327L326.753 163.83L352.16 123.234Z" fill="#F9F9F9"/>
    <path d="M345.548 111.474C345.882 111.197 346.167 110.866 346.392 110.496C346.678 110.046 346.871 109.543 346.96 109.017C347.049 108.492 347.032 107.954 346.91 107.434C346.789 106.915 346.565 106.426 346.252 105.994C345.939 105.562 345.543 105.197 345.088 104.92C344.632 104.644 344.126 104.46 343.599 104.381C343.072 104.302 342.534 104.329 342.017 104.46C341.5 104.592 341.015 104.824 340.589 105.145C340.164 105.466 339.806 105.869 339.538 106.33C339.317 106.699 339.156 107.1 339.059 107.519L334 104.437L330.129 110.77L346.744 120.89L350.608 114.557L345.548 111.474Z"
          fill="#DDDDDD" stroke="#DDDDDD" stroke-linecap="round" stroke-linejoin="round"/>
    <path d="M343.425 110.302C344.463 110.048 345.099 109.001 344.845 107.963C344.591 106.924 343.543 106.289 342.505 106.543C341.467 106.797 340.831 107.844 341.085 108.883C341.339 109.921 342.387 110.557 343.425 110.302Z"
          fill="#F9F9F9"/>
    <path d="M325.801 113.459L344.865 125.387" stroke="#DDDDDD" stroke-linecap="round" stroke-linejoin="round"/>
    <path d="M323.9 116.823L342.965 128.758" stroke="#DDDDDD" stroke-linecap="round" stroke-linejoin="round"/>
    <path d="M322.002 120.194L336.858 129.49" stroke="#DDDDDD" stroke-linecap="round" stroke-linejoin="round"/>
    <path d="M326.309 134.979C335.225 139.413 338.153 140.947 338.758 141.482C340.581 143.101 340.369 146.099 340.369 146.099C340.369 146.099 344.289 148.097 344.683 149.23C345.078 150.363 343.044 152.51 341.742 152.397C341.742 152.397 340.179 154.149 338.758 154.037C338.758 154.037 338.237 156.352 336.316 156.465C336.316 156.465 336.091 158.449 333.318 157.872C330.545 157.295 318.771 147.752 318.771 147.752L326.309 134.979Z"
          fill="#B25E47"/>
    <path d="M327.3 135.472C326.505 137.161 322.065 145.381 320.164 148.878C319.644 149.849 319.313 150.455 319.313 150.455C319.313 150.455 306.927 145.528 295.892 140.912C289.326 138.16 283.225 135.535 280.536 134.135C278.801 133.259 277.129 132.262 275.533 131.151C271.937 128.624 269.417 125.746 268.495 122.326C267.573 118.906 268.291 114.739 271.254 109.877C272.026 108.629 273.038 107.547 274.23 106.692C275.422 105.837 276.771 105.226 278.2 104.894C279.737 104.515 281.32 104.361 282.901 104.437L283.429 104.472C283.992 104.472 284.555 104.57 285.132 104.662L285.632 104.746L286.202 104.859L287.145 105.07H287.18L287.687 105.204L287.912 105.274C288.109 105.33 288.306 105.387 288.489 105.45L289.08 105.64L289.664 105.837C289.861 105.915 290.058 105.985 290.255 106.069C291.236 106.453 292.194 106.89 293.127 107.378C293.295 107.456 293.464 107.547 293.626 107.639C293.788 107.73 294.112 107.899 294.33 108.04L294.942 108.406H294.984C295.787 108.891 296.596 109.426 297.405 110.01C297.609 110.158 297.821 110.306 298.018 110.461C299.038 111.221 300.058 112.072 301.072 112.994C312.986 123.888 327.019 135.12 327.378 135.12C327.448 135.155 327.406 135.247 327.3 135.472Z"
          fill="#FED81D"/>
    <path d="M295.892 140.912C289.326 138.16 283.225 135.535 280.536 134.135C278.801 133.259 277.129 132.262 275.533 131.151C271.937 128.624 269.417 125.746 268.495 122.326C267.573 118.906 268.291 114.74 271.254 109.877C272.026 108.629 273.038 107.547 274.23 106.692C275.422 105.837 276.771 105.226 278.2 104.894C277.982 108.708 276.673 112.502 274.484 115.07C273.348 116.405 272.75 118.116 272.809 119.868C272.868 121.62 273.578 123.287 274.801 124.543C276.75 126.654 280.079 128.019 284.52 127.435C286.349 127.196 288.144 128.04 289.756 129.504C292.796 132.214 295.174 137.062 295.892 140.912Z"
          fill="#FCC71F"/>
    <path d="M282.381 104.423C288.011 104.5 294.732 107.238 301.122 113.036C313.085 123.973 327.16 135.247 327.428 135.162"
          stroke="#FCC71F" stroke-width="0.75" stroke-linecap="round" stroke-linejoin="round"/>
    <path d="M321.374 135.366C319.551 138.941 316.166 145.338 316.166 145.338" stroke="#FCC71F" stroke-width="0.75"
          stroke-linecap="round" stroke-linejoin="round"/>
    <path d="M338.758 141.482C340.581 143.101 340.37 146.099 340.37 146.099C340.37 146.099 344.29 148.097 344.684 149.23C345.078 150.363 343.044 152.51 341.742 152.397C341.742 152.397 340.18 154.149 338.758 154.037C338.758 154.037 338.238 156.352 336.316 156.465C336.316 156.465 336.091 158.449 333.318 157.872"
          stroke="#914839" stroke-width="0.75" stroke-linecap="round" stroke-linejoin="round"/>
    <path d="M340.574 146.204L336.936 144.473" stroke="#914839" stroke-width="0.75" stroke-linecap="round"
          stroke-linejoin="round"/>
    <path d="M341.741 152.397C340.541 151.904 339.366 151.35 338.223 150.736" stroke="#914839" stroke-width="0.75"
          stroke-linecap="round" stroke-linejoin="round"/>
    <path d="M338.758 154.037C338.012 153.736 337.304 153.352 336.646 152.89" stroke="#914839" stroke-width="0.75"
          stroke-linecap="round" stroke-linejoin="round"/>
    <path d="M114.26 109.497C112.719 112.094 111.044 114.704 109.271 117.238C104.711 123.783 99.5732 129.905 94.7737 134.276C78.489 149.118 73.056 133.769 74.5902 127.492C75.8077 122.474 89.0874 103.881 96.7301 93.5639C98.6443 90.9811 100.2 88.9262 101.128 87.7157C105.787 81.7058 111.558 78.567 119.327 80.9316C126.365 83.071 122.199 96.1185 114.26 109.497Z"
          fill="#A7CAF0"/>
    <path d="M114.26 109.497C112.992 108.378 111.826 107.149 110.776 105.823C106.687 100.728 104.105 95.1122 96.7012 93.571C98.6154 90.9882 100.171 88.9333 101.1 87.7228C105.758 81.7128 111.529 78.5741 119.298 80.9387C126.364 83.0711 122.198 96.1185 114.26 109.497Z"
          fill="#A7CAF0"/>
    <path d="M83.8405 190.617C79.1042 206.98 67.5135 239.387 67.6543 240.021C67.6965 240.309 67.9428 243.814 68.2032 247.698C68.548 252.779 68.9069 258.515 68.9069 258.515C68.9069 258.515 36.7105 268.712 33.9518 267.973C31.1932 267.234 31.721 263.293 35.9716 260.105C36.8654 259.402 38.1673 258.332 39.6663 257.023C45.2399 252.139 53.5019 244.278 53.5019 244.278C53.5019 244.278 60.8842 181.729 62.1017 175.951C63.3192 170.174 68.3791 164.051 75.9233 164.691C83.7279 165.353 88.5556 174.255 83.8405 190.617Z"
          fill="#FEBD9D"/>
    <path d="M68.8991 258.515C68.8991 258.515 36.7027 268.712 33.944 267.973C31.1853 267.234 31.7132 263.293 35.9638 260.105C36.8575 259.402 38.1595 258.332 39.6585 257.023C45.5488 258.241 51.8544 256.263 55.1409 253.807C58.9692 250.831 63.4116 248.745 68.1461 247.698C68.5191 252.772 68.8991 258.515 68.8991 258.515Z"
          fill="#83ADDF"/>
    <path d="M192.579 106.801C192.734 105.612 192.656 103.93 189.243 102.114L188.117 107.238C188.117 107.238 192.312 108.877 192.579 106.801Z"
          fill="#A7CAF0"/>
    <path d="M176.59 101.516C177.681 96.3154 178.159 95.8368 177.997 93.3104C177.835 90.7839 177.519 87.7649 181.692 82.7049C185.865 77.645 188.328 73.6688 189.152 74.077C189.975 74.4852 189.426 78.1306 187.85 81.6493C187.85 81.6493 198.934 75.3156 201.263 74.4218C203.593 73.5281 202.087 77.7717 197.428 80.0518C197.428 80.0518 204.754 75.6323 206.534 75.9982C208.315 76.3642 205.028 78.9399 202.495 80.5937C202.495 80.5937 207.294 77.5746 208.244 78.5669C209.194 79.5592 206.548 81.6704 204.339 82.9935C204.339 82.9935 207.217 81.4945 207.695 82.2405C208.174 82.9864 207.695 83.8168 204.88 85.5973C202.065 87.3778 195.915 90.3898 191.2 95.7946L189.968 109.166C189.968 109.166 178.912 110.96 176.59 101.516Z"
          fill="#FEBD9D"/>
    <path d="M183.432 80.5726C186.577 76.5753 188.477 73.7322 189.181 74.077C190.005 74.4922 189.456 78.1306 187.879 81.6493C187.879 81.6493 198.963 75.3156 201.293 74.4219C203.622 73.5281 202.116 77.7717 197.457 80.0518C197.457 80.0518 204.783 75.6323 206.564 75.9982C208.344 76.3642 205.058 78.9399 202.524 80.5937C202.524 80.5937 207.324 77.5746 208.274 78.5669C209.224 79.5592 206.578 81.6704 204.368 82.9935C204.368 82.9935 207.246 81.4945 207.725 82.2405C208.204 82.9864 207.725 83.8169 204.91 85.5973"
          stroke="#F4A789" stroke-width="0.75" stroke-linecap="round" stroke-linejoin="round"/>
    <path d="M188.701 90.5024C189.18 86.7374 191.692 85.4917 193.81 84.9428" stroke="#F4A789" stroke-width="0.75"
          stroke-linecap="round" stroke-linejoin="round"/>
    <path d="M193.6 81.2342C196.626 81.3679 199.8 84.1617 200.004 85.1892" stroke="#F4A789" stroke-width="0.75"
          stroke-linecap="round" stroke-linejoin="round"/>
    <path d="M195.105 81.5015C195.148 81.5015 199.258 78.968 199.258 78.968" stroke="#F4A789" stroke-width="0.75"
          stroke-linecap="round" stroke-linejoin="round"/>
    <path d="M203.285 80.0588L198.119 83.0638" stroke="#F4A789" stroke-width="0.75" stroke-linecap="round"
          stroke-linejoin="round"/>
    <path d="M204.966 82.5994L201.061 84.7881" stroke="#F4A789" stroke-width="0.75" stroke-linecap="round"
          stroke-linejoin="round"/>
    <path d="M167.456 151.82C172.698 157.105 182.72 153.896 186.267 139.856C189.814 125.816 192.6 106.78 192.6 106.78C186.766 105.498 181.322 102.844 176.717 99.0389C171.594 112.952 160.65 144.951 167.456 151.82Z"
          fill="#A7CAF0"/>
    <path d="M176.696 99.046C173.311 108.286 167.337 125.507 165.711 138.048" stroke="#83ADDF" stroke-width="0.75"
          stroke-linecap="round" stroke-linejoin="round"/>
    <path d="M64.7526 169.097C61.7687 183.805 56.5751 195.621 51.1281 208.436C45.6811 221.252 40.0933 237.29 40.0933 239.788V251.126C40.0933 251.126 3.73778 257.305 2.09101 257.305C0.444244 257.305 -0.723975 253.786 2.79476 251.273C3.67444 250.654 5.46196 249.303 7.65765 247.628C14.3292 242.561 24.7235 234.489 24.7235 234.489C24.7235 234.489 37.1728 182.63 40.037 165.937C44.7099 138.991 68.7851 149.16 64.7526 169.097Z"
          fill="#FEBD9D"/>
    <path d="M59.9238 186.501C61.1695 182.918 62.3095 179.245 63.2948 175.388C68.7347 176.5 75.2585 177.422 83.4219 178.872"
          stroke="#F4A789" stroke-width="0.75" stroke-linecap="round" stroke-linejoin="round"/>
    <path d="M40.0933 240.696V251.112C40.0933 251.112 3.73778 257.29 2.09101 257.29C0.444244 257.29 -0.723975 253.772 2.79476 251.259C3.67444 250.64 5.46196 249.289 7.65765 247.614C14.2588 249.127 22.0493 246.615 26.2577 244.722C30.6516 242.72 35.3116 241.364 40.0933 240.696Z"
          fill="#83ADDF"/>
    <path d="M81.3066 140.701C88.1433 140.701 93.6855 135.738 93.6855 129.617C93.6855 123.495 88.1433 118.533 81.3066 118.533C74.47 118.533 68.9277 123.495 68.9277 129.617C68.9277 135.738 74.47 140.701 81.3066 140.701Z"
          fill="#A7CAF0"/>
    <path d="M159.977 86.6249C159.524 86.9093 159.054 87.1655 158.57 87.3919C150.906 91.0725 146.81 90.0099 146.043 86.3856C145.276 82.7613 137.253 85.4918 136.782 79.0877C136.31 72.6836 139.153 70.5935 138.618 67.3281C138.618 67.3281 138.991 66.4836 139.561 65.4843C140.765 63.3731 142.862 60.6636 144.424 63.4294C146.74 67.5252 148.175 67.0888 152.447 67.5674C156.719 68.0459 158.682 71.0087 157.373 73.1481C155.783 75.752 156.627 76.878 161.293 77.3072C165.487 77.6943 166.128 82.9372 159.977 86.6249Z"
          fill="#B25E47"/>
    <path d="M159.977 86.6249C159.524 86.9094 159.054 87.1655 158.57 87.392C150.906 91.0725 146.81 90.0099 146.043 86.3856C145.276 82.7613 137.253 85.4918 136.782 79.0877C136.31 72.6836 139.153 70.5935 138.618 67.3281C138.618 67.3281 138.991 66.4836 139.561 65.4843C145.191 67.2155 146.796 70.1713 146.247 72.7259C145.543 75.9772 148.407 80.2489 155.522 79.6648C159.09 79.3692 159.984 82.9795 159.977 86.6249Z"
          fill="#B25E47"/>
    <path d="M155.995 177.69C153.238 181.517 149.525 184.554 145.228 186.501C145.228 186.501 145.228 185.445 144.982 183.686C144.158 176.915 140.654 159.758 125.882 151.137L124.848 150.947H124.756L117.409 149.582C117.409 149.582 115.495 141.939 114.115 135.95C112.736 129.962 109.372 124.613 109.246 118.293C109.246 117.942 109.246 117.59 109.246 117.245C109.295 113.135 110.16 109.208 110.752 105.823C111.016 104.428 111.194 103.018 111.286 101.601C111.483 97.2514 108.056 92.3814 107.725 89.3483C107.395 86.3151 107.725 79.9251 115.699 80.6007C117.001 80.7063 118.19 80.8118 119.302 80.9174C120.414 81.023 121.596 81.1567 122.603 81.2833C122.962 81.3256 123.306 81.3819 123.658 81.4382C125.069 81.6282 126.463 81.9198 127.831 82.3108C128.929 82.6255 129.987 83.0647 130.984 83.6198C134.074 85.344 141.146 83.1412 142.012 82.8668H142.096C143.631 82.7682 144.989 82.6556 146.199 82.5501C147.41 82.4445 148.416 82.3601 149.331 82.2686C152.019 81.9871 153.603 81.7549 154.426 81.6563C154.912 81.6563 155.608 88.2645 156.354 97.1388C156.762 101.966 157.178 107.463 157.586 112.931C158.416 124.296 159.197 135.556 159.655 140.377C159.725 141.158 159.796 141.784 159.845 142.2C160.577 147.344 164.877 165.163 155.995 177.69Z"
          fill="#A7CAF0"/>
    <path d="M156.39 97.1318C154.163 98.5003 152.065 100.067 150.119 101.812C142.266 108.694 136.629 116.689 124.785 114.409C120.904 113.751 117.276 112.048 114.292 109.483C113.024 108.364 111.858 107.135 110.808 105.809C111.072 104.414 111.251 103.004 111.343 101.587C111.54 97.2373 108.113 92.3674 107.782 89.3343C107.451 86.3011 107.782 79.9111 115.756 80.5867C117.057 80.6923 118.247 80.7978 119.359 80.9034C120.471 81.0089 121.653 81.1427 122.659 81.2693C124.427 81.4712 126.176 81.8147 127.888 82.2968C128.986 82.6115 130.043 83.0506 131.041 83.6058C134.13 85.3299 141.203 83.1272 142.069 82.8528H142.153C145.165 82.6487 147.537 82.4376 149.388 82.2546C152.076 81.9731 153.659 81.7408 154.483 81.6423C154.947 81.6494 155.644 88.2575 156.39 97.1318Z"
          fill="#A7CAF0"/>
    <path d="M138.176 133.037C139.123 140.018 140.508 146.933 142.321 153.741L124.847 150.926H124.755C124.755 150.926 124.263 139.666 120.948 129.363C119.22 123.924 118.505 118.213 118.837 112.516C119.154 107.758 119.939 103.044 121.18 98.4407C122.499 92.877 123.333 87.2094 123.672 81.5016C124.474 81.6142 125.213 81.7408 125.91 81.8886L126.388 81.9942C126.904 82.1068 127.39 82.2334 127.845 82.3742C128.942 82.6889 130 83.128 130.998 83.6832C134.087 85.4073 141.16 83.2046 142.025 82.9302H142.11C143.067 82.8598 143.961 82.8035 144.784 82.7331L145.277 82.6909L146.213 82.6135C144.89 86.6741 139.415 103.529 137.627 112.417C137.437 113.402 137.282 114.289 137.184 115.042C136.67 119.096 137.205 126.014 138.176 133.037Z"
          fill="white"/>
    <path d="M146.262 82.5432C144.939 86.6038 139.464 103.459 137.677 112.347C133.801 114.651 129.192 115.389 124.791 114.409C122.749 114.029 120.765 113.388 118.887 112.502C119.204 107.744 119.989 103.03 121.23 98.4267C122.549 92.863 123.382 87.1953 123.721 81.4875C124.524 81.6001 125.263 81.7268 125.959 81.8746L126.438 81.9802C126.954 82.0928 127.44 82.2194 127.895 82.3602C128.992 82.6749 130.05 83.114 131.047 83.6692C134.137 85.3933 141.21 83.1906 142.075 82.9162H142.16C143.117 82.8458 144.01 82.7895 144.834 82.7191L145.326 82.6769L146.262 82.5432Z"
          fill="#F9F9F9"/>
    <path d="M145.614 102.952L149.696 112.262C148.528 114.254 141.322 127.322 138.176 133.037C137.205 125.999 136.67 119.096 137.198 114.972C138.176 107.329 144.756 87.0541 146.227 82.5431C147.409 82.4516 148.444 82.3531 149.358 82.2616L150.611 99.9397C149.696 100.545 145.614 102.952 145.614 102.952Z"
          fill="#A7CAF0"/>
    <path d="M121.194 98.3986C119.695 104.458 116.725 116.203 120.948 129.363C117.414 124.216 114.899 118.44 113.537 112.347L118.111 102.114L115.775 99.046C115.775 99.046 118.316 92.0086 122.601 81.3046C122.96 81.3468 123.305 81.4031 123.657 81.4594C123.327 87.1664 122.503 92.834 121.194 98.3986Z"
          fill="#A7CAF0"/>
    <path d="M144.256 81.7619C145.966 81.2552 147.387 81.7619 147.352 82.4657C147.268 84.3447 143.988 95.6891 142.574 96.2661C142.313 96.3717 140.688 91.1499 138.844 90.5165C137 89.8831 133.594 90.7488 133.671 90.7065C133.749 90.6643 140.575 80.5796 144.256 81.7619Z"
          fill="#683F1D"/>
    <path d="M127.965 81.3538C130.858 85.2525 130.464 88.1801 129.408 88.3138C128.352 88.4475 127.064 88.349 125.791 89.6861C124.517 91.0232 122.497 93.2049 122.342 92.9234C121.589 91.5159 122.87 82.3672 123.433 81.4171C124.13 80.2489 127.184 80.2981 127.965 81.3538Z"
          fill="#683F1D"/>
    <path d="M130.196 95.0065C129.845 102.445 128.12 105.295 127.079 109.884C126.037 114.472 126.959 120.721 128.641 127.921C130.323 135.12 130.232 138.998 130.196 139.786C130.161 140.574 128.5 145.092 132.139 146.823"
          stroke="#DDDDDD" stroke-linecap="round" stroke-linejoin="round"/>
    <path d="M144.264 81.762C144.264 81.762 133.082 93.1838 130.464 91.4877C127.846 89.7917 126.839 83.3102 127.128 81.1356C127.233 80.4319 127.43 79.0948 127.649 77.6169C128.106 74.6471 128.676 71.0298 128.775 70.2487C129.077 63.9149 139.465 58.4609 142.434 65.4773C142.005 70.9724 142.626 76.4991 144.264 81.762Z"
          fill="#FEBD9D"/>
    <path d="M127.646 77.5887C128.104 74.6189 128.674 71.0016 128.772 70.2205L135.536 67.8629C136.246 73.6407 133.312 76.9201 127.646 77.5887Z"
          fill="#F4A789"/>
    <path d="M109.273 117.245C109.323 113.135 110.188 109.208 110.779 105.823C111.044 104.428 111.222 103.018 111.314 101.601C111.406 99.4893 110.667 97.3006 109.829 95.2316"
          stroke="#83ADDF" stroke-width="0.75" stroke-linecap="round" stroke-linejoin="round"/>
    <path d="M144.608 154.248C140.301 153.22 125.881 151.144 125.881 151.144" stroke="#83ADDF" stroke-width="0.75"
          stroke-linecap="round" stroke-linejoin="round"/>
    <path d="M55.5699 147.801C48.0328 147.801 36.7729 159.948 44.5422 166.993C53.3672 174.966 63.3393 175.311 83.4242 178.879C83.4242 178.879 93.6778 147.823 55.5699 147.801Z"
          fill="#FEBD9D"/>
    <path d="M144.982 183.664C136.066 185.776 117.065 184.059 105.678 182.792C102.708 182.454 100.252 182.158 98.6407 181.968C97.388 181.821 96.6279 181.736 96.5294 181.75C74.4107 183.805 71.666 178.97 62.3344 167.021C53.0027 155.071 55.4447 148.533 55.5714 147.802C72.8413 146.394 102.441 147.689 117.438 149.582L125.883 151.116C129.556 153.261 132.793 156.078 135.425 159.42C142.329 168.112 144.377 178.689 144.982 183.664Z"
          fill="#FED81D"/>
    <path d="M83.8379 178.386C91.002 180.498 98.6166 181.968 98.6166 181.968" stroke="#FCC71F" stroke-width="0.75"
          stroke-linecap="round" stroke-linejoin="round"/>
    <path d="M144.98 183.664C136.064 185.776 117.062 184.059 105.676 182.792C110.996 178.851 116.647 179.006 122.932 180.181C135.881 182.595 138.351 177.957 135.24 173.024C132.51 168.675 131.341 162.524 135.423 159.42C142.327 168.112 144.375 178.689 144.98 183.664Z"
          fill="#FCC71F"/>
    <path d="M176.52 153.256C168.673 157.288 163.275 148.59 159.714 140.384C159.01 138.73 158.349 137.112 157.779 135.606C155.344 129.272 151.445 114.374 150.143 101.826C149.073 91.6145 149.777 82.9302 154.45 81.6494C160.017 80.1223 166.196 82.5854 169.827 92.9516C170.547 95.0645 171.116 97.2257 171.53 99.419C174.873 116.583 184.683 149.054 176.52 153.256Z"
          fill="#A7CAF0"/>
    <path d="M159.689 140.384C158.985 138.73 158.324 137.112 157.754 135.606C155.861 130.679 153.06 120.545 151.314 110.376"
          stroke="#83ADDF" stroke-width="0.75" stroke-linecap="round" stroke-linejoin="round"/>
    <path d="M169.836 92.9516C165.079 93.2294 160.463 94.6643 156.387 97.1318C154.161 98.5004 152.062 100.067 150.117 101.812C149.075 91.6145 149.779 82.9302 154.452 81.6494C160.025 80.1223 166.204 82.5854 169.836 92.9516Z"
          fill="#A7CAF0"/>
    <path d="M145.395 59.3969C142.699 64.5694 122.023 58.6931 122.023 58.6931C118.666 57.7149 116.984 56.3919 117.097 54.3581C117.21 52.3242 120.37 52.2468 119.553 50.3115C119.141 49.3674 118.902 48.3565 118.849 47.3276C118.793 45.4697 119.49 43.3374 122.213 41.6132C126.999 38.573 133.572 42.6547 133.572 42.6547C133.572 42.6547 136.577 40.1424 142.017 42.9363C144.768 44.3437 146.289 47.2291 146.76 50.396C147.223 53.4653 146.748 56.603 145.395 59.3969Z"
          fill="#B25E47"/>
    <path d="M145.395 59.3968C142.699 64.5694 122.023 58.6931 122.023 58.6931C118.666 57.7149 116.984 56.3918 117.097 54.358C117.21 52.3242 120.37 52.2468 119.553 50.3115C119.141 49.3673 118.902 48.3565 118.849 47.3276C123.304 42.6266 133.487 42.0495 134.585 46.4338C135.838 51.4234 138.21 59.3476 146.767 50.3959C147.228 53.4659 146.75 56.6037 145.395 59.3968Z"
          fill="#B25E47"/>
    <path d="M132.846 45.3219C136.744 42.6758 140.369 44.6745 141.382 47.588C142.853 51.8105 137.863 56.237 142.853 60.0021"
          stroke="#683F1D" stroke-width="0.75" stroke-linecap="round" stroke-linejoin="round"/>
    <path d="M121.482 48.1016C121.834 44.1466 127.943 40.3604 133.587 42.6265" stroke="#683F1D" stroke-width="0.75"
          stroke-linecap="round" stroke-linejoin="round"/>
    <path d="M142.43 65.4491C142.43 65.4491 136.765 70.9524 130.593 72.7258C124.421 74.4993 119.333 70.8187 119.826 62.0852C119.826 61.9374 119.826 61.7896 119.826 61.6488C119.91 60.5862 120.037 59.5376 120.206 58.5524C121.508 51.0223 125.421 45.5753 131.916 47.6161C133.908 48.2354 132.043 55.2659 133.38 58.4327C133.459 58.6279 133.558 58.8143 133.676 58.9887C134.12 59.6379 134.714 60.1712 135.407 60.544C137.603 61.7614 140.601 61.487 141.565 59.6291C142.972 56.9408 146.801 55.6388 148.131 60.1639C149.123 63.4082 145.555 66.3499 142.43 65.4491Z"
          fill="#FEBD9D"/>
    <path d="M135.438 60.5439C134.812 61.2904 133.991 61.8484 133.066 62.1554C131.243 62.8592 129.484 62.6269 129.139 61.705C128.794 60.7831 129.998 59.4812 131.827 58.8056C132.336 58.6098 132.868 58.4843 133.411 58.4326C133.489 58.6278 133.589 58.8142 133.706 58.9886C134.151 59.6378 134.745 60.1711 135.438 60.5439Z"
          fill="#F4A789"/>
    <path d="M121.707 61.6629C121.39 62.1273 120.687 62.254 119.828 62.0851C119.828 61.9373 119.828 61.7895 119.828 61.6488C119.913 60.5861 120.039 59.5376 120.208 58.5523C121.552 59.6009 122.2 60.9239 121.707 61.6629Z"
          fill="#F4A789"/>
    <path d="M122.854 56.7367C122.854 56.8912 122.899 57.0422 122.985 57.1707C123.071 57.2991 123.193 57.3992 123.336 57.4584C123.478 57.5175 123.636 57.533 123.787 57.5028C123.939 57.4727 124.078 57.3983 124.187 57.289C124.296 57.1798 124.371 57.0406 124.401 56.8891C124.431 56.7375 124.416 56.5805 124.356 56.4377C124.297 56.295 124.197 56.173 124.069 56.0872C123.94 56.0013 123.789 55.9555 123.635 55.9555C123.428 55.9555 123.229 56.0378 123.082 56.1843C122.936 56.3308 122.854 56.5295 122.854 56.7367Z"
          fill="#683F1D"/>
    <path d="M127.182 57.9259C127.182 58.1331 127.264 58.3318 127.41 58.4783C127.557 58.6248 127.756 58.7071 127.963 58.7071C128.17 58.7071 128.369 58.6248 128.515 58.4783C128.662 58.3318 128.744 58.1331 128.744 57.9259C128.744 57.7188 128.662 57.5201 128.515 57.3736C128.369 57.2271 128.17 57.1448 127.963 57.1448C127.756 57.1448 127.557 57.2271 127.41 57.3736C127.264 57.5201 127.182 57.7188 127.182 57.9259Z"
          fill="#683F1D"/>
    <path d="M142.572 62.1907C143.41 60.0794 145.254 59.0801 146.64 60.0794" stroke="#F4A789" stroke-width="0.75"
          stroke-linecap="round" stroke-linejoin="round"/>
    <path d="M142.854 61.5855C145.091 59.8754 146.64 63.6967 143.051 63.6967" stroke="#F4A789" stroke-width="0.75"
          stroke-linecap="round" stroke-linejoin="round"/>
    <path d="M120.777 52.9575C120.566 53.978 124.936 55.3714 125.351 53.3305C125.647 51.8597 121.009 51.8597 120.777 52.9575Z"
          fill="#B25E47"/>
    <path d="M127.997 53.612C127.519 55.3854 132.487 56.3144 133.022 55.118C133.479 54.1046 128.532 51.5993 127.997 53.612Z"
          fill="#B25E47"/>
    <path d="M123.481 61.5221C122.517 60.002 123.024 58.876 124.29 58.876C125.853 58.876 126.359 57.4685 126.289 55.498"
          stroke="#F4A789" stroke-width="0.75" stroke-linecap="round" stroke-linejoin="round"/>
    <path d="M123.451 63.0703C125.457 63.3167 128.124 62.0781 128.124 62.0781C128.124 62.0781 127.997 65.5968 125.788 65.9064C123.578 66.2161 123.451 63.0703 123.451 63.0703Z"
          fill="white" stroke="#F4A789" stroke-width="0.75" stroke-linecap="round" stroke-linejoin="round"/>
    <path d="M69.2149 42.3522C67.1529 41.0292 64.7813 41.3951 64.0846 43.2178C63.0782 45.8499 64.9713 47.6233 67.0966 48.313L69.2149 42.3522Z"
          fill="#F9F9F9" stroke="#DDDDDD" stroke-linecap="round" stroke-linejoin="round"/>
    <path d="M94.1152 60.0021C97.4791 61.3744 99.3019 62.1697 99.8578 61.7333C100.414 61.297 102.982 55.3996 102.708 54.7663C102.434 54.1329 97.1625 51.2827 97.1625 51.2827L94.1152 60.0021Z"
          fill="#DDDDDD" stroke="#DDDDDD" stroke-linecap="round" stroke-linejoin="round"/>
    <path d="M75.4453 85.0626C75.9731 82.8176 83.5243 80.9949 86.0719 80.5727V88.152C86.0719 88.152 78.0914 89.8129 75.4453 85.0626Z"
          fill="#A7CAF0"/>
    <path d="M78.6388 88.4336C79.9407 82.1561 80.8204 80.6923 80.4122 79.9041C80.004 79.1159 77.365 76.5402 77.0483 73.9012C76.7316 71.2621 79.5255 66.8285 80.5108 65.4562C81.496 64.0839 82.8683 63.0353 87.1823 63.718C91.4962 64.4006 93.1852 64.9917 93.2345 67.1241C93.2837 69.2565 91.3273 83.6762 91.3273 83.6762C91.3273 83.6762 87.9142 94.4295 78.6388 88.4336Z"
          fill="#FEBD9D"/>
    <path d="M84.0066 56.976C83.1128 61.1985 80.7623 68.2712 79.8826 71.6632C79.0029 75.0553 79.573 76.885 82.3809 77.4551C85.1889 78.0251 86.899 73.1693 87.469 69.9813C88.0391 66.7933 89.5803 58.8762 89.5803 58.8762L84.0066 56.976Z"
          fill="#F9F9F9" stroke="#DDDDDD" stroke-linecap="round" stroke-linejoin="round"/>
    <path d="M71.4885 135.993C81.0595 143.903 87.0977 127.421 89.3145 112.959C90.6948 103.26 91.3675 93.4731 91.3272 83.6763C91.3272 83.6763 83.3467 85.9001 75.4436 85.0838C73.0086 96.8082 63.684 129.546 71.4885 135.993Z"
          fill="#A7CAF0"/>
    <path d="M84.543 130.236C86.7879 125.415 88.3854 119.011 89.3144 112.959C90.6948 103.26 91.3674 93.4731 91.3271 83.6763"
          stroke="#83ADDF" stroke-width="0.75" stroke-linecap="round" stroke-linejoin="round"/>
    <path d="M95.4291 60.1711C94.3312 60.6074 91.8329 60.7341 88.5746 60.347C83.0452 59.6558 77.6766 58.0154 72.7051 55.4982L79.5033 40.7195C84.617 42.1959 89.4496 44.5123 93.8034 47.574C96.2665 49.2982 98.0259 50.9309 98.6381 52.0076C99.2504 53.0844 98.0189 59.1366 95.4291 60.1711Z"
          fill="#F9F9F9" stroke="#DDDDDD" stroke-linecap="round" stroke-linejoin="round"/>
    <path d="M95.4287 60.1711C94.3309 60.6074 91.8326 60.7341 88.5742 60.347C91.8466 56.6594 94.162 52.6551 93.8031 47.6092C96.2662 49.3334 98.0255 50.9661 98.6378 52.0428C99.2501 53.1195 98.0185 59.1366 95.4287 60.1711Z"
          fill="#F9F9F9" stroke="#DDDDDD" stroke-linecap="round" stroke-linejoin="round"/>
    <path d="M74.0928 56.5679C75.9085 56.033 81.4892 45.1531 80.687 41.9581C79.8847 38.7631 73.0583 31.4019 73.0583 31.4019C73.0583 31.4019 64.346 46.5043 62.7344 57.6728C62.7344 57.6869 71.4538 57.3491 74.0928 56.5679Z"
          fill="#DDDDDD" stroke="#DDDDDD" stroke-linecap="round" stroke-linejoin="round"/>
    <path d="M63.4664 36.5955L60.7852 32.176" stroke="#DDDDDD" stroke-linecap="round" stroke-linejoin="round"/>
    <path d="M52.9785 39.671L57.7077 41.5852" stroke="#DDDDDD" stroke-linecap="round" stroke-linejoin="round"/>
    <path d="M52.4238 49.2138L57.3149 48.3341" stroke="#DDDDDD" stroke-linecap="round" stroke-linejoin="round"/>
    <path d="M76.2883 70.6358C78.2447 69.6294 83.6354 75.562 80.3559 75.942C78.4136 76.1813 73.4099 72.1137 76.2883 70.6358Z"
          fill="#FEBD9D" stroke="#F4A789" stroke-width="0.75" stroke-linecap="round" stroke-linejoin="round"/>
    <path d="M76.7096 67.3422C78.6731 66.3359 84.4508 72.3177 81.2065 72.7259C79.2572 72.9652 73.8313 68.8201 76.7096 67.3422Z"
          fill="#FEBD9D" stroke="#F4A789" stroke-width="0.75" stroke-linecap="round" stroke-linejoin="round"/>
    <path d="M77.5206 63.9995C79.6318 62.9157 85.874 69.355 82.3482 69.7913C80.2581 70.0446 74.4241 65.5758 77.5206 63.9995Z"
          fill="#FEBD9D" stroke="#F4A789" stroke-width="0.75" stroke-linecap="round" stroke-linejoin="round"/>
    <path d="M78.7002 61.0015C80.7481 59.8051 86.8426 66.4625 83.7461 67.8489C82.2893 68.5034 75.7093 62.7608 78.7002 61.0015Z"
          fill="#FEBD9D" stroke="#F4A789" stroke-width="0.75" stroke-linecap="round" stroke-linejoin="round"/>
    <path d="M87.4636 67.7364C86.964 67.0819 82.3263 64.8792 82.8682 63.1198C83.4101 61.3604 88.9486 63.1691 91.5383 63.9995C94.1281 64.8299 93.4877 66.4415 92.8403 71.6633C92.8403 71.6633 90.5531 71.797 87.4636 67.7364Z"
          fill="#FEBD9D"/>
    <path d="M87.4636 67.7364C86.964 67.0819 82.3263 64.8792 82.8682 63.1198C83.4101 61.3604 88.9486 63.1691 91.5383 63.9995C94.1281 64.8299 93.4877 66.4415 92.8403 71.6633"
          stroke="#F4A789" stroke-width="0.75" stroke-linecap="round" stroke-linejoin="round"/>
</svg>
