<svg width="453" height="161" viewBox="0 0 453 161" fill="none" xmlns="http://www.w3.org/2000/svg">
    <g opacity="0.3">
        <path d="M67.8104 150.796H40.941C33.8586 150.796 28.1172 156.537 28.1172 163.619V163.629C28.1172 170.711 33.8586 176.452 40.941 176.452H67.8104C74.8928 176.452 80.6342 170.711 80.6342 163.629V163.619C80.6342 156.537 74.8928 150.796 67.8104 150.796Z"
              stroke="#DDDDDD" stroke-miterlimit="10"/>
        <path d="M168.373 46.5489H118.996C116.39 46.5489 113.89 45.5134 112.047 43.6703C110.203 41.8271 109.168 39.3273 109.168 36.7206V36.7206C109.167 35.4292 109.42 34.1502 109.914 32.9567C110.407 31.7633 111.131 30.6787 112.043 29.7651C112.956 28.8515 114.04 28.1268 115.233 27.6323C116.426 27.1378 117.705 26.8833 118.996 26.8833H168.373C169.666 26.8821 170.946 27.1357 172.14 27.6295C173.335 28.1234 174.42 28.8478 175.335 29.7614C176.249 30.675 176.975 31.7599 177.47 32.954C177.965 34.1481 178.219 35.428 178.219 36.7206V36.7206C178.218 38.0125 177.962 39.2915 177.467 40.4845C176.972 41.6776 176.246 42.7614 175.332 43.674C174.417 44.5867 173.332 45.3103 172.138 45.8036C170.944 46.2968 169.665 46.5501 168.373 46.5489V46.5489Z"
              stroke="#DDDDDD" stroke-miterlimit="10"/>
        <path d="M386.225 11.9147C398.316 17.6976 406.289 11.0097 413.294 7.66116C416.24 6.24062 419.589 5.88815 422.767 6.66405C425.945 7.43994 428.754 9.29599 430.715 11.9147L430.172 37.9605C430.172 37.9605 420.28 34.4491 414.651 37.9605C409.022 41.4719 402.289 50.1237 386.207 38.4401L386.225 11.9147Z"
              fill="#DDDDDD" stroke="#DDDDDD" stroke-width="2" stroke-linecap="round" stroke-linejoin="round"/>
        <path d="M432.767 119.98C432.099 119.98 431.458 119.716 430.985 119.244C430.512 118.773 430.245 118.133 430.242 117.465V7.24485C430.242 6.9137 430.308 6.5858 430.435 6.27996C430.562 5.97413 430.748 5.69638 430.982 5.46264C431.217 5.2289 431.495 5.04377 431.802 4.91787C432.108 4.79197 432.436 4.72777 432.767 4.72896C433.098 4.72777 433.426 4.79197 433.733 4.91787C434.039 5.04377 434.317 5.2289 434.552 5.46264C434.787 5.69638 434.973 5.97413 435.1 6.27996C435.227 6.5858 435.292 6.9137 435.292 7.24485V117.465C435.29 118.133 435.023 118.773 434.549 119.244C434.076 119.716 433.435 119.98 432.767 119.98Z"
              fill="#F9F9F9" stroke="#DDDDDD" stroke-width="2" stroke-linecap="round" stroke-linejoin="round"/>
        <path d="M413.738 120.813H452.002" stroke="#DDDDDD" stroke-width="2" stroke-linecap="round"
              stroke-linejoin="round"/>
        <path d="M67.8104 150.796H40.941C33.8586 150.796 28.1172 156.537 28.1172 163.619V163.629C28.1172 170.711 33.8586 176.452 40.941 176.452H67.8104C74.8928 176.452 80.6342 170.711 80.6342 163.629V163.619C80.6342 156.537 74.8928 150.796 67.8104 150.796Z"
              stroke="#DDDDDD" stroke-miterlimit="10"/>
        <path d="M168.373 46.5489H118.996C116.39 46.5489 113.89 45.5134 112.047 43.6703C110.203 41.8271 109.168 39.3273 109.168 36.7206V36.7206C109.167 35.4292 109.42 34.1502 109.914 32.9567C110.407 31.7633 111.131 30.6787 112.043 29.7651C112.956 28.8515 114.04 28.1268 115.233 27.6323C116.426 27.1378 117.705 26.8833 118.996 26.8833H168.373C169.666 26.8821 170.946 27.1357 172.14 27.6295C173.335 28.1234 174.42 28.8478 175.335 29.7614C176.249 30.675 176.975 31.7599 177.47 32.954C177.965 34.1481 178.219 35.428 178.219 36.7206V36.7206C178.218 38.0125 177.962 39.2915 177.467 40.4845C176.972 41.6776 176.246 42.7614 175.332 43.674C174.417 44.5867 173.332 45.3103 172.138 45.8036C170.944 46.2968 169.665 46.5501 168.373 46.5489V46.5489Z"
              stroke="#DDDDDD" stroke-miterlimit="10"/>
        <path d="M386.225 11.9147C398.316 17.6976 406.289 11.0097 413.294 7.66116C416.24 6.24062 419.589 5.88815 422.767 6.66405C425.945 7.43994 428.754 9.29599 430.715 11.9147L430.172 37.9605C430.172 37.9605 420.28 34.4491 414.651 37.9605C409.022 41.4719 402.289 50.1237 386.207 38.4401L386.225 11.9147Z"
              fill="#DDDDDD" stroke="#DDDDDD" stroke-width="2" stroke-linecap="round" stroke-linejoin="round"/>
        <path d="M432.767 119.98C432.099 119.98 431.458 119.716 430.985 119.244C430.512 118.773 430.245 118.133 430.242 117.465V7.24485C430.242 6.9137 430.308 6.5858 430.435 6.27996C430.562 5.97413 430.748 5.69638 430.982 5.46264C431.217 5.2289 431.495 5.04377 431.802 4.91787C432.108 4.79197 432.436 4.72777 432.767 4.72896C433.098 4.72777 433.426 4.79197 433.733 4.91787C434.039 5.04377 434.317 5.2289 434.552 5.46264C434.787 5.69638 434.973 5.97413 435.1 6.27996C435.227 6.5858 435.292 6.9137 435.292 7.24485V117.465C435.29 118.133 435.023 118.773 434.549 119.244C434.076 119.716 433.435 119.98 432.767 119.98Z"
              fill="#F9F9F9" stroke="#DDDDDD" stroke-width="2" stroke-linecap="round" stroke-linejoin="round"/>
        <path d="M413.738 120.813H452.002" stroke="#DDDDDD" stroke-width="2" stroke-linecap="round"
              stroke-linejoin="round"/>
        <path d="M287.704 14.143C282.274 15.229 280.313 20.6289 280.012 23.193H284.084C289.665 26.5114 301.46 32.243 303.994 28.623C307.162 24.098 302.184 16.4055 297.659 14.143C293.134 11.8805 294.492 12.7855 287.704 14.143Z"
              fill="#7F542D"/>
        <path d="M299.155 28.1593C299.155 28.1593 298.974 28.5756 298.648 29.2815C298.322 29.9874 298.006 30.6119 297.535 31.4987C297.218 32.1141 296.865 32.7748 296.467 33.4716C296.232 33.897 295.978 34.3766 295.707 34.7839L295.445 35.2092C294.847 36.1957 294.187 37.2183 293.463 38.2229C292.956 38.9288 292.422 39.6347 291.861 40.3134C287.462 45.6439 283.77 43.4085 283.77 43.4085C282.739 44.3054 281.883 45.3855 281.245 46.5941C280.351 48.2497 279.705 50.0273 279.326 51.8703C268.946 59.436 262.358 49.463 265.444 40.594C269.643 36.6389 273.389 32.2285 276.611 27.4444C273.263 22.9918 278.838 19.1093 281.399 21.6614L286.947 19.0912C298.639 15.9961 299.155 28.1593 299.155 28.1593Z"
              fill="#FEBD9D"/>
        <path d="M281.822 26.7924C282.184 24.9824 281.068 22.1166 280.465 20.91L284.537 18.6475L289.967 16.8375C287.101 20.91 281.46 28.6024 281.822 26.7924Z"
              fill="#7F542D"/>
        <path d="M278.105 22.7836C279.572 22.7836 280.82 23.3809 280.54 25.6344" stroke="#F4A789" stroke-width="0.75"
              stroke-linecap="round" stroke-linejoin="round"/>
        <path d="M279.579 26.7023C277.453 25.381 279.317 23.6434 280.484 24.7384" stroke="#F4A789" stroke-width="0.75"
              stroke-linecap="round" stroke-linejoin="round"/>
        <path d="M289.989 37.9605C288.459 37.4808 287.799 35.5441 288.179 33.8699C284.106 36.7116 287.147 40.0782 289.989 37.9605Z"
              fill="white" stroke="#F4A789" stroke-width="0.75" stroke-linecap="round" stroke-linejoin="round"/>
        <path d="M291.039 35.5984C292.415 35.5984 293.618 35.8337 293.944 33.2364C294.025 32.4968 294.284 31.7878 294.698 31.17C295.113 30.5522 295.671 30.0439 296.324 29.6888"
              stroke="#F4A789" stroke-width="0.75" stroke-linecap="round" stroke-linejoin="round"/>
        <path d="M276.609 27.4443C277.109 28.1436 277.81 28.674 278.618 28.9647" stroke="#F4A789" stroke-width="0.75"
              stroke-linecap="round" stroke-linejoin="round"/>
        <path d="M290.93 30.7747C290.93 30.9537 290.983 31.1287 291.082 31.2775C291.182 31.4264 291.323 31.5424 291.488 31.6109C291.654 31.6794 291.836 31.6973 292.011 31.6624C292.187 31.6274 292.348 31.5412 292.475 31.4147C292.601 31.2881 292.687 31.1269 292.722 30.9513C292.757 30.7758 292.739 30.5938 292.671 30.4284C292.602 30.2631 292.486 30.1217 292.338 30.0223C292.189 29.9228 292.014 29.8698 291.835 29.8698C291.595 29.8698 291.364 29.9651 291.195 30.1348C291.025 30.3045 290.93 30.5347 290.93 30.7747Z"
              fill="#683F1D"/>
        <path d="M296.467 33.4898C296.232 33.9151 295.978 34.3948 295.707 34.802H295.643C295.403 34.802 295.173 34.7067 295.003 34.5369C294.834 34.3672 294.738 34.137 294.738 33.897C294.738 33.657 294.834 33.4268 295.003 33.2571C295.173 33.0874 295.403 32.992 295.643 32.992C295.813 32.9891 295.981 33.0343 296.127 33.1224C296.272 33.2104 296.39 33.3377 296.467 33.4898Z"
              fill="#683F1D"/>
        <path d="M290.583 26.2498C290.149 27.562 294.203 28.9648 294.81 27.6073C295.416 26.2498 291.135 24.5393 290.583 26.2498Z"
              fill="#683F1D"/>
        <path d="M298.647 29.2815C298.376 29.8517 298.005 30.6119 297.534 31.4988C296.729 30.5938 295.987 29.3992 296.249 28.9376C296.665 28.2046 297.797 28.7204 298.647 29.2815Z"
              fill="#683F1D"/>
        <path d="M283.771 43.4447C282.739 44.3416 281.883 45.4217 281.246 46.6303C275.997 42.6755 279.336 38.1686 279.336 38.1686C280.252 40.3323 281.797 42.1707 283.771 43.4447Z"
              fill="#F4A789"/>
        <path d="M304.521 27.2996C304.448 28.7747 303.091 30.2499 300.801 30.2861C298.674 30.2861 297.109 27.8878 297.462 25.5258C297.462 25.5258 293.842 26.3674 293.235 21.6524C293.235 21.6524 290.285 24.0597 288.71 20.1501C286.928 21.7249 285.298 23.4642 283.841 25.3448C282.032 27.8788 281.127 27.5258 281.072 26.4489C281.018 25.3719 282.149 23.5891 282.285 23.3719C283.459 22.6533 284.441 21.6593 285.145 20.4759C287.443 17.0459 289.805 14.9282 291.842 17.4622C293.878 19.9962 296.231 17.4622 297.127 20.5302C297.978 23.4714 299.896 28.0055 304.521 27.2996Z"
              fill="#683F1D"/>
        <path d="M291.344 13.2087C291.461 15.8604 289.117 19.046 289.117 19.046" stroke="#7F542D" stroke-width="0.75"
              stroke-linecap="round" stroke-linejoin="round"/>
        <path d="M293.969 20.6297C294.45 19.7505 295.119 18.9877 295.927 18.395C296.736 17.8024 297.664 17.3944 298.648 17.1998"
              stroke="#7F542D" stroke-width="0.75" stroke-linecap="round" stroke-linejoin="round"/>
        <path d="M297.914 24.7294C299.223 23.9301 300.745 23.5481 302.276 23.6343" stroke="#7F542D" stroke-width="0.75"
              stroke-linecap="round" stroke-linejoin="round"/>
        <path d="M283.605 19.9148C284.093 20.1267 284.521 20.4556 284.851 20.8724C285.18 21.2892 285.402 21.7809 285.497 22.304"
              stroke="#7F542D" stroke-width="0.75" stroke-linecap="round" stroke-linejoin="round"/>
        <path d="M287.453 32.1956C286.249 32.5305 284.937 31.535 284.511 29.9874C284.086 28.4399 284.719 26.9104 285.923 26.5846C287.127 26.2588 288.448 27.2453 288.864 28.7928C289.281 30.3404 288.629 31.8698 287.453 32.1956Z"
              fill="#F4A789"/>
        <path d="M295.444 35.2092C294.847 36.1957 294.186 37.2183 293.462 38.2229C293.383 38.0606 293.331 37.8863 293.309 37.707C293.31 37.1048 293.525 36.5226 293.917 36.0649C294.308 35.6072 294.85 35.3039 295.444 35.2092Z"
              fill="#F4A789"/>
        <path d="M312.694 150.732C311.363 162.941 302.295 157.067 289.634 155.384L282.611 155.103L235.904 153.293L232.004 153.14L245.579 114.858C275.598 123.763 314.377 135.184 312.694 150.732Z"
              fill="#FED81D"/>
        <path d="M282.613 155.103L235.906 153.293L237.3 143.085L243.68 126.705C243.68 126.705 254.45 126.053 251.174 135.474C247.897 144.895 249.21 151.574 266.224 147.13C276.504 144.424 280.812 150.153 282.613 155.103Z"
              fill="#FCC71F"/>
        <path d="M257.416 100.46C249.461 110.822 245.154 133.275 244.158 146.75C243.443 156.452 241.986 181.439 238.339 202.335C225.75 229.331 208.402 216.58 209.379 197.557V197.457C211.071 183.52 210.284 171.592 208.737 166.606C206.637 159.981 201.451 137.899 200.592 128.84C198.655 108.93 203.135 91.9527 209.642 82.2601L257.416 100.46Z"
              fill="#FED81D"/>
        <path d="M243.68 153.574C243.87 150.859 244.033 148.569 244.159 146.787C244.795 138.992 246.048 131.26 247.906 123.664"
              stroke="#FCC71F" stroke-width="0.75" stroke-linecap="round" stroke-linejoin="round"/>
        <path d="M214.421 96.6677C207.09 145.972 221.19 164.543 219.045 192.163C218.273 199.776 216.877 207.313 214.873 214.698"
              stroke="#FCC71F" stroke-width="0.75" stroke-linecap="round" stroke-linejoin="round"/>
        <path d="M212.348 119.98C217.714 114.287 220.83 106.839 221.117 99.0207" stroke="#FCC71F" stroke-width="0.75"
              stroke-linecap="round" stroke-linejoin="round"/>
        <path d="M244.386 107.908C244.386 107.908 242.087 118.496 241.164 121.483C241.164 121.483 244.386 121.999 245.535 119.971C246.685 117.944 248.838 109.111 248.838 109.111"
              stroke="#FCC71F" stroke-width="0.75" stroke-linecap="round" stroke-linejoin="round"/>
        <path d="M297.925 87.1291L293.309 106.768C292.042 113.256 291.698 118.532 290.983 122.37C289.997 127.727 288.268 130.442 282.467 130.135L282.232 130.071L281.399 129.845L280.847 129.682L280.123 129.438C279.806 129.32 279.499 129.202 279.218 129.076C278.693 128.865 278.18 128.626 277.68 128.361L277.137 128.062C276.333 127.611 275.572 127.087 274.865 126.496C274.726 126.389 274.593 126.275 274.467 126.153C273.419 125.237 272.519 124.165 271.797 122.976C271.596 122.654 271.412 122.322 271.245 121.981C270.805 121.115 270.459 120.205 270.213 119.266C270.168 119.103 270.132 118.949 270.096 118.795C270.06 118.641 270.014 118.433 269.987 118.261C269.96 118.089 269.933 117.953 269.906 117.799C269.78 117.007 269.746 116.202 269.806 115.401C270.114 112.089 274.214 77.9162 274.214 77.9162L275.716 74.2057L277.725 69.2372L297.925 87.1291Z"
              fill="#A7CAF0"/>
        <path d="M290.982 122.37C289.995 127.727 288.267 130.442 282.466 130.135L282.212 130.071L281.38 129.845L280.828 129.682L280.104 129.438C279.787 129.32 279.479 129.202 279.199 129.076C278.674 128.865 278.16 128.626 277.66 128.361L277.117 128.062C276.313 127.611 275.553 127.087 274.846 126.496C274.707 126.389 274.574 126.275 274.447 126.153C273.4 125.237 272.5 124.165 271.778 122.976C271.576 122.654 271.392 122.322 271.226 121.981C270.786 121.115 270.44 120.205 270.194 119.266C270.149 119.103 270.112 118.949 270.076 118.795C270.04 118.641 269.995 118.433 269.968 118.261C269.941 118.089 269.913 117.953 269.886 117.799C269.76 117.007 269.727 116.202 269.787 115.401C270.094 112.089 274.194 77.9162 274.194 77.9162L275.696 74.2057C278.945 80.423 282.791 90.4956 278.312 97.3465C271.416 107.899 272.429 125.021 286.104 122.795C287.716 122.528 289.347 122.386 290.982 122.37Z"
              fill="#A7CAF0"/>
        <path d="M284.52 71.5721C283.313 72.5133 282.106 73.5269 280.9 74.6129C269.352 85.1018 258.863 101.763 255.904 103.573C251.641 106.125 241.65 104.659 232.066 102.224C224.854 100.432 217.787 98.0992 210.925 95.2469C205.124 92.5319 203.685 90.8576 204.654 88.7037C205.622 86.5498 211.387 73.0925 211.387 73.0925L209.966 71.6898L194.246 56.1962C203.559 49.1734 215.749 41.3271 226.944 36.965C234.537 34.0147 241.659 32.6753 247.116 34.25L284.52 71.5721Z"
              fill="#A7CAF0"/>
        <path d="M284.522 71.5721C283.315 72.5133 282.108 73.5269 280.902 74.6129C268.756 74.812 257.172 83.0837 246.937 74.1966C234.267 63.2009 245.733 55.0559 237.887 44.3317C235.121 40.7745 231.301 38.1833 226.973 36.9288C234.566 33.9785 241.688 32.6391 247.145 34.2138L284.522 71.5721Z"
              fill="#A7CAF0"/>
        <path d="M232.077 102.206C224.865 100.413 217.798 98.0811 210.936 95.2288C205.135 92.5138 203.696 90.8395 204.665 88.6856C205.633 86.5317 211.398 73.0744 211.398 73.0744L209.977 71.6717C214.502 66.9114 220.774 60.3049 221.117 59.9067C221.67 59.2551 234.91 63.6715 234.91 63.6715C234.91 63.6715 234.466 78.4863 222.348 79.8981C210.23 81.3099 212.393 90.9572 223.136 92.2694C230.041 93.093 231.742 98.4505 232.077 102.206Z"
              fill="#A7CAF0"/>
        <path d="M195.116 55.5355C175.921 66.6761 192.202 104.731 234.511 66.7304C238.972 45.3453 214.936 42.6574 195.116 55.5355Z"
              fill="#A7CAF0"/>
        <path d="M284.522 71.5721C281.009 74.3651 277.745 77.4567 274.766 80.8122" stroke="#83ADDF" stroke-width="0.75"
              stroke-linecap="round" stroke-linejoin="round"/>
        <path d="M312.982 157.99C310.149 179.185 304.728 218.336 304.728 218.336H282.203L289.633 155.384C289.733 144.424 297.172 132.759 304.774 137.863C315.245 144.94 313.534 153.855 312.982 157.99Z"
              fill="#FED81D"/>
        <path d="M330.493 131.429C330.493 131.429 321.443 131.754 310.827 131.754C302.076 131.754 292.275 131.537 285.695 130.723C285.189 130.659 284.7 130.587 284.22 130.497C284.003 130.497 283.786 130.424 283.578 130.379C283.369 130.334 283.216 130.316 283.035 130.27C282.718 130.207 282.41 130.125 282.13 130.053L281.225 129.791L281.017 129.727L280.247 129.465L280.112 129.42L279.207 129.076C279.173 129.068 279.142 129.052 279.116 129.03C268.853 122.496 268.546 115.32 274.148 110.93C278.084 107.799 284.953 106.044 293.343 106.813L328.927 113.935L330.493 131.429Z"
              fill="#A7CAF0"/>
        <path d="M310.827 131.754C302.076 131.754 292.275 131.537 285.695 130.723C285.189 130.659 284.7 130.587 284.22 130.497C284.003 130.497 283.786 130.424 283.578 130.379C283.369 130.334 283.216 130.316 283.035 130.27C282.718 130.207 282.41 130.125 282.13 130.053L281.225 129.791L281.017 129.727L280.247 129.465L280.112 129.42L279.207 129.076C279.173 129.068 279.142 129.052 279.116 129.03C268.853 122.496 268.546 115.32 274.148 110.93C274.057 118.17 277.668 124.207 286.112 122.831C297.677 120.895 307.678 125.492 310.827 131.754Z"
              fill="#A7CAF0"/>
        <path d="M293.314 106.795C290.917 106.392 288.5 106.111 286.074 105.953" stroke="#83ADDF" stroke-width="0.75"
              stroke-linecap="round" stroke-linejoin="round"/>
        <path d="M384.017 163.619L373.618 159.538L357.889 153.348C357.889 153.348 278.159 74.4228 239.968 36.5125C229.461 26.0778 222.094 18.7564 220.402 17.0369C214.773 11.2992 228.103 -3.77805 235.226 2.50264C235.778 3.00039 243.172 10.168 254.285 20.9827C292.467 58.0876 374.65 138.234 374.65 138.234L380.152 153.112L384.017 163.619Z"
              fill="#F9F9F9" stroke="#DDDDDD" stroke-width="2" stroke-linecap="round" stroke-linejoin="round"/>
        <path d="M260.848 37.3722L363.348 136.533" stroke="#DDDDDD" stroke-linecap="round" stroke-linejoin="round"/>
        <path d="M256.477 44.0782L358.072 142.37" stroke="#DDDDDD" stroke-linecap="round" stroke-linejoin="round"/>
        <path d="M380.122 153.112C377.276 154.437 374.976 156.708 373.616 159.538L357.887 153.348C357.887 153.348 358.321 148.108 364.131 148.913C362.882 145.519 365.389 141.673 369.679 144.443C369.679 144.443 368.774 138.913 374.62 138.234L380.122 153.112Z"
              fill="#F9F9F9" stroke="#DDDDDD" stroke-width="2" stroke-linecap="round" stroke-linejoin="round"/>
        <path d="M384.016 163.619L373.617 159.538C374.978 156.708 377.277 154.437 380.124 153.112L384.016 163.619Z"
              fill="#DDDDDD" stroke="#DDDDDD" stroke-width="2" stroke-linecap="round" stroke-linejoin="round"/>
        <path d="M254.285 20.9827C249.516 26.1502 244.285 31.8427 239.968 36.5125C229.461 26.0778 222.094 18.7564 220.402 17.0369C214.773 11.2992 228.103 -3.77805 235.226 2.50264C235.778 3.00039 243.172 10.168 254.285 20.9827Z"
              stroke="#DDDDDD" stroke-width="2" stroke-linecap="round" stroke-linejoin="round"/>
        <path d="M249.054 15.8966L234.402 30.992" stroke="#DDDDDD" stroke-width="2" stroke-linecap="round"
              stroke-linejoin="round"/>
        <path d="M322.379 119.98C330.28 113.356 332.072 113.437 332.805 114.306C333.538 115.175 330.262 118.976 329.185 119.98C329.185 119.98 335.873 114.967 337.809 116.17C339.746 117.374 337.203 119.98 337.203 119.98C337.203 119.98 340.932 119.917 338.533 123.926C338.533 123.926 340.47 123.926 339.339 125.926C338.207 127.926 331.257 132.696 328.723 131.483C326.189 130.27 318.56 123.193 322.379 119.98Z"
              fill="#FEBD9D"/>
        <path d="M325.809 117.229C330.84 113.401 332.144 113.609 332.804 114.306C333.465 115.003 330.261 118.976 329.184 119.98C329.184 119.98 335.872 114.967 337.809 116.17C339.746 117.374 337.202 119.98 337.202 119.98C337.202 119.98 340.931 119.917 338.533 123.926C338.533 123.926 340.47 123.926 339.338 125.926"
              stroke="#F4A789" stroke-width="0.75" stroke-linecap="round" stroke-linejoin="round"/>
        <path d="M337.211 119.98L330.152 124.542" stroke="#F4A789" stroke-width="0.75" stroke-linecap="round"
              stroke-linejoin="round"/>
        <path d="M332.023 127.981L338.539 123.926" stroke="#F4A789" stroke-width="0.75" stroke-linecap="round"
              stroke-linejoin="round"/>
        <path d="M329.194 119.98L327.148 121.655" stroke="#F4A789" stroke-width="0.75" stroke-linecap="round"
              stroke-linejoin="round"/>
        <path d="M246.388 63.6172C247.243 59.9458 247.143 56.1166 246.098 52.4948L238.125 56.2957C238.125 56.2957 241.03 64.2597 246.388 63.6172Z"
              fill="#A7CAF0"/>
        <path d="M238.014 42.3678C240.253 42.143 242.475 41.7742 244.666 41.2637C245.145 40.9922 248.584 38.241 250.096 37.2455C251.607 36.25 257.752 32.2771 258.331 32.6482C258.911 33.0192 259.119 34.8201 258.015 36.1414C258.015 36.1414 264.721 33.2907 267.617 32.9468C269.979 32.6663 269.517 34.8925 267.933 35.9152C270.467 34.793 273.481 35.9152 270.051 38.3587C272.368 37.9605 273.571 39.7433 269.942 42.3678C271.951 41.2637 273.318 42.766 271.472 44.6394C268.467 47.6983 262.286 50.0694 260.331 50.8115C258.377 51.5536 245.987 54.3048 241.182 57.0198C241.182 57.0198 237.046 49.5897 238.014 42.3678Z"
              fill="#FEBD9D"/>
        <path d="M250.105 37.2455C251.635 36.25 257.762 32.2771 258.341 32.6482C258.92 33.0192 259.128 34.8201 258.024 36.1414C258.024 36.1414 264.73 33.2907 267.626 32.9468C269.988 32.6663 269.527 34.8925 267.943 35.9152C270.477 34.793 273.491 35.9152 270.061 38.3587C272.377 37.9605 273.581 39.7433 269.952 42.3678C271.961 41.2637 273.328 42.766 271.482 44.6394"
              stroke="#F4A789" stroke-width="0.75" stroke-linecap="round" stroke-linejoin="round"/>
        <path d="M258.025 36.1414L254.559 37.8428" stroke="#F4A789" stroke-width="0.75" stroke-linecap="round"
              stroke-linejoin="round"/>
        <path d="M267.943 35.9152L260.848 39.2094" stroke="#F4A789" stroke-width="0.75" stroke-linecap="round"
              stroke-linejoin="round"/>
        <path d="M270.061 38.3587L262.359 42.3678" stroke="#F4A789" stroke-width="0.75" stroke-linecap="round"
              stroke-linejoin="round"/>
        <path d="M269.954 42.3679L263.918 45.7978" stroke="#F4A789" stroke-width="0.75" stroke-linecap="round"
              stroke-linejoin="round"/>
        <path d="M241.572 39.8972C229.182 41.1552 206.829 44.8657 190.068 56.9926C183.579 61.6805 183.679 81.4276 201.39 79.7895C219.1 78.1515 246.413 63.6172 246.413 63.6172C246.413 63.6172 239.39 62.0697 241.572 39.8972Z"
              fill="#A7CAF0"/>
        <path d="M212.348 77.6175C228.538 73.0925 246.385 63.6172 246.385 63.6172C246.385 63.6172 239.389 62.0697 241.543 39.8972C232.066 40.8142 222.708 42.6973 213.615 45.5173"
              stroke="#83ADDF" stroke-width="0.75" stroke-linecap="round" stroke-linejoin="round"/>
        <path d="M161.418 196.39C160.794 198.887 159.056 201.231 155.617 203.123C155.21 203.249 154.794 203.367 154.377 203.476C153.961 203.584 153.608 203.648 153.219 203.72L152.495 203.82L151.997 203.874H151.753C151.336 203.874 150.92 203.919 150.504 203.919C143.78 203.919 136.522 199.62 131.083 187.928C131.083 187.928 127.662 194.426 126.72 198.598C126.581 199.152 126.5 199.719 126.476 200.29C126.436 202.721 126.66 205.148 127.146 207.53C127.146 207.53 113.743 207.675 104.811 210.299C95.8782 212.924 85.8598 217.784 72.0677 220.598C72.0677 220.598 72.7464 214.263 75.0813 210.987C74.2036 210.667 73.459 210.061 72.9667 209.266C72.4744 208.472 72.263 207.536 72.3663 206.607C72.674 204.019 75.2442 202.86 78.5022 197.838C79.556 196.198 80.4935 194.486 81.3077 192.715C86.4481 181.647 85.2806 178.824 84.6109 177.756L78.4479 184.38C67.3798 196.263 45.1349 220.11 43.6145 221.567C41.5692 223.512 38.3837 224.282 37.2253 223.503C36.5194 223.033 31.7953 226.797 28.1753 229.838C25.8132 231.829 23.9127 233.513 23.9127 233.513L10.4102 225.368C10.4102 225.368 14.2111 222.218 18.1388 218.879C22.2928 215.358 26.5915 211.639 26.7273 211.186C27.0169 210.281 26.139 208.046 28.0757 206.019C29.8043 204.209 62.719 167.231 74.1039 154.126C75.5791 152.425 76.7012 151.131 77.3347 150.361C82.8824 143.673 86.2218 140.406 94.2039 138.424L133.182 139.266C133.182 139.266 144.395 137.212 146.757 144.235C147.092 145.266 147.445 146.678 147.807 148.352C149.907 158.181 152.088 176.878 152.088 176.878C152.088 176.878 163.59 187.575 161.418 196.39Z"
              fill="#FED81D"/>
        <path d="M147.727 148.325C144.007 148.026 139.274 148.814 136.649 153.755C131.88 162.805 116.034 174.57 104.929 160.642C96.2504 149.782 88.4041 148.986 74.0508 154.063C75.5259 152.361 76.6481 151.067 77.2816 150.298C82.8292 143.61 86.1687 140.343 94.1508 138.361L133.129 139.203C133.129 139.203 144.342 137.148 146.704 144.171C147.012 145.239 147.365 146.615 147.727 148.325Z"
              fill="#FED81D"/>
        <path d="M131.066 187.919C137.085 174.796 137.356 168.262 135.953 162.036C135.374 159.384 134.478 156.805 133.609 153.791"
              stroke="#FCC71F" stroke-width="0.75" stroke-linecap="round" stroke-linejoin="round"/>
        <path d="M91.2461 145.13L97.2372 141.112" stroke="#FCC71F" stroke-width="0.75" stroke-linecap="round"
              stroke-linejoin="round"/>
        <path d="M97.75 148.606L100.981 143.275" stroke="#FCC71F" stroke-width="0.75" stroke-linecap="round"
              stroke-linejoin="round"/>
        <path d="M103.379 149.945L104.926 144.787" stroke="#FCC71F" stroke-width="0.75" stroke-linecap="round"
              stroke-linejoin="round"/>
        <path d="M107.137 150.479L108.25 145.583" stroke="#FCC71F" stroke-width="0.75" stroke-linecap="round"
              stroke-linejoin="round"/>
        <path d="M110.828 151.275L111.498 146.072" stroke="#FCC71F" stroke-width="0.75" stroke-linecap="round"
              stroke-linejoin="round"/>
        <path d="M117.039 151.275V146.434" stroke="#FCC71F" stroke-width="0.75" stroke-linecap="round"
              stroke-linejoin="round"/>
        <path d="M121.75 146.434L122.465 151.275" stroke="#FCC71F" stroke-width="0.75" stroke-linecap="round"
              stroke-linejoin="round"/>
        <path d="M125.098 145.836L126.31 151.275" stroke="#FCC71F" stroke-width="0.75" stroke-linecap="round"
              stroke-linejoin="round"/>
        <path d="M128.125 145.13L129.799 149.547" stroke="#FCC71F" stroke-width="0.75" stroke-linecap="round"
              stroke-linejoin="round"/>
        <path d="M130.559 143.918L132.749 148.606" stroke="#FCC71F" stroke-width="0.75" stroke-linecap="round"
              stroke-linejoin="round"/>
        <path d="M133.281 143.918L136.032 146.072" stroke="#FCC71F" stroke-width="0.75" stroke-linecap="round"
              stroke-linejoin="round"/>
        <path d="M134.656 141.429L138.041 143.121" stroke="#FCC71F" stroke-width="0.75" stroke-linecap="round"
              stroke-linejoin="round"/>
        <path d="M125.67 134.714C125 134.406 124.267 134.089 123.479 133.809C121.572 133.097 119.541 132.771 117.506 132.85C110.52 132.931 94.1484 138.443 94.1484 138.443C94.5014 138.931 98.782 143.682 107.506 145.483C116.23 147.284 125.172 146.388 129 144.868C130.119 144.384 131.09 143.612 131.815 142.632C132.54 141.651 132.992 140.496 133.127 139.284C133.127 139.284 131.308 137.284 125.67 134.714Z"
              fill="#B25E47"/>
        <path d="M179.256 145.112C177.917 148.732 176.478 151.927 176.478 151.927L176.333 152.497L173.618 163.529C173.618 163.529 175.754 164.099 175.7 165.973C175.645 167.846 171.7 183.231 167.89 191.91C167.727 192.299 167.528 192.679 167.329 193.068C167.129 193.457 167.03 193.629 166.867 193.901C166.529 194.468 166.167 195.02 165.781 195.557C165.6 195.81 165.419 196.055 165.229 196.29C165.039 196.525 164.813 196.806 164.586 197.05C164.36 197.295 164.161 197.53 163.944 197.765C163.482 198.245 163.039 198.67 162.487 199.141L161.718 199.774C160.435 200.793 159.034 201.653 157.545 202.335H157.482L156.577 202.715C156.269 202.833 155.962 202.951 155.672 203.05C149.419 201.448 147.364 197.349 147.219 192.86C146.975 185.385 152.07 176.823 152.07 176.823C152.066 176.809 152.066 176.793 152.07 176.778C152.369 175.928 157.283 162.226 158.288 161.095C159.292 159.963 161.283 160.705 161.283 160.705L164.804 149.511L165.573 147.058C165.573 147.058 165.292 146.47 164.912 145.61C164.089 143.846 163.481 141.99 163.102 140.081C162.894 137.9 164.912 136.533 166.541 136.28C166.541 136.28 166.695 132.533 167.944 131.012C168.138 130.706 168.415 130.461 168.742 130.306C169.07 130.151 169.435 130.092 169.795 130.135C170.155 130.179 170.495 130.323 170.776 130.552C171.057 130.781 171.267 131.085 171.383 131.429C171.772 130.126 174.623 129.945 174.695 132.515C174.805 132.068 175.08 131.679 175.466 131.428C175.851 131.177 176.318 131.083 176.771 131.163C177.224 131.244 177.629 131.494 177.904 131.863C178.179 132.231 178.303 132.691 178.252 133.148C178.252 133.148 180.342 131.121 181.428 134.958C181.926 136.967 180.65 141.311 179.256 145.112Z"
              fill="#FED81D"/>
        <path d="M167.418 151.275C167.418 151.275 164.531 160.85 164.531 160.678" stroke="#FCC71F" stroke-width="0.75"
              stroke-linecap="round" stroke-linejoin="round"/>
        <path d="M169.672 152.18L167.672 160.488" stroke="#FCC71F" stroke-width="0.75" stroke-linecap="round"
              stroke-linejoin="round"/>
        <path d="M173.041 152.678L171.258 161.267" stroke="#FCC71F" stroke-width="0.75" stroke-linecap="round"
              stroke-linejoin="round"/>
        <path d="M176.478 151.927L176.333 152.497C174.493 152.788 172.618 152.766 170.785 152.434C168.565 151.99 166.492 150.994 164.758 149.538L165.527 147.085C165.527 147.085 163.246 142.289 163.038 140.108C162.83 137.927 164.848 136.56 166.477 136.307C166.477 136.307 166.631 132.56 167.88 131.04C168.074 130.733 168.351 130.489 168.679 130.333C169.006 130.178 169.371 130.119 169.731 130.162C170.091 130.206 170.431 130.351 170.712 130.579C170.993 130.808 171.204 131.112 171.319 131.456C171.708 130.153 174.559 129.963 174.631 132.542C174.741 132.095 175.016 131.707 175.402 131.456C175.787 131.205 176.254 131.11 176.707 131.19C177.16 131.271 177.565 131.521 177.84 131.89C178.115 132.259 178.24 132.718 178.188 133.175C178.188 133.175 180.279 131.148 181.365 134.985C182.451 138.823 176.478 151.927 176.478 151.927Z"
              fill="#B25E47"/>
        <path d="M164.532 144.805C163.847 143.295 163.345 141.709 163.038 140.081C162.83 137.89 164.848 136.533 166.477 136.28C166.477 136.28 166.631 132.533 167.88 131.012C168.074 130.706 168.351 130.461 168.679 130.306C169.006 130.151 169.371 130.092 169.731 130.135C170.091 130.179 170.431 130.323 170.712 130.552C170.993 130.781 171.204 131.085 171.319 131.429C171.708 130.126 174.559 129.936 174.631 132.515C174.741 132.068 175.016 131.679 175.402 131.428C175.787 131.177 176.254 131.083 176.707 131.163C177.16 131.244 177.565 131.494 177.84 131.863C178.115 132.231 178.24 132.691 178.188 133.148C178.188 133.148 180.279 131.121 181.365 134.958"
              stroke="#914839" stroke-width="0.75" stroke-linecap="round" stroke-linejoin="round"/>
        <path d="M166.461 136.307C169.312 135.791 171.746 136.062 171.828 137.031C171.909 137.999 168.515 139.375 168.515 139.375C168.515 139.375 172.85 139.954 171.384 145.13"
              stroke="#914839" stroke-width="0.75" stroke-linecap="round" stroke-linejoin="round"/>
        <path d="M171.257 131.275C171.257 131.275 170.641 135.338 170.352 136.135" stroke="#914839" stroke-width="0.75"
              stroke-linecap="round" stroke-linejoin="round"/>
        <path d="M171.988 137.049C173.083 137.347 174.133 136.234 174.703 132.198" stroke="#914839" stroke-width="0.75"
              stroke-linecap="round" stroke-linejoin="round"/>
        <path d="M173.336 136.533C173.434 137.025 173.707 137.464 174.105 137.769C174.503 138.073 174.999 138.223 175.499 138.189"
              stroke="#914839" stroke-width="0.75" stroke-linecap="round" stroke-linejoin="round"/>
        <path d="M178.226 133.175C177.321 133.872 174.968 138.117 176.217 139.167C177.674 140.379 178.841 137.357 178.841 137.357"
              stroke="#914839" stroke-width="0.75" stroke-linecap="round" stroke-linejoin="round"/>
        <path d="M137.848 131.854C134.717 130.949 134.653 133.393 136.128 134.388C137.604 135.384 136.852 138.488 133.178 138.913C132.843 138.958 131.975 139.085 130.925 139.194C128.961 139.393 126.4 139.556 125.64 139.13C124.879 138.705 124.834 137.519 125.106 136.271C125.151 136.017 125.232 135.764 125.305 135.492C125.727 134.172 126.269 132.894 126.925 131.673C128.668 131.635 130.37 131.136 131.857 130.225C135.214 127.99 135.305 123.51 133.947 118.84C133.607 117.673 133.196 116.528 132.717 115.41C132.346 114.505 131.929 113.6 131.486 112.759C127.395 104.786 121.594 104.795 121.594 104.795C124.164 109.193 121.721 112.179 120.219 112.94C118.716 113.7 117.078 114.216 117.16 117.238C117.241 120.261 115.884 120.714 114.979 120.56C112.128 120.035 110.101 122.198 111.359 124.569C112.617 126.94 116.146 126.198 117.196 125.076C117.196 125.076 119.286 126.478 119.404 128.153C119.522 129.827 116.291 131.836 117.82 134.442C118.111 134.901 118.269 135.43 118.278 135.973C118.287 136.515 118.147 137.05 117.872 137.517C117.597 137.985 117.198 138.368 116.72 138.624C116.241 138.88 115.701 138.998 115.16 138.967C113.835 138.809 112.493 139.016 111.277 139.565C110.985 139.707 110.706 139.877 110.445 140.072C110.259 140.21 110.084 140.361 109.92 140.524C108.544 141.918 107.521 143.628 104.245 142.877C100.969 142.126 100.39 137.565 100.39 137.565C95.7474 137.773 92.6433 138.334 92.3446 134.551C92.1003 131.546 95.4669 130.469 97.2497 130.144C97.5993 130.097 97.9276 129.949 98.1941 129.718C98.4606 129.486 98.6538 129.183 98.75 128.843C98.8461 128.504 98.841 128.144 98.7353 127.807C98.6295 127.471 98.4277 127.172 98.1547 126.949C96.4262 125.628 97.7203 123.582 100.245 122.714C102.77 121.845 101.829 116.234 102.055 113.501C102.408 108.614 106.933 104.36 113.006 104.071C113.006 104.071 116.146 97.2742 123.748 98.4416C131.35 99.6091 134.798 106.958 134.445 110.342C134.092 113.727 134.047 117.329 137.712 117.501C141.377 117.673 143.441 119.926 142.12 122.18C140.798 124.433 139.857 126.126 142.635 127.981C145.414 129.836 140.979 132.732 137.848 131.854Z"
              fill="#683F1D"/>
        <path d="M121.583 104.749C124.154 109.148 121.71 112.134 120.208 112.894C118.706 113.655 117.068 114.17 117.149 117.193C117.23 120.216 115.873 120.668 114.968 120.514C112.117 119.99 110.09 122.153 111.348 124.524C112.606 126.895 116.135 126.153 117.185 125.03C117.185 125.03 119.276 126.433 119.393 128.107C119.511 129.782 116.28 131.791 117.81 134.397C118.1 134.855 118.259 135.385 118.268 135.927C118.277 136.47 118.136 137.004 117.861 137.472C117.586 137.94 117.187 138.323 116.709 138.578C116.23 138.834 115.691 138.953 115.149 138.922C113.825 138.764 112.482 138.97 111.266 139.519C110.974 139.662 110.695 139.832 110.434 140.026C105.71 137.945 102.117 134.669 104.027 132.117C106.524 128.786 108.253 130.614 106.823 125.302C105.393 119.99 106.778 116.587 110.262 116.252C113.746 115.917 117.04 113.537 115.303 110.035C113.565 106.532 119.104 99.0117 126.163 102.161C129.873 103.817 131.231 108.17 131.538 112.677C127.385 104.74 121.583 104.749 121.583 104.749Z"
              fill="#683F1D"/>
        <path d="M131.857 130.198C131.504 132.859 129.857 135.456 125.105 136.252C125.151 135.999 125.232 135.746 125.305 135.474C125.727 134.154 126.269 132.876 126.925 131.655C128.669 131.614 130.371 131.112 131.857 130.198Z"
              fill="#683F1D"/>
        <path d="M125.307 135.474C124.845 137.004 124.709 138.533 125.642 139.094C126.366 139.519 128.963 139.357 130.927 139.157C123.605 145.185 117.515 144.262 111.243 139.556C112.459 139.007 113.801 138.8 115.125 138.958C115.667 138.989 116.207 138.87 116.685 138.615C117.164 138.359 117.562 137.976 117.837 137.508C118.113 137.041 118.253 136.506 118.244 135.964C118.235 135.421 118.077 134.892 117.786 134.433C116.257 131.827 119.488 129.827 119.37 128.144C119.252 126.46 117.162 125.067 117.162 125.067C116.112 126.189 112.555 126.931 111.324 124.56C110.094 122.189 112.121 120.035 114.944 120.551C115.849 120.705 117.216 120.252 117.125 117.229C117.035 114.207 118.682 113.745 120.184 112.931C121.687 112.116 124.13 109.148 121.56 104.786C121.56 104.786 127.37 104.786 131.461 112.768C131.904 113.627 132.32 114.514 132.691 115.419C133.171 116.537 133.582 117.682 133.922 118.849C135.732 125.184 134.936 131.166 126.899 131.682C126.244 132.903 125.702 134.181 125.28 135.501L125.307 135.474Z"
              fill="#B25E47"/>
        <path d="M133.947 118.813C133.603 118.939 133.23 118.962 132.874 118.88C132.517 118.798 132.192 118.615 131.937 118.352C131.34 117.582 131.684 116.279 132.716 115.374C133.194 116.495 133.605 117.643 133.947 118.813Z"
              fill="#914839"/>
        <path d="M124.898 116.315C124.898 116.438 124.923 116.56 124.971 116.672C125.02 116.785 125.09 116.887 125.179 116.972C125.268 117.056 125.373 117.122 125.488 117.165C125.604 117.208 125.726 117.226 125.849 117.22C126.025 117.211 126.196 117.151 126.339 117.046C126.481 116.942 126.59 116.797 126.652 116.631C126.713 116.465 126.725 116.285 126.685 116.113C126.645 115.94 126.556 115.783 126.428 115.661C126.299 115.539 126.138 115.457 125.964 115.426C125.79 115.394 125.61 115.415 125.447 115.484C125.285 115.554 125.146 115.67 125.048 115.818C124.951 115.965 124.899 116.138 124.898 116.315Z"
              fill="#683F1D"/>
        <path d="M128.943 114.351C128.943 114.592 129.038 114.822 129.208 114.991C129.377 115.161 129.608 115.256 129.848 115.256C129.97 115.257 130.092 115.232 130.205 115.184C130.317 115.135 130.419 115.065 130.504 114.976C130.589 114.887 130.654 114.782 130.697 114.666C130.74 114.551 130.759 114.429 130.753 114.306C130.753 114.066 130.657 113.836 130.487 113.666C130.318 113.497 130.088 113.401 129.848 113.401C129.725 113.401 129.603 113.426 129.49 113.474C129.378 113.522 129.276 113.593 129.191 113.682C129.106 113.771 129.041 113.876 128.998 113.991C128.955 114.106 128.936 114.229 128.943 114.351Z"
              fill="#683F1D"/>
        <path d="M126.924 131.646C126.269 132.867 125.726 134.145 125.304 135.465C124.337 135.136 123.514 134.484 122.971 133.618C122.429 132.753 122.201 131.727 122.327 130.714C123.804 131.253 125.353 131.567 126.924 131.646Z"
              fill="#914839"/>
        <path d="M113.004 123.564C113.628 121.953 115.719 122.252 116.624 123.193" stroke="#914839" stroke-width="0.75"
              stroke-linecap="round" stroke-linejoin="round"/>
        <path d="M114.527 124.379C114.468 124.177 114.457 123.964 114.494 123.757C114.532 123.55 114.618 123.355 114.744 123.187C114.871 123.019 115.035 122.883 115.224 122.79C115.412 122.697 115.62 122.649 115.831 122.65"
              stroke="#914839" stroke-width="0.75" stroke-linecap="round" stroke-linejoin="round"/>
        <path d="M117.168 125.067C117.482 124.679 117.707 124.229 117.829 123.745" stroke="#914839" stroke-width="0.75"
              stroke-linecap="round" stroke-linejoin="round"/>
        <path d="M125.73 120.895C126.394 121.455 127.209 121.807 128.072 121.905C128.936 122.004 129.809 121.844 130.581 121.447"
              stroke="#914839" stroke-width="0.75" stroke-linecap="round" stroke-linejoin="round"/>
        <path d="M131.478 118.695C131.894 117.356 131.622 116.397 130.075 116.143C129.329 115.973 128.669 115.545 128.21 114.933C127.75 114.322 127.523 113.567 127.568 112.804"
              stroke="#914839" stroke-width="0.75" stroke-linecap="round" stroke-linejoin="round"/>
        <path d="M121.539 113.13C121.539 114.207 125.557 113.709 125.892 112.514C126.164 111.573 121.512 111.103 121.539 113.13Z"
              fill="#683F1D"/>
        <path d="M129.415 108.207C128.437 107.745 127.098 111.627 128.311 111.926C128.908 112.08 131.704 109.302 129.415 108.207Z"
              fill="#683F1D"/>
        <path d="M112.949 104.08C114.465 104.189 115.946 104.589 117.311 105.256" stroke="#7F542D" stroke-width="0.75"
              stroke-linecap="round" stroke-linejoin="round"/>
        <path d="M115.505 111.075C112.5 112.189 108.89 114.071 108.781 117.682C108.672 121.293 110.22 124.569 105.441 126.922C100.663 129.275 105.188 135.302 105.188 135.302"
              stroke="#7F542D" stroke-width="0.75" stroke-linecap="round" stroke-linejoin="round"/>
        <path d="M110.508 136.289C113.422 133.909 110.254 130.913 113.422 128.678" stroke="#7F542D" stroke-width="0.75"
              stroke-linecap="round" stroke-linejoin="round"/>
        <path d="M118.652 108.46C113.765 106.532 108.118 108.958 106.887 111.021" stroke="#7F542D" stroke-width="0.75"
              stroke-linecap="round" stroke-linejoin="round"/>
        <path d="M124.877 119.465C124.678 120.478 123.339 121.058 121.909 120.759C120.479 120.46 119.474 119.41 119.674 118.406C119.873 117.401 121.212 116.813 122.651 117.112C124.09 117.41 125.085 118.478 124.877 119.465Z"
              fill="#914839"/>
    </g>
</svg>
