<svg width="560" height="202" viewBox="0 0 560 202" fill="none" xmlns="http://www.w3.org/2000/svg">
    <g opacity="0.3">
        <path d="M404.941 146.945H211.851C209.64 146.945 207.848 148.737 207.848 150.948V151.304C207.848 153.515 209.64 155.308 211.851 155.308H404.941C407.152 155.308 408.945 153.515 408.945 151.304V150.948C408.945 148.737 407.152 146.945 404.941 146.945Z"
              stroke="#DDDDDD" stroke-width="2" stroke-miterlimit="10"/>
        <path d="M403.568 4.9585H213.224C210.255 4.9585 207.848 7.36573 207.848 10.3352V10.8232C207.848 13.7927 210.255 16.1999 213.224 16.1999H403.568C406.537 16.1999 408.945 13.7927 408.945 10.8232V10.3352C408.945 7.36573 406.537 4.9585 403.568 4.9585Z"
              stroke="#DDDDDD" stroke-width="2" stroke-miterlimit="10"/>
        <path d="M401.562 16.1998H215.23V146.945H401.562V16.1998Z" stroke="#DDDDDD" stroke-width="2"
              stroke-miterlimit="10"/>
        <path d="M387.771 54.3745L366.777 53.9278C366.777 53.9278 371.964 41.1396 368.589 31.8585L388.772 31.4284C389.712 34.0064 390.315 36.6949 390.567 39.4273C390.997 43.8031 390.658 49.3122 387.771 54.3745Z"
              stroke="#DDDDDD" stroke-linecap="round" stroke-linejoin="round"/>
        <path d="M373.742 38.7406H386.977" stroke="#DDDDDD" stroke-linecap="round" stroke-linejoin="round"/>
        <path d="M373.09 46.3838H386.325" stroke="#DDDDDD" stroke-linecap="round" stroke-linejoin="round"/>
        <path d="M376.047 42.4547L386.461 42.6614" stroke="#DDDDDD" stroke-linecap="round" stroke-linejoin="round"/>
        <path d="M229.325 35.4567H249.839C249.839 35.4567 248.714 51.38 255.083 56.8146L232.327 57.3771C232.327 57.3771 227.827 49.8828 229.325 35.4567Z"
              stroke="#DDDDDD" stroke-linecap="round" stroke-linejoin="round"/>
        <path d="M242.871 42.0825H246.196" stroke="#DDDDDD" stroke-linecap="round" stroke-linejoin="round"/>
        <path d="M232.988 42.0825H241.211" stroke="#DDDDDD" stroke-linecap="round" stroke-linejoin="round"/>
        <path d="M233.648 46.8967H242.053" stroke="#DDDDDD" stroke-linecap="round" stroke-linejoin="round"/>
        <path d="M234.508 50.9334C234.673 50.768 247.007 50.6356 247.007 50.6356" stroke="#DDDDDD"
              stroke-linecap="round" stroke-linejoin="round"/>
        <path d="M262.119 54.9783H281.31C281.31 54.9783 279.97 71.1664 285.098 76.9318H264.964C261.277 70.2361 260.26 62.3929 262.119 54.9783Z"
              fill="#DDDDDD" stroke="#DDDDDD" stroke-linecap="round" stroke-linejoin="round"/>
        <path d="M266.387 66.2363H277.454" stroke="#F9F9F9" stroke-linecap="round" stroke-linejoin="round"/>
        <path d="M266.934 70.4715H273.344" stroke="#F9F9F9" stroke-linecap="round" stroke-linejoin="round"/>
        <path d="M266.387 60.446L276.247 60.9175" stroke="#F9F9F9" stroke-linecap="round" stroke-linejoin="round"/>
        <path d="M263.848 105.875L278.365 105.321L288.399 76.9318L322.139 73.6727L338.303 46.8967" stroke="#DDDDDD"
              stroke-width="2" stroke-linecap="round" stroke-linejoin="round"/>
        <path d="M339.164 45.4243L329.105 52.6043L337.493 57.6749L339.164 45.4243Z" fill="#DDDDDD" stroke="#DDDDDD"
              stroke-width="2" stroke-linecap="round" stroke-linejoin="round"/>
        <path d="M162.337 53.2908C178.157 53.2908 190.982 40.4659 190.982 24.6454C190.982 8.82499 178.157 -4 162.337 -4C146.516 -4 133.691 8.82499 133.691 24.6454C133.691 40.4659 146.516 53.2908 162.337 53.2908Z"
              stroke="#DDDDDD" stroke-width="2" stroke-linecap="round" stroke-linejoin="round"/>
        <path d="M148.523 9.68994L162.337 24.6455L173.835 18.3919" stroke="#DDDDDD" stroke-width="2"
              stroke-linecap="round" stroke-linejoin="round"/>
        <path d="M184.49 108.175H157.383C150.818 108.175 145.496 113.496 145.496 120.061V121.137C145.496 127.701 150.818 133.023 157.383 133.023H184.49C191.054 133.023 196.376 127.701 196.376 121.137V120.061C196.376 113.496 191.054 108.175 184.49 108.175Z"
              stroke="#DDDDDD" stroke-miterlimit="10"/>
        <path d="M493.742 31.1388H454.831C452.547 31.1388 450.695 32.9905 450.695 35.2747V35.647C450.695 37.9312 452.547 39.7829 454.831 39.7829H493.742C496.026 39.7829 497.878 37.9312 497.878 35.647V35.2747C497.878 32.9905 496.026 31.1388 493.742 31.1388Z"
              stroke="#DDDDDD" stroke-miterlimit="10"/>
        <path d="M97.048 17.2917H48.3929C43.3585 17.2917 39.2773 21.3729 39.2773 26.4073V27.2345C39.2773 32.2689 43.3585 36.3501 48.3929 36.3501H97.048C102.082 36.3501 106.164 32.2689 106.164 27.2345V26.4073C106.164 21.3729 102.082 17.2917 97.048 17.2917Z"
              stroke="#DDDDDD" stroke-miterlimit="10"/>
        <path d="M56.1914 161.04L83.8111 152.131L103.97 164.076L107.766 283.571H71.3703L56.1914 161.04Z"
              fill="#FED81D"/>
        <path d="M80.8829 279.675H16.1308L19.2741 190.339C18.3267 188.383 17.498 186.372 16.7926 184.317C9.24865 161.983 24.9155 152.131 35.3546 149.641C42.5015 147.946 52.7917 148.26 58.7639 148.516C60.5755 148.591 61.99 148.657 62.8006 148.657C67.598 164.176 71.4651 179.967 74.3812 195.947C74.8058 198.203 75.1974 200.431 75.5558 202.631C75.5594 202.65 75.5594 202.67 75.5558 202.689C83.1742 247.894 80.8829 279.675 80.8829 279.675Z"
              fill="#A7CAF0"/>
        <path d="M140.058 248.854C129.958 254.768 116.417 251.104 116.417 251.104L114.912 280.99L101.677 281.817C101.677 281.817 103.811 255.298 102.984 229.928C102.678 220.97 101.784 211.093 100.568 201.274C100.254 198.793 99.9313 196.352 99.5839 193.912C97.4001 178.518 94.5381 163.869 92.0234 153.843C94.3903 152.487 96.9555 151.51 99.6253 150.948C105.643 149.755 111.877 150.306 117.592 152.537C118.171 156.201 118.99 163.637 119.809 171.942C121.463 188.701 123.175 209.008 123.175 209.008C124.937 183.945 149.157 182.596 151.928 220.515C152.094 238.398 147.767 244.354 140.058 248.854Z"
              fill="#A7CAF0"/>
        <path d="M139.562 219.158L109.676 226.239L112.91 173.564L113.605 162.289L117.6 152.536C117.6 152.536 131.944 160.957 135.029 169.792C135.896 172.851 136.486 175.982 136.791 179.147C138.677 194.16 139.562 219.158 139.562 219.158Z"
              fill="#A7CAF0"/>
        <path d="M136.791 179.155C132.366 176.393 125.74 172.827 119.817 171.951L112.91 173.564L113.605 162.289L117.6 152.536C117.6 152.536 131.944 160.957 135.029 169.792C135.896 172.854 136.486 175.987 136.791 179.155Z"
              fill="#A7CAF0"/>
        <path d="M62.8254 148.657C67.6229 164.176 71.4899 179.967 74.406 195.947C71.3699 193.894 68.7043 191.34 66.5229 188.395C49.3423 166.061 30.0524 168.857 16.7926 184.317C9.24865 161.983 24.9155 152.131 35.3546 149.641C42.5015 147.946 52.7917 148.26 58.7639 148.516C60.6003 148.591 62.0148 148.657 62.8254 148.657Z"
              fill="#A7CAF0"/>
        <path d="M119.821 171.951C117.58 173.15 115.958 174.606 115.239 176.086C113.369 180.007 107.43 188.387 99.58 193.888C97.3962 178.494 94.5342 163.844 92.0195 153.819C94.3864 152.462 96.9515 151.485 99.6214 150.924C105.646 149.728 111.888 150.288 117.604 152.537C118.183 156.209 119.002 163.646 119.821 171.951Z"
              fill="#A7CAF0"/>
        <path d="M75.6075 202.631C73.4154 192.241 58.5013 177.575 58.5013 177.575L61.7687 168.725L55.2422 165.656L58.7908 148.516C60.6024 148.591 62.0168 148.657 62.8275 148.657C68.3062 166.338 72.5761 184.371 75.6075 202.631Z"
              fill="#83ADDF"/>
        <path d="M109.679 175.574C105.561 183.717 102.503 192.354 100.58 201.274C98.6245 185.316 95.7717 169.481 92.0352 153.843C94.402 152.487 96.9672 151.51 99.637 150.948L108.496 164.944L103.07 171.156L109.679 175.574Z"
              fill="#83ADDF"/>
        <path d="M66.9367 143.884C65.3328 145.268 63.9395 146.879 62.8008 148.665L64.2566 168.725C64.2566 168.725 70.8741 159.626 81.9584 160.279L66.9367 143.884Z"
              fill="white"/>
        <path d="M90.7747 146.746C90.7747 146.928 87.0938 160.089 87.0938 160.089C87.0938 160.089 94.3151 163.323 99.2947 168.766C99.2947 168.766 96.8711 154.025 95.986 151.56C95.1009 149.095 90.7747 146.746 90.7747 146.746Z"
              fill="white"/>
        <path d="M116.457 180.429C116.771 189.404 116.854 242.377 116.457 251.104" stroke="#83ADDF" stroke-width="0.75"
              stroke-linecap="round" stroke-linejoin="round"/>
        <path d="M94.5312 133.759L92.546 137.672L92.1489 138.499C92.1489 138.499 91.421 142.164 90.9826 145.249C90.764 146.505 90.6588 147.779 90.6683 149.054C90.8585 151.122 92.1489 162.066 81.4948 160.974C70.8407 159.882 66.6055 145.994 66.6055 145.994C67.0025 142.544 70.8986 125.124 70.8986 125.124C70.8986 125.124 74.9683 115.404 87.2686 117.133C95.5404 118.291 94.8952 127.539 93.58 133.478L94.5312 133.759Z"
              fill="#FEBD9D"/>
        <path d="M94.5327 133.759L92.5475 137.672L92.1504 138.499C92.1504 138.499 91.4225 142.164 90.9841 145.249C85.6901 143.868 79.0147 139.227 80.1314 129.235L93.5898 133.478L94.5327 133.759Z"
              fill="#F4A789"/>
        <path d="M70.3597 118.2C58.9693 108.654 61.1614 96.1224 70.3597 98.1407C70.3597 98.1407 66.9434 93.2273 73.776 87.0978C77.7713 83.5078 84.6121 82.6393 89.2857 86.13C92.3463 88.4296 98.302 85.9397 99.3608 84.1199C105.019 89.5463 102.454 99.0506 95.1008 99.9274L70.3597 118.2Z"
              fill="#BF8228"/>
        <path d="M71.5497 117.861C65.2052 111.243 64.9322 102.74 70.6812 99.5552C70.6812 99.5552 69.5149 90.0178 80.6736 89.0086C92.7836 87.9167 96.5473 97.0075 91.5593 103.766L71.5497 117.861Z"
              fill="#BF8228"/>
        <path d="M78.7812 101.061C79.6084 94.3191 84.3234 90.3569 89.3196 90.9111C94.3158 91.4653 98.5013 89.9764 99.0969 87.2136"
              stroke="#7F542D" stroke-width="0.75" stroke-linecap="round" stroke-linejoin="round"/>
        <path d="M86.3086 95.7005C86.747 95.7005 98.3772 99.9853 100.487 91.1014" stroke="#7F542D" stroke-width="0.75"
              stroke-linecap="round" stroke-linejoin="round"/>
        <path d="M69.8984 114.891C69.8984 114.701 73.8524 109.101 73.1575 103.567" stroke="#7F542D" stroke-width="0.75"
              stroke-linecap="round" stroke-linejoin="round"/>
        <path d="M70.0292 117.671C67.2747 113.675 64.0073 103.708 70.3601 101.325" stroke="#7F542D" stroke-width="0.75"
              stroke-linecap="round" stroke-linejoin="round"/>
        <path d="M70.3594 98.1407C70.9818 98.112 71.6027 98.2243 72.1756 98.4692C72.7486 98.7142 73.2588 99.0854 73.6681 99.5552"
              stroke="#7F542D" stroke-width="0.75" stroke-linecap="round" stroke-linejoin="round"/>
        <path d="M73.207 95.105C73.9432 88.7853 83.2739 84.0125 89.0642 86.006" stroke="#7F542D" stroke-width="0.75"
              stroke-linecap="round" stroke-linejoin="round"/>
        <path d="M100.907 121.236L100.552 121.931L94.5298 133.759L92.5446 137.672L92.1393 138.499L81.8739 129.789L75.2564 124.147C73.8444 124.604 72.3935 124.931 70.922 125.123C69.6808 125.087 68.4851 124.648 67.5142 123.874C66.5433 123.1 65.8495 122.032 65.537 120.83C64.1225 116.248 67.605 113.113 71.3273 113.775C71.8543 113.859 72.3667 114.018 72.8493 114.246C77.92 110.78 77.9034 103.972 75.1737 101.938C74.1894 96.5194 85.9685 90.7622 87.8958 94.9395C90.6007 100.821 95.1006 99.9026 95.1006 99.9026C96.9246 104.152 98.4179 108.535 99.5674 113.014C99.6336 113.278 99.6997 113.551 99.7576 113.799C100.401 116.231 100.786 118.723 100.907 121.236Z"
              fill="#FEBD9D"/>
        <path d="M84.1795 129.574C87.8297 129.574 90.7887 126.615 90.7887 122.965C90.7887 119.314 87.8297 116.355 84.1795 116.355C80.5294 116.355 77.5703 119.314 77.5703 122.965C77.5703 126.615 80.5294 129.574 84.1795 129.574Z"
              fill="#F4A789"/>
        <path d="M100.908 121.236L100.553 121.931C99.8566 121.446 99.2723 120.818 98.839 120.089C98.4056 119.36 98.1332 118.547 98.0399 117.704C97.9467 116.861 98.0349 116.008 98.2984 115.202C98.562 114.396 98.9949 113.655 99.5682 113.03C99.6343 113.295 99.7005 113.568 99.7584 113.816C100.4 116.242 100.786 118.729 100.908 121.236Z"
              fill="#F4A789"/>
        <path d="M94.5309 133.759L92.5457 137.672L92.1404 138.499L81.875 129.789L94.5309 133.759Z" fill="#F4A789"/>
        <path d="M88.2022 112.641C88.8144 112.641 89.3106 112.145 89.3106 111.533C89.3106 110.921 88.8144 110.424 88.2022 110.424C87.59 110.424 87.0938 110.921 87.0938 111.533C87.0938 112.145 87.59 112.641 88.2022 112.641Z"
              fill="#683F1D"/>
        <path d="M95.8936 110.416C96.5057 110.416 97.002 109.92 97.002 109.308C97.002 108.696 96.5057 108.199 95.8936 108.199C95.2814 108.199 94.7852 108.696 94.7852 109.308C94.7852 109.92 95.2814 110.416 95.8936 110.416Z"
              fill="#683F1D"/>
        <path d="M91.0129 100.796C90.9219 102.591 95.976 102.31 96.3152 101.772C96.7784 101.061 91.1701 97.8016 91.0129 100.796Z"
              fill="#BF8228"/>
        <path d="M80.9313 105.544C80.617 107.521 85.9606 104.51 86.2666 103.36C86.3221 103.115 86.3208 102.86 86.2629 102.615C86.205 102.37 86.0919 102.142 85.9324 101.947C85.7729 101.752 85.571 101.597 85.3423 101.492C85.1135 101.387 84.8639 101.336 84.6123 101.342C83.4459 101.491 81.1464 104.179 80.9313 105.544Z"
              fill="#BF8228"/>
        <path d="M104.637 127.142C104.63 128.116 104.519 129.086 104.306 130.037C102.246 138.962 91.4845 142.006 81.8147 133.346C73.6504 126.042 71.326 113.791 71.326 113.791C71.3236 113.775 71.3236 113.758 71.326 113.741C71.853 113.826 72.3654 113.985 72.848 114.213C72.848 114.213 74.9325 119.813 79.1264 123.221C80.9793 124.735 82.7081 125.537 84.4203 125.554C86.571 125.554 88.6969 124.354 91.0378 121.749C95.1738 117.083 98.3005 117.505 99.4503 117.77C99.7833 116.472 99.8924 115.126 99.7729 113.791C101.485 115.752 104.703 121.385 104.637 127.142Z"
              fill="#BF8228"/>
        <path d="M91.5352 105.544C92.2548 110.879 94.116 111.864 96.6968 112.65C98.3015 113.146 96.6968 116.206 96.6968 116.206"
              stroke="#F4A789" stroke-width="0.75" stroke-linecap="round" stroke-linejoin="round"/>
        <path d="M98.9805 119.863C98.5008 125.521 92.8428 125.934 91.7344 122.898C91.7344 122.898 96.5155 122.113 98.9805 119.863Z"
              fill="white" stroke="#F4A789" stroke-width="0.75" stroke-linecap="round" stroke-linejoin="round"/>
        <path d="M70.8906 125.107C71.8602 125.056 72.814 124.841 73.7113 124.47" stroke="#F4A789" stroke-width="0.75"
              stroke-linecap="round" stroke-linejoin="round"/>
        <path d="M68.1914 118.738C68.8449 117.72 71.8393 116.413 73.1132 119.863" stroke="#F4A789" stroke-width="0.75"
              stroke-linecap="round" stroke-linejoin="round"/>
        <path d="M72.5355 118.746C69.6569 118.341 69.4914 122.725 72.9987 121.889" stroke="#F4A789" stroke-width="0.75"
              stroke-linecap="round" stroke-linejoin="round"/>
        <path d="M89.5644 108.291L82.1687 110.848C81.5987 111.045 81.2964 111.666 81.4935 112.236L82.7718 115.934C82.9688 116.504 83.5906 116.807 84.1605 116.61L91.5562 114.053C92.1262 113.856 92.4285 113.234 92.2314 112.664L90.9531 108.966C90.7561 108.396 90.1343 108.094 89.5644 108.291Z"
              stroke="#683F1D" stroke-linecap="round" stroke-linejoin="round"/>
        <path d="M95.1836 106.636L101.66 104.394C101.922 104.305 102.207 104.322 102.456 104.443C102.704 104.564 102.894 104.779 102.984 105.039L104.291 108.836C104.381 109.096 104.364 109.381 104.245 109.629C104.126 109.877 103.913 110.068 103.654 110.16L98.3682 111.98"
              stroke="#683F1D" stroke-linecap="round" stroke-linejoin="round"/>
        <path d="M104.637 127.142C104.63 128.116 104.519 129.086 104.306 130.037C102.246 138.962 91.4845 142.006 81.8147 133.346C73.6504 126.042 71.326 113.791 71.326 113.791C71.3236 113.775 71.3236 113.758 71.326 113.741C71.853 113.826 72.3654 113.985 72.848 114.213C72.848 114.213 74.9325 119.813 79.1264 123.221C80.9793 124.735 82.7081 125.537 84.4203 125.554C88.8954 130.608 92.2621 132.171 96.3484 131.609C99.5579 131.163 102.5 129.578 104.637 127.142Z"
              fill="#BF8228"/>
        <path d="M87.4648 137.101C93.8755 133.95 98.9131 133.445 102.28 134.396" stroke="#7F542D" stroke-width="0.75"
              stroke-linecap="round" stroke-linejoin="round"/>
        <path d="M82.3633 133.842C87.7979 130.897 98.0798 130.219 103.969 131.187" stroke="#7F542D" stroke-width="0.75"
              stroke-linecap="round" stroke-linejoin="round"/>
        <path d="M74.5195 123.18C80.1113 131.691 94.9593 128.333 98.3011 126.356C101.469 124.47 101.238 119.557 99.6163 116.918"
              stroke="#7F542D" stroke-width="0.75" stroke-linecap="round" stroke-linejoin="round"/>
        <path d="M91.4023 110.16L93.7185 109.333" stroke="#683F1D" stroke-linecap="round" stroke-linejoin="round"/>
        <path d="M102.208 103.393C101.265 104.469 103.515 106.652 106.923 107.819C108.951 108.514 110.777 109.695 112.242 111.26C112.242 111.26 111.456 115.942 114.202 117.604C114.202 117.604 112.986 119.06 112.201 118.035C111.415 117.009 109.785 111.632 106.741 111.98C104.64 112.219 107.816 118.283 108.271 120.657C108.726 123.031 110.108 126.364 112.986 127.754C115.865 129.144 118.868 137.506 118.868 137.506C118.868 137.506 130.498 133.28 130.539 133.18C130.581 133.081 128.976 129.044 128.976 129.044C128.976 129.044 129.298 123.163 129.257 118.796C129.216 114.428 127.735 111.177 124.228 111.07C124.228 111.07 124.583 108.902 121.846 108.696C121.846 108.696 121.664 105.387 116.055 107.099C116.072 107.116 104.226 101.085 102.208 103.393Z"
              fill="#FEBD9D"/>
        <path d="M117.604 141.551C117.438 141.312 116.578 136.216 116.578 136.216L130.797 131.625L133.279 137.416L117.604 141.551Z"
              fill="white"/>
        <path d="M124.229 111.086C124.229 111.086 124.584 108.919 121.846 108.712C121.846 108.712 121.664 105.403 116.056 107.116C116.056 107.116 104.211 101.086 102.193 103.393C101.25 104.469 103.499 106.653 106.907 107.819C108.935 108.514 110.761 109.695 112.226 111.26C112.226 111.26 111.44 115.942 114.187 117.604C114.187 117.604 112.971 119.06 112.185 118.035C111.399 117.009 109.77 111.632 106.725 111.98C104.624 112.219 107.801 118.283 108.256 120.657C108.711 123.031 110.092 126.364 112.971 127.754"
              stroke="#F4A789" stroke-width="0.75" stroke-linecap="round" stroke-linejoin="round"/>
        <path d="M112.359 118.2C113.493 118.928 119.556 119.507 119.862 124.131" stroke="#F4A789" stroke-width="0.75"
              stroke-linecap="round" stroke-linejoin="round"/>
        <path d="M114.203 117.604C114.527 117.758 114.884 117.831 115.243 117.817C115.602 117.803 115.952 117.701 116.263 117.522"
              stroke="#F4A789" stroke-width="0.75" stroke-linecap="round" stroke-linejoin="round"/>
        <path d="M112.242 111.26C112.547 110.336 113.046 109.489 113.707 108.775C114.368 108.062 115.174 107.498 116.072 107.124"
              stroke="#F4A789" stroke-width="0.75" stroke-linecap="round" stroke-linejoin="round"/>
        <path d="M121.708 108.696C116.687 110.458 115.852 114.147 116.075 116.248C116.299 118.349 117.209 119.184 118.4 119.002C118.707 118.927 118.989 118.77 119.216 118.549C119.443 118.328 119.606 118.051 119.69 117.745"
              stroke="#F4A789" stroke-width="0.75" stroke-linecap="round" stroke-linejoin="round"/>
        <path d="M124.227 111.086C122.999 111.21 121.855 111.77 121.005 112.666C120.155 113.562 119.654 114.733 119.595 115.967C119.33 118.978 120.952 119.664 122.077 118.986C123.317 118.2 124.558 115.33 124.558 115.33"
              stroke="#F4A789" stroke-width="0.75" stroke-linecap="round" stroke-linejoin="round"/>
        <path d="M151.94 220.523C150.41 243.684 125.42 239.672 123.187 209.017C123.187 209.017 121.475 188.709 119.82 171.95C118.993 163.679 118.166 156.234 117.603 152.545L115.883 140.823L138.126 134.206C138.126 134.206 142.502 151.676 146.331 172.819C147.92 181.604 149.417 191.017 150.467 200.066C151.319 206.855 151.81 213.683 151.94 220.523Z"
              fill="#A7CAF0"/>
        <path d="M123.185 209.017C123.185 209.017 121.473 188.709 119.818 171.95C118.991 163.679 118.164 156.234 117.602 152.545"
              stroke="#83ADDF" stroke-width="0.75" stroke-linecap="round" stroke-linejoin="round"/>
        <path d="M157.25 206.303C157.308 206.113 161.452 199.769 165.348 198.131C169.244 196.493 174.331 193.995 175.969 191.687C177.607 189.379 180.932 189.338 178.856 193.929C176.78 198.52 174.398 199.388 174.398 199.388C174.398 199.388 185.01 196.253 191.231 194.996C197.451 193.738 199.395 196.501 192.993 198.892C189.424 200.177 185.975 201.774 182.686 203.665C182.686 203.665 193.489 202.283 197.947 202.341C202.406 202.399 203.738 204.823 197.699 206.303C201.786 206.361 202.414 208.686 197.575 209.753C192.736 210.82 184.572 212.921 184.572 212.921C184.572 212.921 193.183 212.358 196.665 212.921C200.148 213.483 198.32 216.23 193.621 216.751C188.923 217.272 163.843 221.772 159.947 221.209L157.25 206.303Z"
              fill="#FEBD9D"/>
        <path d="M170.344 195.765C172.825 194.475 174.993 193.027 175.969 191.629C177.623 189.346 180.932 189.28 178.855 193.871C176.779 198.462 174.397 199.33 174.397 199.33C174.397 199.33 185.01 196.195 191.23 194.938C197.451 193.681 199.394 196.443 192.992 198.834C189.423 200.119 185.974 201.716 182.685 203.607C182.685 203.607 193.488 202.225 197.947 202.283C202.405 202.341 203.737 204.765 197.699 206.245C201.785 206.303 202.414 208.628 197.575 209.695C192.736 210.762 184.571 212.921 184.571 212.921C184.571 212.921 193.182 212.358 196.665 212.921C200.147 213.483 198.319 216.23 193.621 216.751"
              stroke="#F4A789" stroke-width="0.75" stroke-linecap="round" stroke-linejoin="round"/>
        <path d="M170.434 200.687L174.396 199.363" stroke="#F4A789" stroke-width="0.75" stroke-linecap="round"
              stroke-linejoin="round"/>
        <path d="M159.681 227.066C159.681 227.066 137.512 236.256 118.809 244.602C114.21 246.662 109.826 248.664 106.021 250.459C86.7724 259.599 78.5998 263.694 65.4145 258.83C56.0673 255.372 46.3892 240.276 34.7011 219.075C29.92 210.39 24.8245 200.687 19.2741 190.339C16.5113 179.759 33.8491 172.141 45.8929 174.027C45.9508 174.027 49.5739 174.027 53.4534 178.163C58.0774 183.06 81.2055 222.541 81.2055 222.541C88.6501 218.935 153.27 200.108 153.27 200.108L159.681 227.066Z"
              fill="#A7CAF0"/>
        <path d="M45.9099 174.043C45.9099 174.043 49.5661 174.043 53.4704 178.179C58.0944 183.084 81.2225 222.566 81.2225 222.566C88.6671 218.951 153.287 200.133 153.287 200.133L159.698 227.091C159.698 227.091 125.287 241.351 106.038 250.483C86.7894 259.616 78.6251 263.718 65.4398 258.846C54.339 254.76 42.7501 234.271 27.9766 206.634"
              stroke="#83ADDF" stroke-width="0.75" stroke-linecap="round" stroke-linejoin="round"/>
        <path d="M205.109 175.053C205.3 168.716 209.56 163.795 211.446 161.429C213.332 159.063 210.279 157.252 211.446 152.065C213.249 144.124 222.613 148.591 222.613 135.803C222.613 131.832 223.556 130.98 223.556 130.98C223.556 130.98 216.558 115.578 229.23 110.466C229.23 110.466 230.363 103.931 241.903 100.995C253.442 98.0581 263.848 109.978 256.378 127.192L255.808 140.815C256.89 141.021 257.875 141.577 258.611 142.397C259.346 143.218 259.791 144.258 259.877 145.357C260.705 151.147 268.1 147.532 268.48 162.471L205.109 175.053Z"
              fill="#7F542D"/>
        <path d="M231.943 154.795C226.211 156.573 221.711 156.251 221.711 151.13C221.711 146.316 227.658 143.752 226.674 135.935C225.69 128.118 227.212 124.404 229.842 121.046C232.473 117.687 236.269 106.156 245.617 108.199C254.964 110.243 256.37 127.225 256.37 127.225L251.407 142.983C251.407 142.983 257.454 151.379 255.675 154.431C253.897 157.483 231.943 154.795 231.943 154.795Z"
              fill="#683F1D"/>
        <path d="M254.359 143.661C254.359 143.661 259.091 143.735 257.883 149.815C257.453 151.893 257.734 154.055 258.683 155.954C259.631 157.852 261.191 159.376 263.111 160.279"
              stroke="#BF8228" stroke-width="0.75" stroke-linecap="round" stroke-linejoin="round"/>
        <path d="M229.231 114.825C223.978 120.98 226.013 127.125 226.013 127.125" stroke="#BF8228" stroke-width="0.75"
              stroke-linecap="round" stroke-linejoin="round"/>
        <path d="M224.135 147.392C218.435 150.312 215.11 156.019 218.659 161.561C219.385 162.642 219.863 163.869 220.061 165.156C220.258 166.443 220.169 167.757 219.8 169.006"
              stroke="#BF8228" stroke-width="0.75" stroke-linecap="round" stroke-linejoin="round"/>
        <path d="M229.23 110.466C229.23 110.466 233.449 111.69 234.665 114.304" stroke="#BF8228" stroke-width="0.75"
              stroke-linecap="round" stroke-linejoin="round"/>
        <path d="M237.668 110.085C237.668 110.085 247.106 101.4 253.873 109.258" stroke="#BF8228" stroke-width="0.75"
              stroke-linecap="round" stroke-linejoin="round"/>
        <path d="M259 137.796C259.206 148.74 251.704 151.511 248.089 151.726C239.817 152.024 232.133 142.627 229.568 139.095C229.477 138.359 229.378 137.606 229.254 136.845C224.332 137.895 222.314 135.596 221.76 132.122C221.206 128.648 225.441 124.619 230.933 129.069C236.078 125.521 236.798 120.591 235.723 116.215C236.937 114.468 238.678 113.156 240.692 112.47C242.706 111.784 244.886 111.76 246.914 112.402C252.663 114.056 256.675 121.947 258.255 130.509C258.616 132.463 258.851 134.439 258.958 136.423C258.975 136.886 258.991 137.341 259 137.796Z"
              fill="#FEBD9D"/>
        <path d="M250.296 118.49C250.47 119.946 254.225 120.144 255.913 119.317C257.6 118.49 249.8 114.337 250.296 118.49Z"
              fill="#7F542D"/>
        <path d="M238.641 121.608C238.352 122.899 242.041 121.203 243.389 121.112C244.737 121.021 245.441 120.425 244.762 118.771C244.084 117.117 239.286 118.829 238.641 121.608Z"
              fill="#7F542D"/>
        <path d="M246.023 129.094C246.635 129.094 247.131 128.598 247.131 127.986C247.131 127.374 246.635 126.877 246.023 126.877C245.41 126.877 244.914 127.374 244.914 127.986C244.914 128.598 245.41 129.094 246.023 129.094Z"
              fill="#683F1D"/>
        <path d="M253.87 126.298C254.482 126.298 254.979 125.802 254.979 125.19C254.979 124.578 254.482 124.081 253.87 124.081C253.258 124.081 252.762 124.578 252.762 125.19C252.762 125.802 253.258 126.298 253.87 126.298Z"
              fill="#683F1D"/>
        <path d="M250.514 124.603C250.44 127.911 252.036 129.053 252.417 129.425C253.327 130.31 255.419 129.425 254.468 132.651"
              stroke="#F4A789" stroke-width="0.75" stroke-linecap="round" stroke-linejoin="round"/>
        <path d="M246.686 138.367C248.117 136.936 253.56 137.234 254.131 137.804C254.702 138.375 253.709 140.832 251.343 140.799C248.977 140.766 246.016 139.037 246.686 138.367Z"
              fill="white" stroke="#F4A789" stroke-width="0.75" stroke-linecap="round" stroke-linejoin="round"/>
        <path d="M224.855 132.486C226.113 130.649 228.71 131.261 229.761 132.18C226.394 131.617 226.088 135.373 229.86 134.372"
              stroke="#F4A789" stroke-width="0.75" stroke-linecap="round" stroke-linejoin="round"/>
        <path d="M247.04 135.869C246.519 137.432 243.731 137.895 240.778 136.911C237.825 135.927 235.898 133.859 236.427 132.295C236.957 130.732 239.736 130.269 242.689 131.261C245.642 132.254 247.569 134.339 247.04 135.869Z"
              fill="#F4A789"/>
        <path d="M258.948 136.423C257.566 136.679 256.416 136.423 255.887 135.662C255.06 134.413 256.086 132.204 258.245 130.509C258.606 132.463 258.84 134.439 258.948 136.423Z"
              fill="#F4A789"/>
        <path d="M226.234 137.805C226.234 138.281 226.376 138.746 226.64 139.142C226.905 139.538 227.28 139.846 227.72 140.028C228.16 140.211 228.644 140.258 229.111 140.165C229.578 140.072 230.007 139.843 230.344 139.507C230.68 139.17 230.909 138.741 231.002 138.274C231.095 137.807 231.048 137.323 230.865 136.883C230.683 136.444 230.375 136.068 229.979 135.803C229.583 135.539 229.118 135.397 228.641 135.397C228.325 135.397 228.012 135.46 227.72 135.581C227.428 135.702 227.163 135.879 226.939 136.102C226.716 136.326 226.539 136.591 226.418 136.883C226.297 137.175 226.234 137.488 226.234 137.805Z"
              fill="#A7CAF0"/>
        <path d="M323.459 171.909L311.689 187.146C311.689 187.146 295.972 250.467 288.023 255.802C285.519 257.454 282.649 258.468 279.663 258.756C276.677 259.045 273.666 258.598 270.892 257.457C270.892 257.415 270.892 257.382 270.892 257.341C270.892 257.3 263.869 251.426 265.209 242.724C265.333 241.897 281.066 214.733 287.808 202.755C293.193 193.11 299.744 182.075 299.744 182.075L323.459 171.909Z"
              fill="#FEBD9D"/>
        <path d="M299.777 182.084C299.777 182.084 300.696 167.782 301.018 166.169C301.341 164.556 311.002 155.266 312.375 154.53C313.749 153.794 322.302 156.325 323.005 157.111C323.708 157.897 322.914 159.733 320.614 159.592C318.315 159.452 320.292 165.019 320.292 165.019C320.292 165.019 324.006 168.956 323.46 171.909C323.46 171.909 309.025 186.451 308.835 186.401C308.645 186.352 299.777 182.084 299.777 182.084Z"
              fill="#FEBD9D"/>
        <path d="M299.777 182.084C299.777 182.084 300.696 167.782 301.018 166.169C301.341 164.556 311.002 155.266 312.375 154.53C313.749 153.794 322.302 156.325 323.005 157.111C323.708 157.897 322.914 159.733 320.614 159.592C318.315 159.452 320.292 165.019 320.292 165.019C320.292 165.019 324.006 168.956 323.46 171.909C323.46 171.909 309.025 186.451 308.835 186.401C308.645 186.352 299.777 182.084 299.777 182.084Z"
              fill="#FEBD9D"/>
        <path d="M301.02 166.169C301.342 164.514 311.004 155.266 312.377 154.53C313.75 153.794 322.303 156.325 323.006 157.111C323.709 157.897 322.915 159.733 320.616 159.592"
              stroke="#F4A789" stroke-width="0.75" stroke-linecap="round" stroke-linejoin="round"/>
        <path d="M314.816 160.279C314.957 159.965 320.334 158.17 321.252 158.492C322.17 158.815 326.587 166.168 326.728 167.641C326.868 169.113 324.776 175.574 322.865 175.003C320.954 174.432 322.939 168.948 322.939 168.948L314.816 160.279Z"
              fill="#FEBD9D" stroke="#F4A789" stroke-width="0.75" stroke-linecap="round" stroke-linejoin="round"/>
        <path d="M318.538 173.018C320.101 174.052 321.913 171.678 322.939 168.948L319.464 166.127C319.464 166.127 316.238 171.504 318.538 173.018Z"
              fill="#FEBD9D" stroke="#F4A789" stroke-width="0.75" stroke-linecap="round" stroke-linejoin="round"/>
        <path d="M323.776 166.863L324.901 169.701C324.935 169.783 324.945 169.873 324.931 169.96C324.918 170.048 324.88 170.13 324.823 170.199C324.766 170.267 324.692 170.318 324.608 170.347C324.524 170.376 324.434 170.381 324.347 170.362L321.361 169.734L296.545 148.789C296.357 148.631 296.202 148.437 296.088 148.219C295.975 148 295.906 147.762 295.886 147.516C295.865 147.271 295.893 147.024 295.967 146.79C296.042 146.556 296.163 146.338 296.322 146.151C296.643 145.772 297.101 145.536 297.595 145.495C298.089 145.453 298.58 145.608 298.96 145.927L323.776 166.863Z"
              fill="#683F1D"/>
        <path d="M307.695 165.598C310.491 161.561 313.56 158.385 315.049 158.021C317.299 157.475 317.812 160.147 312.518 167.872C313.384 170.073 313.522 172.493 312.91 174.778C312.298 177.062 310.969 179.089 309.118 180.562"
              fill="#FEBD9D"/>
        <path d="M307.695 165.598C310.491 161.561 313.56 158.385 315.049 158.021C317.299 157.475 317.812 160.147 312.518 167.872C313.384 170.073 313.522 172.493 312.91 174.778C312.298 177.062 310.969 179.089 309.118 180.562"
              stroke="#F4A789" stroke-width="0.75" stroke-linecap="round" stroke-linejoin="round"/>
        <path d="M285.013 212.921C284.839 213.748 283.582 216.048 283.358 216.85C279.694 232.451 273.556 247.539 270.893 257.316C270.138 260.153 269.534 263.027 269.081 265.927C267.741 274.1 267.319 281.801 267.319 281.801L206.868 280.668L199.548 280.535L199.829 249.615L199.895 243.113C199.895 243.113 182.615 241.922 182.483 242.286C182.351 242.65 183.31 232.84 183.31 232.84C177.644 226.346 177.297 216.825 178.695 211.093C179.638 207.255 183.484 196.915 187.43 188.296C189.006 184.662 190.856 181.153 192.963 177.799C197.927 170.453 201.004 169.899 207.514 168.559C214.024 167.219 225.075 161.404 225.075 161.404L246.085 159.063C246.085 159.063 257.07 159.824 266.856 159.41C276.162 159.013 281.39 161.114 285.476 169.684C285.699 170.131 285.906 170.602 286.121 171.09C289.14 178.13 291.853 188.18 293.169 193.375C289 203.45 285.013 212.921 285.013 212.921Z"
              fill="#FED81D"/>
        <path d="M285.486 169.684C276.908 168.749 271.548 175.871 265.253 189.355C257.734 205.41 241.331 207.627 225.622 195.037C211.792 183.936 201.634 181.323 187.473 188.304C189.049 184.67 190.899 181.161 193.007 177.807C197.97 170.462 201.047 169.907 207.557 168.567C214.067 167.227 225.118 161.412 225.118 161.412L246.087 159.063C246.087 159.063 257.072 159.824 266.858 159.41C276.172 159.013 281.4 161.114 285.486 169.684Z"
              fill="#FED81D"/>
        <path d="M229.117 158.947C227.462 158.236 225.113 160.56 225.113 161.429C225.113 162.297 227.496 169.701 230.672 173.158C233.848 176.616 239.655 177.377 241.856 169.254C247.72 175.359 253.436 173.059 252.667 165.623C251.898 158.186 246.587 156.747 246.587 156.747L229.117 158.947Z"
              fill="white"/>
        <path d="M208.125 241.939L208.63 238.721L214.246 202.862L216.008 191.662" stroke="#FCC71F" stroke-width="0.75"
              stroke-linecap="round" stroke-linejoin="round"/>
        <path d="M245.074 181.207C246.317 181.207 247.324 180.199 247.324 178.957C247.324 177.714 246.317 176.707 245.074 176.707C243.832 176.707 242.824 177.714 242.824 178.957C242.824 180.199 243.832 181.207 245.074 181.207Z"
              fill="white"/>
        <path d="M247.332 190.645C248.575 190.645 249.582 189.638 249.582 188.395C249.582 187.152 248.575 186.145 247.332 186.145C246.089 186.145 245.082 187.152 245.082 188.395C245.082 189.638 246.089 190.645 247.332 190.645Z"
              fill="white"/>
        <path d="M248.086 151.709C248.086 151.916 247.953 155.68 247.846 158.385C247.804 159.576 247.755 160.568 247.738 160.941C247.672 162.19 245.025 167.401 239.466 166.011C233.908 164.622 229.251 159.832 229.118 158.922C228.986 158.012 231.517 150.874 230.169 139.897C235.008 134.239 249.194 137.804 248.086 151.709Z"
              fill="#FEBD9D"/>
        <path d="M248.085 151.709C248.085 151.709 247.953 155.614 247.845 158.393C244.015 157.872 236.752 155.605 237.191 145.836C238.787 148.252 244.288 151.9 248.085 151.709Z"
              fill="#F4A789"/>
        <path d="M294.442 208.198C294.38 208.195 294.32 208.178 294.265 208.148C294.211 208.118 294.164 208.075 294.128 208.024L275.69 181.835C275.653 181.79 275.628 181.736 275.616 181.678C275.605 181.62 275.608 181.561 275.624 181.505C275.637 181.449 275.661 181.397 275.695 181.351C275.729 181.305 275.773 181.268 275.823 181.24C276.984 180.495 278.317 180.06 279.694 179.974C282.688 179.974 285.724 182.762 290.182 189.603C298.454 202.275 295.783 206.974 294.773 208.065C294.734 208.107 294.686 208.14 294.634 208.162C294.581 208.185 294.525 208.197 294.467 208.198H294.442Z"
              fill="#F9F9F9"/>
        <path d="M279.695 180.388C282.309 180.388 285.154 182.646 289.836 189.834C296.71 200.373 296.238 205.807 294.468 207.784L276.022 181.596C277.123 180.886 278.388 180.47 279.695 180.388ZM279.695 179.561C278.248 179.644 276.847 180.097 275.625 180.876C275.523 180.932 275.435 181.009 275.365 181.102C275.295 181.194 275.246 181.301 275.22 181.414C275.194 181.527 275.192 181.645 275.215 181.759C275.238 181.873 275.285 181.98 275.352 182.075L293.79 208.264C293.862 208.365 293.956 208.449 294.065 208.509C294.173 208.57 294.294 208.604 294.419 208.611H294.468C294.584 208.611 294.698 208.587 294.803 208.54C294.909 208.493 295.003 208.424 295.08 208.338C296.139 207.156 298.943 202.3 290.531 189.379C285.981 182.406 282.846 179.561 279.695 179.561Z"
              fill="#DDDDDD"/>
        <path d="M236.027 203.59L277.742 178.957C277.742 178.957 291.614 193.499 294.468 207.784L250.222 230.755C250.222 230.755 245.308 214.948 236.027 203.59Z"
              fill="#F9F9F9" stroke="#DDDDDD" stroke-linecap="round" stroke-linejoin="round"/>
        <path d="M440.545 221.052C440.839 229.331 440.599 237.62 439.825 245.868C438.551 259.847 437.633 271.626 439.411 280.609H533.901C533.901 280.609 537.557 267.374 532.536 240.516C527.515 213.657 520.666 200.058 518.474 195.401L440.545 221.052Z"
              fill="#FED81D"/>
        <path d="M518.359 195.55C516.2 198.329 507.489 208.032 486.189 215.22L485.197 215.551C480.132 217.226 474.986 218.642 469.778 219.795C449.239 224.311 439.42 221.449 439.42 221.449C439.147 214.931 436.335 208.744 434.135 204.839C433.334 203.41 432.45 202.029 431.488 200.703C431.037 204.471 430.243 208.19 429.114 211.812C427.021 218.513 422.662 224.096 422.885 224.319C411.859 241.045 391.799 214.724 396.655 190.761C396.655 190.761 402.23 167.988 406.581 150.568C407.193 148.086 407.822 145.977 408.475 144.124C412.479 132.8 417.392 131.575 424.763 128.192C428.808 126.447 438.453 124.834 438.453 124.834C439.079 123.419 439.981 122.144 441.106 121.081C442.231 120.019 443.556 119.191 445.004 118.647L444.764 116.992C446.129 116.818 447.56 116.628 449.032 116.413L451.588 116.033L451.886 115.983L453.119 115.793C454.616 115.553 456.146 115.288 457.668 115.007L459.099 114.742L460.174 114.527C465.619 113.54 470.963 112.058 476.139 110.102C476.809 109.829 477.479 109.581 478.133 109.365L478.728 109.167L479.175 109.035L479.911 108.828C480.159 108.753 480.407 108.695 480.656 108.638L481.036 108.547L481.863 108.381L482.144 108.323L482.972 108.191L483.336 108.141H483.476C483.757 108.097 484.033 108.064 484.303 108.042L485.189 107.976H485.437H486.413C494.197 107.976 500.781 112.178 504.842 120.657C506.374 123.961 507.47 127.451 508.102 131.038C511.898 151.246 509.334 171.901 509.334 171.901L518.574 193.896C518.688 194.166 518.728 194.461 518.69 194.752C518.652 195.043 518.538 195.318 518.359 195.55Z"
              fill="#A7CAF0"/>
        <path d="M504.827 120.599C489.044 118.845 474.32 130.922 467.678 143.76C459.075 160.386 438.329 161.71 431.149 154.1C426.318 148.971 418.303 142.18 408.484 144.083C412.488 132.758 417.401 131.534 424.772 128.151C428.742 126.439 438.098 124.842 438.453 124.801C439.08 123.386 439.982 122.111 441.107 121.048C442.232 119.986 443.557 119.158 445.005 118.613L444.765 116.959C446.13 116.785 447.561 116.595 449.033 116.38L451.589 116L451.887 115.95L453.119 115.76C454.617 115.52 456.147 115.255 457.669 114.974L459.1 114.709L460.175 114.494C464.87 113.613 469.497 112.402 474.022 110.871C474.758 110.615 475.462 110.342 476.14 110.044C476.818 109.746 477.48 109.523 478.133 109.308L478.729 109.109L479.176 108.977L479.912 108.77C480.16 108.696 480.408 108.638 480.656 108.58L481.037 108.489L481.864 108.323L482.145 108.265L482.972 108.133L483.336 108.083H483.477C483.758 108.039 484.034 108.006 484.304 107.984L485.189 107.918H485.437H486.414C494.181 107.918 500.765 112.12 504.827 120.599Z"
              fill="#A7CAF0"/>
        <path d="M431.488 200.654C431.389 201.481 431.281 202.308 431.149 203.053C430.744 202.598 418.187 188.353 402.438 187.204C405.382 185.434 409.535 183.432 412.422 184.118C417.385 185.293 411.594 161.784 422.025 155.307C420.735 160.668 418.551 169.179 419.039 176.624C419.8 187.816 426.583 194.433 431.488 200.654Z"
              fill="#A7CAF0"/>
        <path d="M486.802 210.762C486.718 212.248 486.513 213.726 486.19 215.179L485.197 215.51C480.133 217.185 474.987 218.601 469.779 219.753L469.158 219.224C458.264 209.687 469.158 203.044 466.396 187.146C463.277 169.212 468.339 159.154 472.02 154.464C470.974 163.54 470.422 172.666 470.366 181.802C470.532 195.542 471.565 200.521 473.675 201.919C476.421 203.491 480.805 204.69 485.793 205.228L486.802 210.762Z"
              fill="#A7CAF0"/>
        <path d="M474.28 116.041C474.066 123.089 471.421 129.845 466.794 135.165C464.867 132.246 461.277 128.275 458.861 128.498C452.244 129.102 451.193 140.211 451.193 140.211C451.193 140.211 448.712 128.631 445.684 129.64C441.399 131.054 437.545 140.6 437.545 140.6C436.342 135.343 436.658 129.853 438.455 124.768C439.081 123.353 439.983 122.078 441.108 121.015C442.233 119.953 443.558 119.125 445.006 118.58L444.766 116.926C446.131 116.752 447.562 116.562 449.034 116.347L451.59 115.967L451.888 115.917L453.121 115.727C454.618 115.487 456.148 115.222 457.67 114.941L459.101 114.676L460.176 114.461C464.871 113.579 469.498 112.369 474.023 110.838C474.22 112.565 474.305 114.303 474.28 116.041Z"
              fill="#83ADDF"/>
        <path d="M504.79 204.029C501.571 215.636 497.453 226.975 492.474 237.943C484.053 256.646 467.104 287.707 467.104 287.707L451.305 285.498C451.305 285.498 459.841 261.386 462.885 246.017C464.457 238.059 466.947 227.885 469.147 219.207C471.207 211.126 473.018 204.318 473.622 201.903C476.368 203.474 480.752 204.674 485.74 205.212C492.109 206.007 498.57 205.606 504.79 204.029Z"
              fill="#B25E47"/>
        <path d="M504.793 204.029C507.275 201.415 509.318 171.843 509.318 171.843" stroke="#83ADDF" stroke-width="0.75"
              stroke-linecap="round" stroke-linejoin="round"/>
        <path d="M475.337 132.684C475.337 132.684 474.51 139.194 473.633 142.891C473.261 144.389 472.632 148.806 471.979 154.472C470.932 163.548 470.38 172.674 470.324 181.811C470.49 195.55 471.524 200.53 473.633 201.928"
              stroke="#83ADDF" stroke-width="0.75" stroke-linecap="round" stroke-linejoin="round"/>
        <path d="M470.672 190.959C478.608 194.791 487.562 195.982 496.224 194.359" stroke="#83ADDF" stroke-width="0.75"
              stroke-linecap="round" stroke-linejoin="round"/>
        <path d="M496.902 205.418C497.117 199.727 499.036 188.875 502.155 184.912C505.613 180.52 508.276 184.019 508.276 184.019"
              stroke="#83ADDF" stroke-width="0.75" stroke-linecap="round" stroke-linejoin="round"/>
        <path d="M502.277 190.661C502.276 191.02 502.381 191.372 502.579 191.671C502.778 191.97 503.06 192.203 503.392 192.342C503.723 192.48 504.088 192.516 504.44 192.447C504.792 192.377 505.116 192.204 505.37 191.951C505.624 191.697 505.796 191.373 505.866 191.021C505.936 190.669 505.899 190.304 505.761 189.973C505.623 189.641 505.389 189.358 505.09 189.16C504.791 188.961 504.44 188.856 504.081 188.858C503.603 188.86 503.146 189.051 502.808 189.389C502.47 189.726 502.28 190.184 502.277 190.661Z"
              fill="#83ADDF"/>
        <path d="M451.316 134.032C451.845 137.796 451.647 138.913 450.215 143.892C448.784 148.872 445.203 164.87 447.825 176.235C450.621 188.37 457.338 202.705 457.131 206.841C456.924 210.977 455.551 219.001 463.194 221.027"
              stroke="#83ADDF" stroke-width="0.75" stroke-linecap="round" stroke-linejoin="round"/>
        <path d="M431.149 203.061C430.744 202.606 418.187 188.362 402.437 187.212C402.082 187.212 401.734 187.162 401.387 187.154"
              stroke="#83ADDF" stroke-width="0.75" stroke-linecap="round" stroke-linejoin="round"/>
        <path d="M422.604 146.945C422.789 148.153 422.9 149.371 422.935 150.592C422.774 152.188 422.47 153.766 422.025 155.307C420.734 160.668 418.551 169.179 419.039 176.624C419.775 187.816 426.583 194.433 431.446 200.654"
              stroke="#83ADDF" stroke-width="0.75" stroke-linecap="round" stroke-linejoin="round"/>
        <path d="M351.241 171.057C347.146 171.256 345.74 170.652 342.315 168.642C338.891 166.632 334.201 160.37 333.258 150.659L344.334 144.951C344.334 144.951 359.893 164.555 351.241 171.057Z"
              fill="#B25E47"/>
        <path d="M329.309 152.247C330.136 157.739 331.252 160.097 332.543 159.956C333.833 159.816 334.958 156.647 333.263 150.659L329.309 152.247Z"
              fill="#B25E47" stroke="#914839" stroke-miterlimit="10"/>
        <path d="M333.5 151.031C334.327 156.523 335.436 158.881 336.726 158.74C338.016 158.6 339.141 155.432 337.454 149.443L333.5 151.031Z"
              fill="#B25E47" stroke="#914839" stroke-miterlimit="10"/>
        <path d="M290.801 88.992L338.306 69.8013L368.606 135.182L325.625 156.73L290.801 88.992Z" fill="#DDDDDD"
              stroke="#DDDDDD" stroke-width="2" stroke-linecap="round" stroke-linejoin="round"/>
        <path d="M296.996 88.992L344.51 69.8013L368.605 135.182L328.942 151.13L296.996 88.992Z" fill="#F9F9F9"
              stroke="#DDDDDD" stroke-width="2" stroke-linecap="round" stroke-linejoin="round"/>
        <path d="M345.224 149.815C339.202 144.678 335.297 135.993 337.614 134.843C339.384 133.966 343.809 138.921 347.705 140.782C350.999 142.444 353.736 145.031 355.58 148.227C356.465 150.088 360.717 157.963 362.661 159.203C364.605 160.444 391.869 179.742 396.65 182.662C401.431 185.582 423.566 199.835 424.774 215.063C425.982 230.292 409.215 235.255 399.049 228.075C391.347 222.657 353.28 173.712 351.246 171.057C351.246 171.057 353.95 164.961 348.623 161.412C345.488 159.319 344.248 155.018 345.224 149.815Z"
              fill="#B25E47"/>
        <path d="M348.662 161.412C345.527 159.319 344.287 155.034 345.263 149.831C339.241 144.695 335.336 136.009 337.653 134.859C339.423 133.983 343.848 138.937 347.744 140.799C351.038 142.46 353.775 145.048 355.619 148.243C356.099 149.244 357.546 151.982 359.085 154.497"
              stroke="#914839" stroke-width="0.75" stroke-linecap="round" stroke-linejoin="round"/>
        <path d="M445.014 118.622C445.188 119.359 445.188 120.126 445.014 120.863C445.014 120.863 444.311 121.873 446.206 124.71C447.673 126.819 449.647 128.526 451.946 129.673C452.509 129.797 464.172 123.304 466.008 115.363C466.008 115.363 460.905 100.738 464.751 98.091C468.597 95.444 474.206 76.4022 457.248 81.324C457.248 81.324 454.022 66.0045 443.468 67.0716C432.913 68.1386 429.058 78.2882 427.246 88.3716C425.435 98.455 430.208 115.288 438.157 114.593L445.014 118.622Z"
              fill="#B25E47"/>
        <path d="M432.961 90.9193C432.134 92.5736 429.768 93.012 427.717 91.945C425.665 90.8779 424.681 88.6941 425.525 87.0646C426.369 85.435 428.726 84.9718 430.777 86.0389C432.829 87.1059 433.813 89.2897 432.961 90.9193Z"
              fill="#914839"/>
        <path d="M443.965 111.558C445.937 111.028 447.681 109.866 448.928 108.249C448.928 108.249 452.477 114.411 443.676 117.075C443.7 117.075 441.707 112.004 443.965 111.558Z"
              fill="#914839"/>
        <path d="M485.744 105.155C485.545 106.661 480.036 108.332 481.542 110.656C483.196 113.204 481.302 116.562 476.843 114.296C472.997 112.352 471.351 113.055 469.895 116.049C468.439 119.044 465.403 116.107 462.558 116.256C459.712 116.405 456.577 115.603 456.768 112.451C456.958 109.299 461.979 108.315 459.928 105.354C457.876 102.392 456.619 99.9026 460.126 94.9643C460.126 94.9643 466.429 93.3099 466.33 87.867C466.231 82.4242 459.63 82.2174 457.38 86.0638C457.38 86.0638 453.335 82.2174 452.334 78.2634C451.507 74.9547 450.489 71.9437 449.207 70.5458C448.987 70.294 448.724 70.0839 448.43 69.9254C448.43 69.9254 439.388 65.8804 435.046 74.326C430.703 82.7716 428.428 98.2151 431.299 104.502C432.361 106.896 434.173 108.88 436.462 110.153C438.752 111.426 441.393 111.919 443.988 111.558L444.434 114.577L445.038 118.597C443.59 119.142 442.265 119.97 441.14 121.032C440.016 122.094 439.114 123.37 438.487 124.784C438.487 124.784 428.817 126.397 424.764 128.143C424.764 128.143 423.614 124.553 420.165 123.502C416.715 122.452 412.373 121.351 411.976 116.455C411.579 111.558 404.432 112.831 402.835 107.868C401.239 102.905 404.63 99.6792 406.83 98.273C409.031 96.8668 411.479 94.0296 409.833 90.7291C408.187 87.4286 409.784 84.3349 413.481 81.8865C417.179 79.438 416.608 76.7579 416.707 73.9786C416.823 70.4961 419.189 69.5035 421.521 67.7416C424.069 65.8391 420.479 60.1894 427.725 59.1968C431.729 58.6426 432.291 57.7492 435.269 55.2925C437.519 53.4479 441.266 56.5994 445.195 54.548C449.124 52.4966 451.192 51.6529 454.799 55.4993C458.405 59.3457 463.675 57.4266 464.32 62.8695C464.949 68.1056 462.475 69.1892 462.293 69.3381C462.492 69.3381 469.457 69.3877 471.086 75.6909C472.716 81.994 469.837 83.2348 473.832 87.2715C477.828 91.3081 479.573 93.3016 477.704 96.5111C476.653 98.3061 477.083 100.763 480.93 101.474C484.776 102.186 485.976 103.658 485.744 105.155Z"
              fill="#683F1D"/>
        <path d="M435.021 74.326C430.67 82.7715 428.404 98.2151 431.274 104.502C432.336 106.896 434.149 108.88 436.438 110.153C438.727 111.426 441.369 111.919 443.963 111.558L444.41 114.577C441.465 120.557 433.582 122.179 428.809 120.938C422.506 119.283 427.155 115.627 421.025 113.253C413.771 110.449 420.777 103.749 419.479 102.359C418.18 100.97 416.104 98.6452 418.354 95.4523C420.604 92.2594 425.798 92.0774 425.352 88.1896C424.905 84.3018 425.873 83.0032 428.553 81.4481C433.516 78.5777 432.689 73.9289 431.746 71.2489C430.803 68.5688 433.036 62.3732 439.695 61.7445C445.262 61.2399 447.967 64.4246 449.183 70.5458C448.963 70.294 448.7 70.0839 448.405 69.9254C448.405 69.9254 439.364 65.8804 435.021 74.326Z"
              fill="#683F1D"/>
        <path d="M449.183 70.5458C447.992 64.4246 445.262 61.2399 439.695 61.7445C433.077 62.3566 430.803 68.577 431.746 71.2489C432.689 73.9207 433.499 78.5777 428.553 81.4481C425.873 83.0032 424.921 84.3018 425.352 88.1896C425.782 92.0774 420.719 92.3255 418.354 95.4523C416.769 97.4265 415.759 99.7991 415.434 102.31"
              stroke="#7F542D" stroke-width="0.75" stroke-linecap="round" stroke-linejoin="round"/>
        <path d="M430.048 98.7693C427.715 99.5965 425.912 101.598 426.243 103.559C426.64 105.991 425.895 106.743 424.398 107.19C422.901 107.637 421.412 107.488 420.659 110.127C420.44 111.026 420.293 111.942 420.221 112.865C420.072 114.188 419.865 115.239 418.566 116.008"
              stroke="#7F542D" stroke-width="0.75" stroke-linecap="round" stroke-linejoin="round"/>
        <path d="M453.59 70.3473C455.69 69.7535 457.847 69.3874 460.025 69.2554" stroke="#7F542D" stroke-width="0.75"
              stroke-linecap="round" stroke-linejoin="round"/>
        <path d="M426.203 117.075C427.138 114.263 430.389 116.066 430.604 113.03C430.666 111.966 431.125 110.963 431.891 110.222C432.657 109.48 433.674 109.054 434.74 109.026"
              stroke="#7F542D" stroke-width="0.75" stroke-linecap="round" stroke-linejoin="round"/>
        <path d="M459.281 90.1832C460.208 87.4121 462.979 86.8165 463.665 87.2301" stroke="#914839" stroke-width="0.75"
              stroke-linecap="round" stroke-linejoin="round"/>
        <path d="M459.797 89.1161C462.485 88.2889 463.056 92.1354 460.318 91.8789" stroke="#914839" stroke-width="0.75"
              stroke-linecap="round" stroke-linejoin="round"/>
        <path d="M441.761 76.2947C441.397 77.552 443.283 78.0731 444.49 77.7836C445.698 77.4941 446.319 78.4288 446.856 77.916C447.394 77.4031 446.112 75.7322 444.656 75.1945C444.394 75.0747 444.111 75.0081 443.823 74.9986C443.535 74.9891 443.248 75.037 442.978 75.1393C442.709 75.2417 442.463 75.3965 442.254 75.5948C442.045 75.7932 441.877 76.0311 441.761 76.2947Z"
              fill="#683F1D"/>
        <path d="M438.354 76.7083C438.834 77.734 437.296 78.4288 436.22 78.3626C435.145 78.2965 434.748 79.1898 434.227 78.7928C433.706 78.3957 434.558 76.8324 435.732 76.1789C435.939 76.0396 436.171 75.9428 436.415 75.894C436.659 75.8453 436.91 75.8455 437.154 75.8948C437.398 75.9441 437.63 76.0414 437.836 76.181C438.042 76.3207 438.218 76.4999 438.354 76.7083Z"
              fill="#683F1D"/>
        <path d="M442.339 85.8239C442.951 85.8239 443.447 85.3276 443.447 84.7155C443.447 84.1033 442.951 83.6071 442.339 83.6071C441.727 83.6071 441.23 84.1033 441.23 84.7155C441.23 85.3276 441.727 85.8239 442.339 85.8239Z"
              fill="#683F1D"/>
        <path d="M434.745 85.2283C435.357 85.2283 435.854 84.7321 435.854 84.1199C435.854 83.5077 435.357 83.0115 434.745 83.0115C434.133 83.0115 433.637 83.5077 433.637 84.1199C433.637 84.7321 434.133 85.2283 434.745 85.2283Z"
              fill="#683F1D"/>
        <path d="M436.839 92.2345C435.185 91.2336 433.531 88.9919 435.731 88.3136C437.931 87.6354 438.634 86.6593 438.701 81.051"
              stroke="#914839" stroke-width="0.75" stroke-linecap="round" stroke-linejoin="round"/>
        <path d="M440.092 98.1159C442.574 97.3714 442.574 93.2024 442.574 93.2024C440.573 94.3744 438.482 95.384 436.32 96.2216C436.32 96.2216 437.379 98.9265 440.092 98.1159Z"
              fill="white" stroke="#914839" stroke-width="0.75" stroke-linecap="round" stroke-linejoin="round"/>
        <path d="M460.101 94.9643C459.143 95.0221 458.181 95.0221 457.223 94.9643" stroke="#914839" stroke-width="0.75"
              stroke-linecap="round" stroke-linejoin="round"/>
        <path d="M443.928 91.0848C444.755 92.7392 447.121 93.1776 449.172 92.1105C451.224 91.0434 452.208 88.8597 451.364 87.2301C450.521 85.6006 448.163 85.1373 446.112 86.2044C444.06 87.2715 443.076 89.4552 443.928 91.0848Z"
              fill="#914839"/>
    </g>
</svg>
