<svg width="55" height="55" viewBox="0 0 55 55" fill="none" xmlns="http://www.w3.org/2000/svg">
<path d="M40.1724 17.8059C40.012 17.783 39.8516 17.783 39.6911 17.8059C36.1391 17.6913 33.3203 14.7809 33.3203 11.2059C33.3203 7.56217 36.2766 4.58301 39.9432 4.58301C43.587 4.58301 46.5661 7.53926 46.5661 11.2059C46.5432 14.7809 43.7245 17.6913 40.1724 17.8059Z" fill="#D9D9D9"/>
<path d="M47.6431 33.6874C45.0764 35.4062 41.4785 36.0479 38.1556 35.6124C39.0264 33.7333 39.4848 31.6479 39.5077 29.4479C39.5077 27.1562 39.0035 24.9791 38.041 23.077C41.4327 22.6187 45.0306 23.2604 47.6202 24.9791C51.241 27.3624 51.241 31.2812 47.6431 33.6874Z" fill="#D9D9D9"/>
<path d="M14.7576 17.8059C14.918 17.783 15.0784 17.783 15.2388 17.8059C18.7909 17.6913 21.6096 14.7809 21.6096 11.2059C21.6096 7.53926 18.6534 4.58301 14.9867 4.58301C11.343 4.58301 8.38672 7.53926 8.38672 11.2059C8.38672 14.7809 11.2055 17.6913 14.7576 17.8059Z" fill="#D9D9D9"/>
<path d="M15.0108 29.4478C15.0108 31.6707 15.4921 33.7791 16.3629 35.6811C13.1316 36.0249 9.76289 35.3374 7.28789 33.7103C3.66706 31.3041 3.66706 27.3853 7.28789 24.9791C9.73997 23.3291 13.2004 22.6645 16.4546 23.0311C15.515 24.9561 15.0108 27.1332 15.0108 29.4478Z" fill="#D9D9D9"/>
<path d="M27.775 36.3687C27.5917 36.3458 27.3854 36.3458 27.1792 36.3687C22.9625 36.2312 19.5938 32.7708 19.5938 28.5083C19.6167 24.1542 23.1229 20.625 27.5 20.625C31.8542 20.625 35.3833 24.1542 35.3833 28.5083C35.3604 32.7708 32.0146 36.2312 27.775 36.3687Z" fill="white"/>
<path d="M20.3277 41.1128C16.8673 43.4274 16.8673 47.2315 20.3277 49.5232C24.2694 52.1586 30.7319 52.1586 34.6736 49.5232C38.134 47.2086 38.134 43.4045 34.6736 41.1128C30.7548 38.4774 24.2923 38.4774 20.3277 41.1128Z" fill="white"/>
</svg>
