<svg width="593" height="431" viewBox="0 0 593 431" fill="none" xmlns="http://www.w3.org/2000/svg">
<path d="M80.5839 365.063H31.2072C28.5997 365.061 26.0999 364.023 24.257 362.179C22.4141 360.334 21.3789 357.833 21.3789 355.226V355.226C21.3789 352.619 22.4144 350.119 24.2575 348.276C26.1007 346.433 28.6006 345.397 31.2072 345.397H80.5839C83.1913 345.397 85.6921 346.433 87.5367 348.275C89.3813 350.118 90.4188 352.618 90.4212 355.226V355.226C90.4212 356.518 90.1668 357.797 89.6724 358.99C89.178 360.184 88.4534 361.268 87.5399 362.182C86.6264 363.095 85.542 363.82 84.3485 364.314C83.1549 364.809 81.8757 365.063 80.5839 365.063V365.063Z" stroke="#DDDDDD" stroke-miterlimit="10"/>
<path d="M207.81 150.796H180.941C173.859 150.796 168.117 156.537 168.117 163.619V163.629C168.117 170.711 173.859 176.452 180.941 176.452H207.81C214.893 176.452 220.634 170.711 220.634 163.629V163.619C220.634 156.537 214.893 150.796 207.81 150.796Z" stroke="#DDDDDD" stroke-miterlimit="10"/>
<path d="M308.373 46.5489H258.996C256.39 46.5489 253.89 45.5134 252.047 43.6703C250.203 41.8271 249.168 39.3273 249.168 36.7206V36.7206C249.167 35.4292 249.42 34.1502 249.914 32.9567C250.407 31.7633 251.131 30.6787 252.043 29.7651C252.956 28.8515 254.04 28.1268 255.233 27.6323C256.426 27.1378 257.705 26.8833 258.996 26.8833H308.373C309.666 26.8821 310.946 27.1357 312.14 27.6295C313.335 28.1234 314.42 28.8478 315.335 29.7614C316.249 30.675 316.975 31.7599 317.47 32.954C317.965 34.1481 318.219 35.428 318.219 36.7206V36.7206C318.218 38.0125 317.962 39.2915 317.467 40.4845C316.972 41.6776 316.246 42.7614 315.332 43.674C314.417 44.5867 313.332 45.3103 312.138 45.8036C310.944 46.2968 309.665 46.5501 308.373 46.5489V46.5489Z" stroke="#DDDDDD" stroke-miterlimit="10"/>
<path d="M461.426 314.41H421.606C420.423 314.41 419.288 313.94 418.451 313.103C417.615 312.267 417.145 311.132 417.145 309.949V309.949C417.145 308.765 417.615 307.63 418.451 306.794C419.288 305.957 420.423 305.487 421.606 305.487H461.426C462.609 305.487 463.744 305.957 464.581 306.794C465.418 307.63 465.888 308.765 465.888 309.949V309.949C465.888 311.132 465.418 312.267 464.581 313.103C463.744 313.94 462.609 314.41 461.426 314.41V314.41Z" stroke="#DDDDDD" stroke-miterlimit="10"/>
<path d="M132.875 82.7669H93.0554C91.8721 82.7669 90.7372 82.2969 89.9005 81.4601C89.0638 80.6234 88.5938 79.4886 88.5938 78.3053V78.3053C88.5938 77.7194 88.7092 77.1392 88.9334 76.5979C89.1576 76.0566 89.4862 75.5647 89.9005 75.1504C90.3148 74.7361 90.8067 74.4075 91.348 74.1833C91.8893 73.959 92.4695 73.8436 93.0554 73.8436H132.875C133.461 73.8436 134.041 73.959 134.583 74.1833C135.124 74.4075 135.616 74.7361 136.03 75.1504C136.444 75.5647 136.773 76.0566 136.997 76.5979C137.222 77.1392 137.337 77.7194 137.337 78.3053V78.3053C137.337 79.4886 136.867 80.6234 136.03 81.4601C135.193 82.2969 134.059 82.7669 132.875 82.7669V82.7669Z" stroke="#DDDDDD" stroke-miterlimit="10"/>
<path d="M526.225 11.9147C538.316 17.6976 546.289 11.0097 553.294 7.66116C556.24 6.24062 559.589 5.88815 562.767 6.66405C565.945 7.43994 568.754 9.29599 570.715 11.9147L570.172 37.9605C570.172 37.9605 560.28 34.4491 554.651 37.9605C549.022 41.4719 542.289 50.1237 526.207 38.4401L526.225 11.9147Z" fill="#DDDDDD" stroke="#DDDDDD" stroke-width="2" stroke-linecap="round" stroke-linejoin="round"/>
<path d="M572.767 119.98C572.099 119.98 571.458 119.716 570.985 119.244C570.512 118.773 570.245 118.133 570.242 117.465V7.24485C570.242 6.9137 570.308 6.5858 570.435 6.27996C570.562 5.97413 570.748 5.69638 570.982 5.46264C571.217 5.2289 571.495 5.04377 571.802 4.91787C572.108 4.79197 572.436 4.72777 572.767 4.72896C573.098 4.72777 573.426 4.79197 573.733 4.91787C574.039 5.04377 574.317 5.2289 574.552 5.46264C574.787 5.69638 574.973 5.97413 575.1 6.27996C575.227 6.5858 575.292 6.9137 575.292 7.24485V117.465C575.29 118.133 575.023 118.773 574.549 119.244C574.076 119.716 573.435 119.98 572.767 119.98Z" fill="#F9F9F9" stroke="#DDDDDD" stroke-width="2" stroke-linecap="round" stroke-linejoin="round"/>
<path d="M553.738 120.813H592.002" stroke="#DDDDDD" stroke-width="2" stroke-linecap="round" stroke-linejoin="round"/>
<path d="M524.016 163.62H508.64V196.308H469.508V234.028" stroke="#DDDDDD" stroke-width="2" stroke-linecap="round" stroke-linejoin="round"/>
<path d="M217.439 376.068H178.298V408.503H120.116V429.779H1" stroke="#DDDDDD" stroke-width="2" stroke-linecap="round" stroke-linejoin="round"/>
<path d="M372.012 265.739V292.736H322.907V321.822H273.919V350.981H225.059V376.068" stroke="#DDDDDD" stroke-width="2" stroke-linecap="round" stroke-linejoin="round"/>
<path d="M458.44 234.598H417.47V265.739H386.52" stroke="#DDDDDD" stroke-width="2" stroke-linecap="round" stroke-linejoin="round"/>
<path d="M80.5839 365.063H31.2072C28.5997 365.061 26.0999 364.023 24.257 362.179C22.4141 360.334 21.3789 357.833 21.3789 355.226V355.226C21.3789 352.619 22.4144 350.119 24.2575 348.276C26.1007 346.433 28.6006 345.397 31.2072 345.397H80.5839C83.1913 345.397 85.6921 346.433 87.5367 348.275C89.3813 350.118 90.4188 352.618 90.4212 355.226V355.226C90.4212 356.518 90.1668 357.797 89.6724 358.99C89.178 360.184 88.4534 361.268 87.5399 362.182C86.6264 363.095 85.542 363.82 84.3485 364.314C83.1549 364.809 81.8757 365.063 80.5839 365.063V365.063Z" stroke="#DDDDDD" stroke-miterlimit="10"/>
<path d="M207.81 150.796H180.941C173.859 150.796 168.117 156.537 168.117 163.619V163.629C168.117 170.711 173.859 176.452 180.941 176.452H207.81C214.893 176.452 220.634 170.711 220.634 163.629V163.619C220.634 156.537 214.893 150.796 207.81 150.796Z" stroke="#DDDDDD" stroke-miterlimit="10"/>
<path d="M308.373 46.5489H258.996C256.39 46.5489 253.89 45.5134 252.047 43.6703C250.203 41.8271 249.168 39.3273 249.168 36.7206V36.7206C249.167 35.4292 249.42 34.1502 249.914 32.9567C250.407 31.7633 251.131 30.6787 252.043 29.7651C252.956 28.8515 254.04 28.1268 255.233 27.6323C256.426 27.1378 257.705 26.8833 258.996 26.8833H308.373C309.666 26.8821 310.946 27.1357 312.14 27.6295C313.335 28.1234 314.42 28.8478 315.335 29.7614C316.249 30.675 316.975 31.7599 317.47 32.954C317.965 34.1481 318.219 35.428 318.219 36.7206V36.7206C318.218 38.0125 317.962 39.2915 317.467 40.4845C316.972 41.6776 316.246 42.7614 315.332 43.674C314.417 44.5867 313.332 45.3103 312.138 45.8036C310.944 46.2968 309.665 46.5501 308.373 46.5489V46.5489Z" stroke="#DDDDDD" stroke-miterlimit="10"/>
<path d="M461.426 314.41H421.606C420.423 314.41 419.288 313.94 418.451 313.103C417.615 312.267 417.145 311.132 417.145 309.949V309.949C417.145 308.765 417.615 307.63 418.451 306.794C419.288 305.957 420.423 305.487 421.606 305.487H461.426C462.609 305.487 463.744 305.957 464.581 306.794C465.418 307.63 465.888 308.765 465.888 309.949V309.949C465.888 311.132 465.418 312.267 464.581 313.103C463.744 313.94 462.609 314.41 461.426 314.41V314.41Z" stroke="#DDDDDD" stroke-miterlimit="10"/>
<path d="M132.875 82.7669H93.0554C91.8721 82.7669 90.7372 82.2969 89.9005 81.4601C89.0638 80.6234 88.5938 79.4886 88.5938 78.3053V78.3053C88.5938 77.7194 88.7092 77.1392 88.9334 76.5979C89.1576 76.0566 89.4862 75.5647 89.9005 75.1504C90.3148 74.7361 90.8067 74.4075 91.348 74.1833C91.8893 73.959 92.4695 73.8436 93.0554 73.8436H132.875C133.461 73.8436 134.041 73.959 134.583 74.1833C135.124 74.4075 135.616 74.7361 136.03 75.1504C136.444 75.5647 136.773 76.0566 136.997 76.5979C137.222 77.1392 137.337 77.7194 137.337 78.3053V78.3053C137.337 79.4886 136.867 80.6234 136.03 81.4601C135.193 82.2969 134.059 82.7669 132.875 82.7669V82.7669Z" stroke="#DDDDDD" stroke-miterlimit="10"/>
<path d="M526.225 11.9147C538.316 17.6976 546.289 11.0097 553.294 7.66116C556.24 6.24062 559.589 5.88815 562.767 6.66405C565.945 7.43994 568.754 9.29599 570.715 11.9147L570.172 37.9605C570.172 37.9605 560.28 34.4491 554.651 37.9605C549.022 41.4719 542.289 50.1237 526.207 38.4401L526.225 11.9147Z" fill="#DDDDDD" stroke="#DDDDDD" stroke-width="2" stroke-linecap="round" stroke-linejoin="round"/>
<path d="M572.767 119.98C572.099 119.98 571.458 119.716 570.985 119.244C570.512 118.773 570.245 118.133 570.242 117.465V7.24485C570.242 6.9137 570.308 6.5858 570.435 6.27996C570.562 5.97413 570.748 5.69638 570.982 5.46264C571.217 5.2289 571.495 5.04377 571.802 4.91787C572.108 4.79197 572.436 4.72777 572.767 4.72896C573.098 4.72777 573.426 4.79197 573.733 4.91787C574.039 5.04377 574.317 5.2289 574.552 5.46264C574.787 5.69638 574.973 5.97413 575.1 6.27996C575.227 6.5858 575.292 6.9137 575.292 7.24485V117.465C575.29 118.133 575.023 118.773 574.549 119.244C574.076 119.716 573.435 119.98 572.767 119.98Z" fill="#F9F9F9" stroke="#DDDDDD" stroke-width="2" stroke-linecap="round" stroke-linejoin="round"/>
<path d="M553.738 120.813H592.002" stroke="#DDDDDD" stroke-width="2" stroke-linecap="round" stroke-linejoin="round"/>
<path d="M524.016 163.62H508.64V196.308H469.508V234.028" stroke="#DDDDDD" stroke-width="2" stroke-linecap="round" stroke-linejoin="round"/>
<path d="M217.439 376.068H178.298V408.503H120.116V429.779H1" stroke="#DDDDDD" stroke-width="2" stroke-linecap="round" stroke-linejoin="round"/>
<path d="M372.012 265.739V292.736H322.907V321.822H273.919V350.981H225.059V376.068" stroke="#DDDDDD" stroke-width="2" stroke-linecap="round" stroke-linejoin="round"/>
<path d="M458.44 234.598H417.47V265.739H386.52" stroke="#DDDDDD" stroke-width="2" stroke-linecap="round" stroke-linejoin="round"/>
<path d="M427.704 14.143C422.274 15.229 420.313 20.6289 420.012 23.193H424.084C429.665 26.5114 441.46 32.243 443.994 28.623C447.162 24.098 442.184 16.4055 437.659 14.143C433.134 11.8805 434.492 12.7855 427.704 14.143Z" fill="#7F542D"/>
<path d="M439.155 28.1593C439.155 28.1593 438.974 28.5756 438.648 29.2815C438.322 29.9874 438.006 30.6119 437.535 31.4987C437.218 32.1141 436.865 32.7748 436.467 33.4716C436.232 33.897 435.978 34.3766 435.707 34.7839L435.445 35.2092C434.847 36.1957 434.187 37.2183 433.463 38.2229C432.956 38.9288 432.422 39.6347 431.861 40.3134C427.462 45.6439 423.77 43.4085 423.77 43.4085C422.739 44.3054 421.883 45.3855 421.245 46.5941C420.351 48.2497 419.705 50.0273 419.326 51.8703C408.946 59.436 402.358 49.463 405.444 40.594C409.643 36.6389 413.389 32.2285 416.611 27.4444C413.263 22.9918 418.838 19.1093 421.399 21.6614L426.947 19.0912C438.639 15.9961 439.155 28.1593 439.155 28.1593Z" fill="#FEBD9D"/>
<path d="M421.822 26.7924C422.184 24.9824 421.068 22.1166 420.465 20.91L424.537 18.6475L429.967 16.8375C427.101 20.91 421.46 28.6024 421.822 26.7924Z" fill="#7F542D"/>
<path d="M418.105 22.7836C419.572 22.7836 420.82 23.3809 420.54 25.6344" stroke="#F4A789" stroke-width="0.75" stroke-linecap="round" stroke-linejoin="round"/>
<path d="M419.579 26.7023C417.453 25.381 419.317 23.6434 420.484 24.7384" stroke="#F4A789" stroke-width="0.75" stroke-linecap="round" stroke-linejoin="round"/>
<path d="M429.989 37.9605C428.459 37.4808 427.799 35.5441 428.179 33.8699C424.106 36.7116 427.147 40.0782 429.989 37.9605Z" fill="white" stroke="#F4A789" stroke-width="0.75" stroke-linecap="round" stroke-linejoin="round"/>
<path d="M431.039 35.5984C432.415 35.5984 433.618 35.8337 433.944 33.2364C434.025 32.4968 434.284 31.7878 434.698 31.17C435.113 30.5522 435.671 30.0439 436.324 29.6888" stroke="#F4A789" stroke-width="0.75" stroke-linecap="round" stroke-linejoin="round"/>
<path d="M416.609 27.4443C417.109 28.1436 417.81 28.674 418.618 28.9647" stroke="#F4A789" stroke-width="0.75" stroke-linecap="round" stroke-linejoin="round"/>
<path d="M430.93 30.7747C430.93 30.9537 430.983 31.1287 431.082 31.2775C431.182 31.4264 431.323 31.5424 431.488 31.6109C431.654 31.6794 431.836 31.6973 432.011 31.6624C432.187 31.6274 432.348 31.5412 432.475 31.4147C432.601 31.2881 432.687 31.1269 432.722 30.9513C432.757 30.7758 432.739 30.5938 432.671 30.4284C432.602 30.2631 432.486 30.1217 432.338 30.0223C432.189 29.9228 432.014 29.8698 431.835 29.8698C431.595 29.8698 431.364 29.9651 431.195 30.1348C431.025 30.3045 430.93 30.5347 430.93 30.7747Z" fill="#683F1D"/>
<path d="M436.467 33.4898C436.232 33.9151 435.978 34.3948 435.707 34.802H435.643C435.403 34.802 435.173 34.7067 435.003 34.5369C434.834 34.3672 434.738 34.137 434.738 33.897C434.738 33.657 434.834 33.4268 435.003 33.2571C435.173 33.0874 435.403 32.992 435.643 32.992C435.813 32.9891 435.981 33.0343 436.127 33.1224C436.272 33.2104 436.39 33.3377 436.467 33.4898Z" fill="#683F1D"/>
<path d="M430.583 26.2498C430.149 27.562 434.203 28.9648 434.81 27.6073C435.416 26.2498 431.135 24.5393 430.583 26.2498Z" fill="#683F1D"/>
<path d="M438.647 29.2815C438.376 29.8517 438.005 30.6119 437.534 31.4988C436.729 30.5938 435.987 29.3992 436.249 28.9376C436.665 28.2046 437.797 28.7204 438.647 29.2815Z" fill="#683F1D"/>
<path d="M423.771 43.4447C422.739 44.3416 421.883 45.4217 421.246 46.6303C415.997 42.6755 419.336 38.1686 419.336 38.1686C420.252 40.3323 421.797 42.1707 423.771 43.4447Z" fill="#F4A789"/>
<path d="M444.521 27.2996C444.448 28.7747 443.091 30.2499 440.801 30.2861C438.674 30.2861 437.109 27.8878 437.462 25.5258C437.462 25.5258 433.842 26.3674 433.235 21.6524C433.235 21.6524 430.285 24.0597 428.71 20.1501C426.928 21.7249 425.298 23.4642 423.841 25.3448C422.032 27.8788 421.127 27.5258 421.072 26.4489C421.018 25.3719 422.149 23.5891 422.285 23.3719C423.459 22.6533 424.441 21.6593 425.145 20.4759C427.443 17.0459 429.805 14.9282 431.842 17.4622C433.878 19.9962 436.231 17.4622 437.127 20.5302C437.978 23.4714 439.896 28.0055 444.521 27.2996Z" fill="#683F1D"/>
<path d="M431.344 13.2087C431.461 15.8604 429.117 19.046 429.117 19.046" stroke="#7F542D" stroke-width="0.75" stroke-linecap="round" stroke-linejoin="round"/>
<path d="M433.969 20.6297C434.45 19.7505 435.119 18.9877 435.927 18.395C436.736 17.8024 437.664 17.3944 438.648 17.1998" stroke="#7F542D" stroke-width="0.75" stroke-linecap="round" stroke-linejoin="round"/>
<path d="M437.914 24.7294C439.223 23.9301 440.745 23.5481 442.276 23.6343" stroke="#7F542D" stroke-width="0.75" stroke-linecap="round" stroke-linejoin="round"/>
<path d="M423.605 19.9148C424.093 20.1267 424.521 20.4556 424.851 20.8724C425.18 21.2892 425.402 21.7809 425.497 22.304" stroke="#7F542D" stroke-width="0.75" stroke-linecap="round" stroke-linejoin="round"/>
<path d="M427.453 32.1956C426.249 32.5305 424.937 31.535 424.511 29.9874C424.086 28.4399 424.719 26.9104 425.923 26.5846C427.127 26.2588 428.448 27.2453 428.864 28.7928C429.281 30.3404 428.629 31.8698 427.453 32.1956Z" fill="#F4A789"/>
<path d="M435.444 35.2092C434.847 36.1957 434.186 37.2183 433.462 38.2229C433.383 38.0606 433.331 37.8863 433.309 37.707C433.31 37.1048 433.525 36.5226 433.917 36.0649C434.308 35.6072 434.85 35.3039 435.444 35.2092Z" fill="#F4A789"/>
<path d="M452.694 150.732C451.363 162.941 442.295 157.067 429.634 155.384L422.611 155.103L375.904 153.293L372.004 153.14L385.579 114.858C415.598 123.763 454.377 135.184 452.694 150.732Z" fill="#FED81D"/>
<path d="M422.613 155.103L375.906 153.293L377.3 143.085L383.68 126.705C383.68 126.705 394.45 126.053 391.174 135.474C387.897 144.895 389.21 151.574 406.224 147.13C416.504 144.424 420.812 150.153 422.613 155.103Z" fill="#FCC71F"/>
<path d="M397.416 100.46C389.461 110.822 385.154 133.275 384.158 146.75C383.443 156.452 381.986 181.439 378.339 202.335C365.75 229.331 348.402 216.58 349.379 197.557V197.457C351.071 183.52 350.284 171.592 348.737 166.606C346.637 159.981 341.451 137.899 340.592 128.84C338.655 108.93 343.135 91.9527 349.642 82.2601L397.416 100.46Z" fill="#FED81D"/>
<path d="M383.68 153.574C383.87 150.859 384.033 148.569 384.159 146.787C384.795 138.992 386.048 131.26 387.906 123.664" stroke="#FCC71F" stroke-width="0.75" stroke-linecap="round" stroke-linejoin="round"/>
<path d="M354.421 96.6677C347.09 145.972 361.19 164.543 359.045 192.163C358.273 199.776 356.877 207.313 354.873 214.698" stroke="#FCC71F" stroke-width="0.75" stroke-linecap="round" stroke-linejoin="round"/>
<path d="M352.348 119.98C357.714 114.287 360.83 106.839 361.117 99.0207" stroke="#FCC71F" stroke-width="0.75" stroke-linecap="round" stroke-linejoin="round"/>
<path d="M384.386 107.908C384.386 107.908 382.087 118.496 381.164 121.483C381.164 121.483 384.386 121.999 385.535 119.971C386.685 117.944 388.838 109.111 388.838 109.111" stroke="#FCC71F" stroke-width="0.75" stroke-linecap="round" stroke-linejoin="round"/>
<path d="M437.925 87.1291L433.309 106.768C432.042 113.256 431.698 118.532 430.983 122.37C429.997 127.727 428.268 130.442 422.467 130.135L422.232 130.071L421.399 129.845L420.847 129.682L420.123 129.438C419.806 129.32 419.499 129.202 419.218 129.076C418.693 128.865 418.18 128.626 417.68 128.361L417.137 128.062C416.333 127.611 415.572 127.087 414.865 126.496C414.726 126.389 414.593 126.275 414.467 126.153C413.419 125.237 412.519 124.165 411.797 122.976C411.596 122.654 411.412 122.322 411.245 121.981C410.805 121.115 410.459 120.205 410.213 119.266C410.168 119.103 410.132 118.949 410.096 118.795C410.06 118.641 410.014 118.433 409.987 118.261C409.96 118.089 409.933 117.953 409.906 117.799C409.78 117.007 409.746 116.202 409.806 115.401C410.114 112.089 414.214 77.9162 414.214 77.9162L415.716 74.2057L417.725 69.2372L437.925 87.1291Z" fill="#A7CAF0"/>
<path d="M430.982 122.37C429.995 127.727 428.267 130.442 422.466 130.135L422.212 130.071L421.38 129.845L420.828 129.682L420.104 129.438C419.787 129.32 419.479 129.202 419.199 129.076C418.674 128.865 418.16 128.626 417.66 128.361L417.117 128.062C416.313 127.611 415.553 127.087 414.846 126.496C414.707 126.389 414.574 126.275 414.447 126.153C413.4 125.237 412.5 124.165 411.778 122.976C411.576 122.654 411.392 122.322 411.226 121.981C410.786 121.115 410.44 120.205 410.194 119.266C410.149 119.103 410.112 118.949 410.076 118.795C410.04 118.641 409.995 118.433 409.968 118.261C409.941 118.089 409.913 117.953 409.886 117.799C409.76 117.007 409.727 116.202 409.787 115.401C410.094 112.089 414.194 77.9162 414.194 77.9162L415.696 74.2057C418.945 80.423 422.791 90.4956 418.312 97.3465C411.416 107.899 412.429 125.021 426.104 122.795C427.716 122.528 429.347 122.386 430.982 122.37Z" fill="#A7CAF0"/>
<path d="M424.52 71.5721C423.313 72.5133 422.106 73.5269 420.9 74.6129C409.352 85.1018 398.863 101.763 395.904 103.573C391.641 106.125 381.65 104.659 372.066 102.224C364.854 100.432 357.787 98.0992 350.925 95.2469C345.124 92.5319 343.685 90.8576 344.654 88.7037C345.622 86.5498 351.387 73.0925 351.387 73.0925L349.966 71.6898L334.246 56.1962C343.559 49.1734 355.749 41.3271 366.944 36.965C374.537 34.0147 381.659 32.6753 387.116 34.25L424.52 71.5721Z" fill="#A7CAF0"/>
<path d="M424.522 71.5721C423.315 72.5133 422.108 73.5269 420.902 74.6129C408.756 74.812 397.172 83.0837 386.937 74.1966C374.267 63.2009 385.733 55.0559 377.887 44.3317C375.121 40.7745 371.301 38.1833 366.973 36.9288C374.566 33.9785 381.688 32.6391 387.145 34.2138L424.522 71.5721Z" fill="#A7CAF0"/>
<path d="M372.077 102.206C364.865 100.413 357.798 98.0811 350.936 95.2288C345.135 92.5138 343.696 90.8395 344.665 88.6856C345.633 86.5317 351.398 73.0744 351.398 73.0744L349.977 71.6717C354.502 66.9114 360.774 60.3049 361.117 59.9067C361.67 59.2551 374.91 63.6715 374.91 63.6715C374.91 63.6715 374.466 78.4863 362.348 79.8981C350.23 81.3099 352.393 90.9572 363.136 92.2694C370.041 93.093 371.742 98.4505 372.077 102.206Z" fill="#A7CAF0"/>
<path d="M335.116 55.5355C315.921 66.6761 332.202 104.731 374.511 66.7304C378.972 45.3453 354.936 42.6574 335.116 55.5355Z" fill="#A7CAF0"/>
<path d="M424.522 71.5721C421.009 74.3651 417.745 77.4567 414.766 80.8122" stroke="#83ADDF" stroke-width="0.75" stroke-linecap="round" stroke-linejoin="round"/>
<path d="M331.795 273.477C331.795 273.477 323.65 284.111 324.808 292.736H363.596C363.596 292.736 346.347 282.654 345.451 275.269L331.795 273.477Z" fill="#683F1D"/>
<path d="M378.728 200.055C378.601 200.833 378.474 201.602 378.339 202.362C376.927 210.507 375.18 217.983 373.017 223.729C365.279 244.273 352.202 276.409 352.202 276.409L327.27 274.337C329.08 269.477 338.13 248.834 346.808 211.829C347.917 207.107 348.76 202.327 349.333 197.512C349.379 197.168 349.415 196.815 349.451 196.471C351.324 185.258 375.062 174.461 378.728 200.055Z" fill="#FED81D"/>
<path d="M359.27 185.62C359.27 187.756 359.225 189.928 359.053 192.163C356.899 219.802 335.07 273.912 334.898 274.979" stroke="#FCC71F" stroke-width="0.75" stroke-linecap="round" stroke-linejoin="round"/>
<path d="M426.636 215.331C426.636 215.331 422.944 225.974 424.057 234.598H458.447C458.447 234.598 441.207 224.517 440.347 217.123L426.636 215.331Z" fill="#683F1D"/>
<path d="M452.982 157.99C450.149 179.185 444.728 218.336 444.728 218.336H422.203L429.633 155.384C429.733 144.424 437.172 132.759 444.774 137.863C455.245 144.94 453.534 153.855 452.982 157.99Z" fill="#FED81D"/>
<path d="M470.493 131.429C470.493 131.429 461.443 131.754 450.827 131.754C442.076 131.754 432.275 131.537 425.695 130.723C425.189 130.659 424.7 130.587 424.22 130.497C424.003 130.497 423.786 130.424 423.578 130.379C423.369 130.334 423.216 130.316 423.035 130.27C422.718 130.207 422.41 130.125 422.13 130.053L421.225 129.791L421.017 129.727L420.247 129.465L420.112 129.42L419.207 129.076C419.173 129.068 419.142 129.052 419.116 129.03C408.853 122.496 408.546 115.32 414.148 110.93C418.084 107.799 424.953 106.044 433.343 106.813L468.927 113.935L470.493 131.429Z" fill="#A7CAF0"/>
<path d="M450.827 131.754C442.076 131.754 432.275 131.537 425.695 130.723C425.189 130.659 424.7 130.587 424.22 130.497C424.003 130.497 423.786 130.424 423.578 130.379C423.369 130.334 423.216 130.316 423.035 130.27C422.718 130.207 422.41 130.125 422.13 130.053L421.225 129.791L421.017 129.727L420.247 129.465L420.112 129.42L419.207 129.076C419.173 129.068 419.142 129.052 419.116 129.03C408.853 122.496 408.546 115.32 414.148 110.93C414.057 118.17 417.668 124.207 426.112 122.831C437.677 120.895 447.678 125.492 450.827 131.754Z" fill="#A7CAF0"/>
<path d="M433.314 106.795C430.917 106.392 428.5 106.111 426.074 105.953" stroke="#83ADDF" stroke-width="0.75" stroke-linecap="round" stroke-linejoin="round"/>
<path d="M524.017 163.619L513.618 159.538L497.889 153.348C497.889 153.348 418.159 74.4228 379.968 36.5125C369.461 26.0778 362.094 18.7564 360.402 17.0369C354.773 11.2992 368.103 -3.77805 375.226 2.50264C375.778 3.00039 383.172 10.168 394.285 20.9827C432.467 58.0876 514.65 138.234 514.65 138.234L520.152 153.112L524.017 163.619Z" fill="#F9F9F9" stroke="#DDDDDD" stroke-width="2" stroke-linecap="round" stroke-linejoin="round"/>
<path d="M400.848 37.3722L503.348 136.533" stroke="#DDDDDD" stroke-linecap="round" stroke-linejoin="round"/>
<path d="M396.477 44.0782L498.072 142.37" stroke="#DDDDDD" stroke-linecap="round" stroke-linejoin="round"/>
<path d="M520.122 153.112C517.276 154.437 514.976 156.708 513.616 159.538L497.887 153.348C497.887 153.348 498.321 148.108 504.131 148.913C502.882 145.519 505.389 141.673 509.679 144.443C509.679 144.443 508.774 138.913 514.62 138.234L520.122 153.112Z" fill="#F9F9F9" stroke="#DDDDDD" stroke-width="2" stroke-linecap="round" stroke-linejoin="round"/>
<path d="M524.016 163.619L513.617 159.538C514.978 156.708 517.277 154.437 520.124 153.112L524.016 163.619Z" fill="#DDDDDD" stroke="#DDDDDD" stroke-width="2" stroke-linecap="round" stroke-linejoin="round"/>
<path d="M394.285 20.9827C389.516 26.1502 384.285 31.8427 379.968 36.5125C369.461 26.0778 362.094 18.7564 360.402 17.0369C354.773 11.2992 368.103 -3.77805 375.226 2.50264C375.778 3.00039 383.172 10.168 394.285 20.9827Z" stroke="#DDDDDD" stroke-width="2" stroke-linecap="round" stroke-linejoin="round"/>
<path d="M389.054 15.8966L374.402 30.992" stroke="#DDDDDD" stroke-width="2" stroke-linecap="round" stroke-linejoin="round"/>
<path d="M462.379 119.98C470.28 113.356 472.072 113.437 472.805 114.306C473.538 115.175 470.262 118.976 469.185 119.98C469.185 119.98 475.873 114.967 477.809 116.17C479.746 117.374 477.203 119.98 477.203 119.98C477.203 119.98 480.932 119.917 478.533 123.926C478.533 123.926 480.47 123.926 479.339 125.926C478.207 127.926 471.257 132.696 468.723 131.483C466.189 130.27 458.56 123.193 462.379 119.98Z" fill="#FEBD9D"/>
<path d="M465.809 117.229C470.84 113.401 472.144 113.609 472.804 114.306C473.465 115.003 470.261 118.976 469.184 119.98C469.184 119.98 475.872 114.967 477.809 116.17C479.746 117.374 477.202 119.98 477.202 119.98C477.202 119.98 480.931 119.917 478.533 123.926C478.533 123.926 480.47 123.926 479.338 125.926" stroke="#F4A789" stroke-width="0.75" stroke-linecap="round" stroke-linejoin="round"/>
<path d="M477.211 119.98L470.152 124.542" stroke="#F4A789" stroke-width="0.75" stroke-linecap="round" stroke-linejoin="round"/>
<path d="M472.023 127.981L478.539 123.926" stroke="#F4A789" stroke-width="0.75" stroke-linecap="round" stroke-linejoin="round"/>
<path d="M469.194 119.98L467.148 121.655" stroke="#F4A789" stroke-width="0.75" stroke-linecap="round" stroke-linejoin="round"/>
<path d="M386.388 63.6172C387.243 59.9458 387.143 56.1166 386.098 52.4948L378.125 56.2957C378.125 56.2957 381.03 64.2597 386.388 63.6172Z" fill="#A7CAF0"/>
<path d="M378.014 42.3678C380.253 42.143 382.475 41.7742 384.666 41.2637C385.145 40.9922 388.584 38.241 390.096 37.2455C391.607 36.25 397.752 32.2771 398.331 32.6482C398.911 33.0192 399.119 34.8201 398.015 36.1414C398.015 36.1414 404.721 33.2907 407.617 32.9468C409.979 32.6663 409.517 34.8925 407.933 35.9152C410.467 34.793 413.481 35.9152 410.051 38.3587C412.368 37.9605 413.571 39.7433 409.942 42.3678C411.951 41.2637 413.318 42.766 411.472 44.6394C408.467 47.6983 402.286 50.0694 400.331 50.8115C398.377 51.5536 385.987 54.3048 381.182 57.0198C381.182 57.0198 377.046 49.5897 378.014 42.3678Z" fill="#FEBD9D"/>
<path d="M390.105 37.2455C391.635 36.25 397.762 32.2771 398.341 32.6482C398.92 33.0192 399.128 34.8201 398.024 36.1414C398.024 36.1414 404.73 33.2907 407.626 32.9468C409.988 32.6663 409.527 34.8925 407.943 35.9152C410.477 34.793 413.491 35.9152 410.061 38.3587C412.377 37.9605 413.581 39.7433 409.952 42.3678C411.961 41.2637 413.328 42.766 411.482 44.6394" stroke="#F4A789" stroke-width="0.75" stroke-linecap="round" stroke-linejoin="round"/>
<path d="M398.025 36.1414L394.559 37.8428" stroke="#F4A789" stroke-width="0.75" stroke-linecap="round" stroke-linejoin="round"/>
<path d="M407.943 35.9152L400.848 39.2094" stroke="#F4A789" stroke-width="0.75" stroke-linecap="round" stroke-linejoin="round"/>
<path d="M410.061 38.3587L402.359 42.3678" stroke="#F4A789" stroke-width="0.75" stroke-linecap="round" stroke-linejoin="round"/>
<path d="M409.954 42.3679L403.918 45.7978" stroke="#F4A789" stroke-width="0.75" stroke-linecap="round" stroke-linejoin="round"/>
<path d="M381.572 39.8972C369.182 41.1552 346.829 44.8657 330.068 56.9926C323.579 61.6805 323.679 81.4276 341.39 79.7895C359.1 78.1515 386.413 63.6172 386.413 63.6172C386.413 63.6172 379.39 62.0697 381.572 39.8972Z" fill="#A7CAF0"/>
<path d="M352.348 77.6175C368.538 73.0925 386.385 63.6172 386.385 63.6172C386.385 63.6172 379.389 62.0697 381.543 39.8972C372.066 40.8142 362.708 42.6973 353.615 45.5173" stroke="#83ADDF" stroke-width="0.75" stroke-linecap="round" stroke-linejoin="round"/>
<path d="M262.731 235.504C262.731 235.504 237.057 293.306 224.323 317.189C203.11 332.139 199.807 316.754 203.182 304.374C204.649 301.315 208.956 287.65 213.463 272.219C217.282 259.133 221.237 244.789 223.726 234.599L252.767 235.268L262.731 235.504Z" fill="#83ADDF"/>
<path d="M253.543 238.924C250.991 257.224 228.638 246.635 226.475 257.224C225.398 262.518 221.298 267.812 213.461 272.256C217.28 259.169 221.235 244.825 223.724 234.635L252.765 235.304C253.484 236.365 253.763 237.663 253.543 238.924Z" fill="#83ADDF"/>
<path d="M234.646 248.228C232.284 249.314 233.741 250.644 234.411 252.617C235.081 254.59 231.578 254.11 231.696 256.78C231.814 259.45 233.108 257.957 231.696 261.975C230.329 265.857 214.836 304.863 209.523 313.388" stroke="#A7CAF0" stroke-width="0.75" stroke-linecap="round" stroke-linejoin="round"/>
<path d="M294.222 235.838C294.222 235.838 262.548 242.354 241.027 244.364C227.877 245.603 219.044 241.287 214.736 234.798C213.372 232.722 212.43 230.399 211.964 227.959C211.499 225.52 211.518 223.012 212.021 220.58C222.719 207.91 235.199 204.163 245.579 203.756C252.937 203.477 260.271 204.757 267.1 207.512C293.182 205.295 307.752 206.399 315.599 209.784C329.083 225.892 313.001 231.82 294.222 235.838Z" fill="#83ADDF"/>
<path d="M227.127 210.915C226.638 219.965 230.33 223.105 249.806 222.825C271.236 222.517 301.128 220.562 302.73 220.843C305.997 221.413 299.644 226.589 301.889 226.671C304.848 226.788 308.043 227.223 306.414 229.25C304.785 231.277 303.029 232.101 304.233 233.359" stroke="#A7CAF0" stroke-width="0.75" stroke-linecap="round" stroke-linejoin="round"/>
<path d="M221.723 241.142C226.492 243.784 232.945 245.124 241.026 244.373C249.651 243.567 259.895 242.038 269.081 240.49" stroke="#83ADDF" stroke-width="0.75" stroke-linecap="round" stroke-linejoin="round"/>
<path d="M301.418 196.39C300.794 198.887 299.056 201.231 295.617 203.123C295.21 203.249 294.794 203.367 294.377 203.476C293.961 203.584 293.608 203.648 293.219 203.72L292.495 203.82L291.997 203.874H291.753C291.336 203.874 290.92 203.919 290.504 203.919C283.78 203.919 276.522 199.62 271.083 187.928C271.083 187.928 267.662 194.426 266.72 198.598C266.581 199.152 266.5 199.719 266.476 200.29C266.436 202.721 266.66 205.148 267.146 207.53C267.146 207.53 253.743 207.675 244.811 210.299C235.878 212.924 225.86 217.784 212.068 220.598C212.068 220.598 212.746 214.263 215.081 210.987C214.204 210.667 213.459 210.061 212.967 209.266C212.474 208.472 212.263 207.536 212.366 206.607C212.674 204.019 215.244 202.86 218.502 197.838C219.556 196.198 220.493 194.486 221.308 192.715C226.448 181.647 225.281 178.824 224.611 177.756L218.448 184.38C207.38 196.263 185.135 220.11 183.615 221.567C181.569 223.512 178.384 224.282 177.225 223.503C176.519 223.033 171.795 226.797 168.175 229.838C165.813 231.829 163.913 233.513 163.913 233.513L150.41 225.368C150.41 225.368 154.211 222.218 158.139 218.879C162.293 215.358 166.592 211.639 166.727 211.186C167.017 210.281 166.139 208.046 168.076 206.019C169.804 204.209 202.719 167.231 214.104 154.126C215.579 152.425 216.701 151.131 217.335 150.361C222.882 143.673 226.222 140.406 234.204 138.424L273.182 139.266C273.182 139.266 284.395 137.212 286.757 144.235C287.092 145.266 287.445 146.678 287.807 148.352C289.907 158.181 292.088 176.878 292.088 176.878C292.088 176.878 303.59 187.575 301.418 196.39Z" fill="#FED81D"/>
<path d="M168.121 229.874C165.759 231.865 163.858 233.549 163.858 233.549L150.355 225.404C150.355 225.404 154.156 222.254 158.084 218.915C162.188 221.793 165.614 225.534 168.121 229.874Z" fill="#B25E47"/>
<path d="M234.473 167.013C234.473 171.638 232.084 178.271 229.296 180.751C225.894 183.756 231.016 194.661 225.323 197.801C224.297 198.447 223.11 198.789 221.898 198.789C220.686 198.789 219.499 198.447 218.473 197.801C219.526 196.162 220.464 194.45 221.278 192.679C226.419 181.611 225.251 178.787 224.581 177.719C228.464 173.71 232.093 169.683 234.473 167.013Z" fill="#FCC71F"/>
<path d="M301.418 196.39C300.793 198.887 299.056 201.231 295.617 203.123C295.209 203.249 294.793 203.367 294.377 203.476C293.96 203.584 293.607 203.648 293.218 203.72L292.494 203.82L291.997 203.874H291.752C291.336 203.874 290.92 203.919 290.503 203.919C283.779 203.919 276.521 199.62 271.082 187.928C277.1 174.805 277.372 168.271 275.969 162.045C277.423 162.388 278.757 163.118 279.83 164.156C280.904 165.195 281.677 166.504 282.069 167.945C284.431 175.882 272.883 185.475 279.001 191.349C284.431 196.516 293.978 188.471 297.417 194.453C297.774 195.174 298.361 195.757 299.085 196.107C299.81 196.458 300.63 196.557 301.418 196.39Z" fill="#FCC71F"/>
<path d="M287.727 148.325C284.007 148.026 279.274 148.814 276.649 153.755C271.88 162.805 256.034 174.57 244.929 160.642C236.25 149.782 228.404 148.986 214.051 154.063C215.526 152.361 216.648 151.067 217.282 150.298C222.829 143.61 226.169 140.343 234.151 138.361L273.129 139.203C273.129 139.203 284.342 137.148 286.704 144.171C287.012 145.239 287.365 146.615 287.727 148.325Z" fill="#FED81D"/>
<path d="M161.078 221.196L169.277 214.345" stroke="#FCC71F" stroke-width="0.75" stroke-linecap="round" stroke-linejoin="round"/>
<path d="M164.086 224.218L172.005 217.467" stroke="#FCC71F" stroke-width="0.75" stroke-linecap="round" stroke-linejoin="round"/>
<path d="M166.453 227.205L173.53 221.883" stroke="#FCC71F" stroke-width="0.75" stroke-linecap="round" stroke-linejoin="round"/>
<path d="M216.402 219.594L218.475 211.467" stroke="#FCC71F" stroke-width="0.75" stroke-linecap="round" stroke-linejoin="round"/>
<path d="M220.148 218.607L222.04 210.236" stroke="#FCC71F" stroke-width="0.75" stroke-linecap="round" stroke-linejoin="round"/>
<path d="M223.723 217.539L225.325 210.236" stroke="#FCC71F" stroke-width="0.75" stroke-linecap="round" stroke-linejoin="round"/>
<path d="M227.977 216.146L229.289 209.684" stroke="#FCC71F" stroke-width="0.75" stroke-linecap="round" stroke-linejoin="round"/>
<path d="M232.141 214.68L232.991 208.86" stroke="#FCC71F" stroke-width="0.75" stroke-linecap="round" stroke-linejoin="round"/>
<path d="M235.934 213.295L236.277 209.412" stroke="#FCC71F" stroke-width="0.75" stroke-linecap="round" stroke-linejoin="round"/>
<path d="M237.234 163.81C237.234 163.81 236.184 165.031 234.474 166.977C232.094 169.692 228.464 173.674 224.582 177.701" stroke="#FCC71F" stroke-width="0.75" stroke-linecap="round" stroke-linejoin="round"/>
<path d="M271.066 187.919C277.085 174.796 277.356 168.262 275.953 162.036C275.374 159.384 274.478 156.805 273.609 153.791" stroke="#FCC71F" stroke-width="0.75" stroke-linecap="round" stroke-linejoin="round"/>
<path d="M231.246 145.13L237.237 141.112" stroke="#FCC71F" stroke-width="0.75" stroke-linecap="round" stroke-linejoin="round"/>
<path d="M237.75 148.606L240.981 143.275" stroke="#FCC71F" stroke-width="0.75" stroke-linecap="round" stroke-linejoin="round"/>
<path d="M243.379 149.945L244.926 144.787" stroke="#FCC71F" stroke-width="0.75" stroke-linecap="round" stroke-linejoin="round"/>
<path d="M247.137 150.479L248.25 145.583" stroke="#FCC71F" stroke-width="0.75" stroke-linecap="round" stroke-linejoin="round"/>
<path d="M250.828 151.275L251.498 146.072" stroke="#FCC71F" stroke-width="0.75" stroke-linecap="round" stroke-linejoin="round"/>
<path d="M257.039 151.275V146.434" stroke="#FCC71F" stroke-width="0.75" stroke-linecap="round" stroke-linejoin="round"/>
<path d="M261.75 146.434L262.465 151.275" stroke="#FCC71F" stroke-width="0.75" stroke-linecap="round" stroke-linejoin="round"/>
<path d="M265.098 145.836L266.31 151.275" stroke="#FCC71F" stroke-width="0.75" stroke-linecap="round" stroke-linejoin="round"/>
<path d="M268.125 145.13L269.799 149.547" stroke="#FCC71F" stroke-width="0.75" stroke-linecap="round" stroke-linejoin="round"/>
<path d="M270.559 143.918L272.749 148.606" stroke="#FCC71F" stroke-width="0.75" stroke-linecap="round" stroke-linejoin="round"/>
<path d="M273.281 143.918L276.032 146.072" stroke="#FCC71F" stroke-width="0.75" stroke-linecap="round" stroke-linejoin="round"/>
<path d="M274.656 141.429L278.041 143.121" stroke="#FCC71F" stroke-width="0.75" stroke-linecap="round" stroke-linejoin="round"/>
<path d="M265.67 134.714C265 134.406 264.267 134.089 263.479 133.809C261.572 133.097 259.541 132.771 257.506 132.85C250.52 132.931 234.148 138.443 234.148 138.443C234.501 138.931 238.782 143.682 247.506 145.483C256.23 147.284 265.172 146.388 269 144.868C270.119 144.384 271.09 143.612 271.815 142.632C272.54 141.651 272.992 140.496 273.127 139.284C273.127 139.284 271.308 137.284 265.67 134.714Z" fill="#B25E47"/>
<path d="M307.408 306.627C312.267 303.143 316.783 308.121 305.598 311.017" stroke="#83ADDF" stroke-width="0.75" stroke-linecap="round" stroke-linejoin="round"/>
<path d="M302.836 309.514C305.126 303.976 308.492 299.324 310.076 300.519C312.013 301.994 304.592 309.967 304.592 309.967" stroke="#83ADDF" stroke-width="0.75" stroke-linecap="round" stroke-linejoin="round"/>
<path d="M313.391 321.822H282.838C282.72 317.65 287.426 308.311 287.942 305.27C287.942 305.207 287.942 305.143 287.942 305.062C288.512 301.686 290.114 289.215 290.114 289.215L306.504 290.247L302.096 305.207C303.66 307.491 305.416 309.638 307.345 311.623C310.839 315.306 317.708 315.831 318.35 318.419C318.993 321.008 315.264 321.822 313.391 321.822Z" fill="#A7CAF0"/>
<path d="M306.53 290.247L302.123 305.207C302.123 305.207 293.236 305.134 287.969 305.062C288.539 301.686 290.141 289.215 290.141 289.215L306.53 290.247Z" fill="#B25E47"/>
<path d="M323.697 226.173C321.833 240.255 308.964 292.736 308.964 292.736H287.859L294.194 235.956C294.206 235.918 294.206 235.877 294.194 235.838C294.077 235.105 290.258 211.159 310.883 208.236C312.491 208.622 314.065 209.14 315.589 209.784C323.652 213.241 324.629 219.069 323.697 226.173Z" fill="#83ADDF"/>
<path d="M295.309 221.06C299.517 220.861 302.277 220.761 302.73 220.843C305.997 221.413 299.644 226.589 301.888 226.671C304.847 226.788 308.042 227.223 306.413 229.25C304.603 231.44 302.911 232.155 304.377 233.504C307.155 236.047 302.413 238.463 302.087 241.386C301.761 244.309 296.44 288.301 296.44 288.301" stroke="#A7CAF0" stroke-width="0.75" stroke-linecap="round" stroke-linejoin="round"/>
<path d="M319.256 145.112C317.917 148.732 316.478 151.927 316.478 151.927L316.333 152.497L313.618 163.529C313.618 163.529 315.754 164.099 315.7 165.973C315.645 167.846 311.7 183.231 307.89 191.91C307.727 192.299 307.528 192.679 307.329 193.068C307.129 193.457 307.03 193.629 306.867 193.901C306.529 194.468 306.167 195.02 305.781 195.557C305.6 195.81 305.419 196.055 305.229 196.29C305.039 196.525 304.813 196.806 304.586 197.05C304.36 197.295 304.161 197.53 303.944 197.765C303.482 198.245 303.039 198.67 302.487 199.141L301.718 199.774C300.435 200.793 299.034 201.653 297.545 202.335H297.482L296.577 202.715C296.269 202.833 295.962 202.951 295.672 203.05C289.419 201.448 287.364 197.349 287.219 192.86C286.975 185.385 292.07 176.823 292.07 176.823C292.066 176.809 292.066 176.793 292.07 176.778C292.369 175.928 297.283 162.226 298.288 161.095C299.292 159.963 301.283 160.705 301.283 160.705L304.804 149.511L305.573 147.058C305.573 147.058 305.292 146.47 304.912 145.61C304.089 143.846 303.481 141.99 303.102 140.081C302.894 137.9 304.912 136.533 306.541 136.28C306.541 136.28 306.695 132.533 307.944 131.012C308.138 130.706 308.415 130.461 308.742 130.306C309.07 130.151 309.435 130.092 309.795 130.135C310.155 130.179 310.495 130.323 310.776 130.552C311.057 130.781 311.267 131.085 311.383 131.429C311.772 130.126 314.623 129.945 314.695 132.515C314.805 132.068 315.08 131.679 315.466 131.428C315.851 131.177 316.318 131.083 316.771 131.163C317.224 131.244 317.629 131.494 317.904 131.863C318.179 132.231 318.303 132.691 318.252 133.148C318.252 133.148 320.342 131.121 321.428 134.958C321.926 136.967 320.65 141.311 319.256 145.112Z" fill="#FED81D"/>
<path d="M307.418 151.275C307.418 151.275 304.531 160.85 304.531 160.678" stroke="#FCC71F" stroke-width="0.75" stroke-linecap="round" stroke-linejoin="round"/>
<path d="M309.672 152.18L307.672 160.488" stroke="#FCC71F" stroke-width="0.75" stroke-linecap="round" stroke-linejoin="round"/>
<path d="M313.041 152.678L311.258 161.267" stroke="#FCC71F" stroke-width="0.75" stroke-linecap="round" stroke-linejoin="round"/>
<path d="M291.979 176.851C290.169 182.072 288.956 185.955 289.174 187.276" stroke="#FCC71F" stroke-width="0.75" stroke-linecap="round" stroke-linejoin="round"/>
<path d="M307.363 193.068C307.218 193.349 307.064 193.629 306.901 193.901C306.564 194.468 306.202 195.02 305.815 195.557C305.634 195.81 305.453 196.055 305.263 196.29C305.073 196.525 304.847 196.806 304.621 197.05C304.395 197.295 304.195 197.53 303.978 197.765C303.517 198.245 303.073 198.67 302.521 199.141L301.752 199.774C300.473 200.797 299.071 201.658 297.58 202.335H297.517L296.612 202.715C296.304 202.833 295.996 202.951 295.707 203.05C289.453 201.448 287.399 197.349 287.254 192.86C291.39 192.208 295.489 190.923 297.498 194.417C299.716 198.471 304.458 195.485 307.363 193.068Z" fill="#FCC71F"/>
<path d="M316.478 151.927L316.333 152.497C314.493 152.788 312.618 152.766 310.785 152.434C308.565 151.99 306.492 150.994 304.758 149.538L305.527 147.085C305.527 147.085 303.246 142.289 303.038 140.108C302.83 137.927 304.848 136.56 306.477 136.307C306.477 136.307 306.631 132.56 307.88 131.04C308.074 130.733 308.351 130.489 308.679 130.333C309.006 130.178 309.371 130.119 309.731 130.162C310.091 130.206 310.431 130.351 310.712 130.579C310.993 130.808 311.204 131.112 311.319 131.456C311.708 130.153 314.559 129.963 314.631 132.542C314.741 132.095 315.016 131.707 315.402 131.456C315.787 131.205 316.254 131.11 316.707 131.19C317.16 131.271 317.565 131.521 317.84 131.89C318.115 132.259 318.24 132.718 318.188 133.175C318.188 133.175 320.279 131.148 321.365 134.985C322.451 138.823 316.478 151.927 316.478 151.927Z" fill="#B25E47"/>
<path d="M304.532 144.805C303.847 143.295 303.345 141.709 303.038 140.081C302.83 137.89 304.848 136.533 306.477 136.28C306.477 136.28 306.631 132.533 307.88 131.012C308.074 130.706 308.351 130.461 308.679 130.306C309.006 130.151 309.371 130.092 309.731 130.135C310.091 130.179 310.431 130.323 310.712 130.552C310.993 130.781 311.204 131.085 311.319 131.429C311.708 130.126 314.559 129.936 314.631 132.515C314.741 132.068 315.016 131.679 315.402 131.428C315.787 131.177 316.254 131.083 316.707 131.163C317.16 131.244 317.565 131.494 317.84 131.863C318.115 132.231 318.24 132.691 318.188 133.148C318.188 133.148 320.279 131.121 321.365 134.958" stroke="#914839" stroke-width="0.75" stroke-linecap="round" stroke-linejoin="round"/>
<path d="M306.461 136.307C309.312 135.791 311.746 136.062 311.828 137.031C311.909 137.999 308.515 139.375 308.515 139.375C308.515 139.375 312.85 139.954 311.384 145.13" stroke="#914839" stroke-width="0.75" stroke-linecap="round" stroke-linejoin="round"/>
<path d="M311.257 131.275C311.257 131.275 310.641 135.338 310.352 136.135" stroke="#914839" stroke-width="0.75" stroke-linecap="round" stroke-linejoin="round"/>
<path d="M311.988 137.049C313.083 137.347 314.133 136.234 314.703 132.198" stroke="#914839" stroke-width="0.75" stroke-linecap="round" stroke-linejoin="round"/>
<path d="M313.336 136.533C313.434 137.025 313.707 137.464 314.105 137.769C314.503 138.073 314.999 138.223 315.499 138.189" stroke="#914839" stroke-width="0.75" stroke-linecap="round" stroke-linejoin="round"/>
<path d="M318.226 133.175C317.321 133.872 314.968 138.117 316.217 139.167C317.674 140.379 318.841 137.357 318.841 137.357" stroke="#914839" stroke-width="0.75" stroke-linecap="round" stroke-linejoin="round"/>
<path d="M155.621 387.272C159.82 384.602 163.766 384.095 164.671 384.747C165.947 385.742 162.074 388.421 158.915 388.846" stroke="#83ADDF" stroke-width="0.75" stroke-linecap="round" stroke-linejoin="round"/>
<path d="M151.883 389.851C158.163 387.489 164.553 389.851 163.838 391.978C163.032 394.43 153.114 390.892 153.114 390.892" stroke="#83ADDF" stroke-width="0.75" stroke-linecap="round" stroke-linejoin="round"/>
<path d="M154.626 400.014C156.481 401.869 160.056 405.869 159.558 407.028C159.06 408.186 157.169 408.539 157.169 408.539H143.775C143.775 408.539 141.621 407.254 141.539 406.023C141.458 404.793 137.232 380.068 137.919 377.914C138.508 376.104 146.915 372.765 150.888 370.547C151.444 370.249 151.974 369.903 152.472 369.516C154.933 367.443 162.481 359.733 162.481 359.733L171.884 371.289C166.454 374.321 160.372 378.448 157.558 382.149C156.802 383.052 156.275 384.123 156.019 385.272C155.323 389.426 152.779 398.132 154.626 400.014Z" fill="#A7CAF0"/>
<path d="M171.883 371.253C166.453 374.285 160.371 378.412 157.557 382.113L150.887 370.511C151.443 370.212 151.972 369.867 152.47 369.479C154.932 367.407 162.48 359.696 162.48 359.696L171.883 371.253Z" fill="#B25E47"/>
<path d="M224.318 317.189C222.831 320.095 221.184 322.917 219.386 325.641C210.526 338.103 171.33 375.136 171.33 375.136L158.145 358.149L203.186 304.365C210.906 294.428 231.069 296.79 224.318 317.189Z" fill="#83ADDF"/>
<path d="M206.728 317.071C196.719 329.071 163.496 365.036 163.496 365.036" stroke="#A7CAF0" stroke-width="0.75" stroke-linecap="round" stroke-linejoin="round"/>
<path d="M216.636 298.79C214.55 303.784 212.187 308.657 209.559 313.388" stroke="#A7CAF0" stroke-width="0.75" stroke-linecap="round" stroke-linejoin="round"/>
<path d="M277.848 131.854C274.717 130.949 274.653 133.393 276.128 134.388C277.604 135.384 276.852 138.488 273.178 138.913C272.843 138.958 271.975 139.085 270.925 139.194C268.961 139.393 266.4 139.556 265.64 139.13C264.879 138.705 264.834 137.519 265.106 136.271C265.151 136.017 265.232 135.764 265.305 135.492C265.727 134.172 266.269 132.894 266.925 131.673C268.668 131.635 270.37 131.136 271.857 130.225C275.214 127.99 275.305 123.51 273.947 118.84C273.607 117.673 273.196 116.528 272.717 115.41C272.346 114.505 271.929 113.6 271.486 112.759C267.395 104.786 261.594 104.795 261.594 104.795C264.164 109.193 261.721 112.179 260.219 112.94C258.716 113.7 257.078 114.216 257.16 117.238C257.241 120.261 255.884 120.714 254.979 120.56C252.128 120.035 250.101 122.198 251.359 124.569C252.617 126.94 256.146 126.198 257.196 125.076C257.196 125.076 259.286 126.478 259.404 128.153C259.522 129.827 256.291 131.836 257.82 134.442C258.111 134.901 258.269 135.43 258.278 135.973C258.287 136.515 258.147 137.05 257.872 137.517C257.597 137.985 257.198 138.368 256.72 138.624C256.241 138.88 255.701 138.998 255.16 138.967C253.835 138.809 252.493 139.016 251.277 139.565C250.985 139.707 250.706 139.877 250.445 140.072C250.259 140.21 250.084 140.361 249.92 140.524C248.544 141.918 247.521 143.628 244.245 142.877C240.969 142.126 240.39 137.565 240.39 137.565C235.747 137.773 232.643 138.334 232.345 134.551C232.1 131.546 235.467 130.469 237.25 130.144C237.599 130.097 237.928 129.949 238.194 129.718C238.461 129.486 238.654 129.183 238.75 128.843C238.846 128.504 238.841 128.144 238.735 127.807C238.63 127.471 238.428 127.172 238.155 126.949C236.426 125.628 237.72 123.582 240.245 122.714C242.77 121.845 241.829 116.234 242.055 113.501C242.408 108.614 246.933 104.36 253.006 104.071C253.006 104.071 256.146 97.2742 263.748 98.4416C271.35 99.6091 274.798 106.958 274.445 110.342C274.092 113.727 274.047 117.329 277.712 117.501C281.377 117.673 283.441 119.926 282.12 122.18C280.798 124.433 279.857 126.126 282.635 127.981C285.414 129.836 280.979 132.732 277.848 131.854Z" fill="#683F1D"/>
<path d="M261.583 104.749C264.154 109.148 261.71 112.134 260.208 112.894C258.706 113.655 257.068 114.17 257.149 117.193C257.23 120.216 255.873 120.668 254.968 120.514C252.117 119.99 250.09 122.153 251.348 124.524C252.606 126.895 256.135 126.153 257.185 125.03C257.185 125.03 259.276 126.433 259.393 128.107C259.511 129.782 256.28 131.791 257.81 134.397C258.1 134.855 258.259 135.385 258.268 135.927C258.277 136.47 258.136 137.004 257.861 137.472C257.586 137.94 257.187 138.323 256.709 138.578C256.23 138.834 255.691 138.953 255.149 138.922C253.825 138.764 252.482 138.97 251.266 139.519C250.974 139.662 250.695 139.832 250.434 140.026C245.71 137.945 242.117 134.669 244.027 132.117C246.524 128.786 248.253 130.614 246.823 125.302C245.393 119.99 246.778 116.587 250.262 116.252C253.746 115.917 257.04 113.537 255.303 110.035C253.565 106.532 259.104 99.0117 266.163 102.161C269.873 103.817 271.231 108.17 271.538 112.677C267.385 104.74 261.583 104.749 261.583 104.749Z" fill="#683F1D"/>
<path d="M271.857 130.198C271.504 132.859 269.857 135.456 265.105 136.252C265.151 135.999 265.232 135.746 265.305 135.474C265.727 134.154 266.269 132.876 266.925 131.655C268.669 131.614 270.371 131.112 271.857 130.198Z" fill="#683F1D"/>
<path d="M265.307 135.474C264.845 137.004 264.709 138.533 265.642 139.094C266.366 139.519 268.963 139.357 270.927 139.157C263.605 145.185 257.515 144.262 251.243 139.556C252.459 139.007 253.801 138.8 255.125 138.958C255.667 138.989 256.207 138.87 256.685 138.615C257.164 138.359 257.562 137.976 257.837 137.508C258.113 137.041 258.253 136.506 258.244 135.964C258.235 135.421 258.077 134.892 257.786 134.433C256.257 131.827 259.488 129.827 259.37 128.144C259.252 126.46 257.162 125.067 257.162 125.067C256.112 126.189 252.555 126.931 251.324 124.56C250.094 122.189 252.121 120.035 254.944 120.551C255.849 120.705 257.216 120.252 257.125 117.229C257.035 114.207 258.682 113.745 260.184 112.931C261.687 112.116 264.13 109.148 261.56 104.786C261.56 104.786 267.37 104.786 271.461 112.768C271.904 113.627 272.32 114.514 272.691 115.419C273.171 116.537 273.582 117.682 273.922 118.849C275.732 125.184 274.936 131.166 266.899 131.682C266.244 132.903 265.702 134.181 265.28 135.501L265.307 135.474Z" fill="#B25E47"/>
<path d="M273.947 118.813C273.603 118.939 273.23 118.962 272.874 118.88C272.517 118.798 272.192 118.615 271.937 118.352C271.34 117.582 271.684 116.279 272.716 115.374C273.194 116.495 273.605 117.643 273.947 118.813Z" fill="#914839"/>
<path d="M264.898 116.315C264.898 116.438 264.923 116.56 264.971 116.672C265.02 116.785 265.09 116.887 265.179 116.972C265.268 117.056 265.373 117.122 265.488 117.165C265.604 117.208 265.726 117.226 265.849 117.22C266.025 117.211 266.196 117.151 266.339 117.046C266.481 116.942 266.59 116.797 266.652 116.631C266.713 116.465 266.725 116.285 266.685 116.113C266.645 115.94 266.556 115.783 266.428 115.661C266.299 115.539 266.138 115.457 265.964 115.426C265.79 115.394 265.61 115.415 265.447 115.484C265.285 115.554 265.146 115.67 265.048 115.818C264.951 115.965 264.899 116.138 264.898 116.315Z" fill="#683F1D"/>
<path d="M268.943 114.351C268.943 114.592 269.038 114.822 269.208 114.991C269.377 115.161 269.608 115.256 269.848 115.256C269.97 115.257 270.092 115.232 270.205 115.184C270.317 115.135 270.419 115.065 270.504 114.976C270.589 114.887 270.654 114.782 270.697 114.666C270.74 114.551 270.759 114.429 270.753 114.306C270.753 114.066 270.657 113.836 270.487 113.666C270.318 113.497 270.088 113.401 269.848 113.401C269.725 113.401 269.603 113.426 269.49 113.474C269.378 113.522 269.276 113.593 269.191 113.682C269.106 113.771 269.041 113.876 268.998 113.991C268.955 114.106 268.936 114.229 268.943 114.351Z" fill="#683F1D"/>
<path d="M266.924 131.646C266.269 132.867 265.726 134.145 265.304 135.465C264.337 135.136 263.514 134.484 262.971 133.618C262.429 132.753 262.201 131.727 262.327 130.714C263.804 131.253 265.353 131.567 266.924 131.646Z" fill="#914839"/>
<path d="M253.004 123.564C253.628 121.953 255.719 122.252 256.624 123.193" stroke="#914839" stroke-width="0.75" stroke-linecap="round" stroke-linejoin="round"/>
<path d="M254.527 124.379C254.468 124.177 254.457 123.964 254.494 123.757C254.532 123.55 254.618 123.355 254.744 123.187C254.871 123.019 255.035 122.883 255.224 122.79C255.412 122.697 255.62 122.649 255.831 122.65" stroke="#914839" stroke-width="0.75" stroke-linecap="round" stroke-linejoin="round"/>
<path d="M257.168 125.067C257.482 124.679 257.707 124.229 257.829 123.745" stroke="#914839" stroke-width="0.75" stroke-linecap="round" stroke-linejoin="round"/>
<path d="M265.73 120.895C266.394 121.455 267.209 121.807 268.072 121.905C268.936 122.004 269.809 121.844 270.581 121.447" stroke="#914839" stroke-width="0.75" stroke-linecap="round" stroke-linejoin="round"/>
<path d="M271.478 118.695C271.894 117.356 271.622 116.397 270.075 116.143C269.329 115.973 268.669 115.545 268.21 114.933C267.75 114.322 267.523 113.567 267.568 112.804" stroke="#914839" stroke-width="0.75" stroke-linecap="round" stroke-linejoin="round"/>
<path d="M261.539 113.13C261.539 114.207 265.557 113.709 265.892 112.514C266.164 111.573 261.512 111.103 261.539 113.13Z" fill="#683F1D"/>
<path d="M269.415 108.207C268.437 107.745 267.098 111.627 268.311 111.926C268.908 112.08 271.704 109.302 269.415 108.207Z" fill="#683F1D"/>
<path d="M252.949 104.08C254.465 104.189 255.946 104.589 257.311 105.256" stroke="#7F542D" stroke-width="0.75" stroke-linecap="round" stroke-linejoin="round"/>
<path d="M255.505 111.075C252.5 112.189 248.89 114.071 248.781 117.682C248.672 121.293 250.22 124.569 245.441 126.922C240.663 129.275 245.188 135.302 245.188 135.302" stroke="#7F542D" stroke-width="0.75" stroke-linecap="round" stroke-linejoin="round"/>
<path d="M250.508 136.289C253.422 133.909 250.254 130.913 253.422 128.678" stroke="#7F542D" stroke-width="0.75" stroke-linecap="round" stroke-linejoin="round"/>
<path d="M258.652 108.46C253.765 106.532 248.118 108.958 246.887 111.021" stroke="#7F542D" stroke-width="0.75" stroke-linecap="round" stroke-linejoin="round"/>
<path d="M264.877 119.465C264.678 120.478 263.339 121.058 261.909 120.759C260.479 120.46 259.474 119.41 259.674 118.406C259.873 117.401 261.212 116.813 262.651 117.112C264.09 117.41 265.085 118.478 264.877 119.465Z" fill="#914839"/>
<path d="M33.226 401.942C26.6829 408.964 25.081 414.557 24.0312 418.232L38.7284 429.761H60.1588C60.1588 429.761 59.7787 424.585 55.6338 423.734C51.4889 422.883 49.0001 422.503 49.0001 422.503L44.9096 413.67L33.226 401.942Z" fill="#FED81D"/>
<path d="M95.8684 304.872C96.4567 345.506 99.0269 353.931 90.7099 367.995C82.393 382.059 44.908 413.67 44.908 413.67L29.0977 401.824C29.0977 401.824 48.1026 380.738 56.9806 369.497C65.8587 358.257 67.1709 353.687 66.9356 346.773C66.7003 339.859 60.1391 287.269 60.1391 287.269L95.8684 304.872Z" fill="#683F1D"/>
<path d="M199.782 360.882C199.782 360.882 213.837 369.434 216.624 370.891C219.411 372.348 219.801 376.068 219.801 376.068H185.863C185.863 376.068 184.252 367.57 185.112 362.493L199.782 360.882Z" fill="#FED81D"/>
<path d="M199.781 360.882L182.631 364.276L160.749 305.523C155.653 291.894 150.169 279.758 161.4 275.477C173.989 275.912 179.989 279.921 185.129 294.319C190.523 309.514 199.781 360.882 199.781 360.882Z" fill="#683F1D"/>
<path d="M160.748 305.523C160.748 305.523 110.53 310.093 95.045 310.673C79.5605 311.252 64.4742 309.514 57.5781 285.197L97.0813 271.45L102.14 275.432C124.72 275.794 145.218 275.36 159.282 275.432C160.015 275.432 160.721 275.432 161.409 275.477C181.934 278.898 174.169 301.414 160.748 305.523Z" fill="#683F1D"/>
<path d="M92.4376 310.736C81.107 310.935 70.247 309.261 62.8984 297.749" stroke="#7F542D" stroke-width="0.75" stroke-linecap="round" stroke-linejoin="round"/>
<path d="M125.8 245.395L114.387 255.16L104.795 275.568C104.795 275.568 90.3779 275.061 81.8076 281.233C73.2372 287.405 60.8026 290.066 55.997 289.984C55.651 280.075 56.3395 270.157 58.0514 260.391C60.884 244.789 67.8344 221.005 67.8344 221.005C67.7529 220.263 67.7167 219.521 67.6896 218.797C67.3004 206.381 73.8526 196.552 84.5497 197.195C95.8712 197.892 107.446 202.082 107.446 202.082C107.446 202.082 119.971 204.064 126.569 207.747C129.564 209.421 131.61 212.272 132.071 217.186C132.632 223.087 130.886 231.974 125.8 245.395Z" fill="#A7CAF0"/>
<path d="M100.594 257.187L96.793 251.938C99.6528 250.698 102.033 249.576 102.974 249.124C101.725 243.368 100.567 238.309 99.4356 234.01C101.49 234.39 104.377 236.291 105.173 243.522C105.771 249.033 113.816 240.237 116.766 247.413C119.717 254.59 100.594 257.187 100.594 257.187Z" fill="#83ADDF"/>
<path d="M124.714 224.218C123.149 225.856 120.913 234.743 117.691 245.277" stroke="#83ADDF" stroke-width="0.75" stroke-linecap="round" stroke-linejoin="round"/>
<path d="M168.939 232.372C168.804 235.54 163.184 234.743 163.184 234.743C164.614 237.259 160.469 238.897 158.423 239.015C157.05 239.052 155.683 238.825 154.396 238.345C154.396 238.345 134.278 256.237 126.757 262.97C119.237 269.703 105.3 280.165 95.879 278.88C86.4579 277.595 83.8425 268.02 79.6523 257.16C81.8827 256.982 84.0897 256.582 86.2407 255.965C91.8065 254.418 100.911 250.128 102.974 249.142C103.237 250.373 103.517 251.649 103.789 252.952C120.658 243.431 139.427 231.232 141.002 229.721C142.577 228.209 149.247 222.996 151.22 220.861C153.192 218.725 156.921 220.707 155.419 221.892C153.916 223.078 153.192 224.254 159.238 227.983C166.849 232.671 169.093 228.571 168.939 232.372Z" fill="#FEBD9D"/>
<path d="M132.073 217.204C128.941 215.232 125.104 214.417 121.213 217.566C111.982 225.006 103.113 224.653 90.6146 210.254C78.4605 196.263 68.2792 217.585 67.7 218.815C67.3109 206.399 73.8631 196.57 84.5601 197.213C95.8817 197.91 107.457 202.1 107.457 202.1C107.457 202.1 119.982 204.082 126.579 207.765C129.566 209.421 131.611 212.272 132.073 217.204Z" fill="#A7CAF0"/>
<path d="M104.73 216.788C104.73 217.166 104.842 217.535 105.052 217.849C105.262 218.163 105.56 218.408 105.909 218.552C106.258 218.697 106.642 218.735 107.013 218.661C107.383 218.587 107.723 218.405 107.99 218.138C108.257 217.871 108.439 217.531 108.513 217.161C108.587 216.79 108.549 216.406 108.404 216.057C108.26 215.708 108.015 215.41 107.701 215.2C107.387 214.991 107.018 214.879 106.64 214.879C106.134 214.879 105.648 215.08 105.29 215.438C104.932 215.796 104.73 216.282 104.73 216.788Z" fill="white"/>
<path d="M67.6641 220.824C67.6641 220.824 74.4515 251.784 76.714 257.024C77.6827 257.158 78.6636 257.179 79.6372 257.088C81.8675 256.909 84.0746 256.509 86.2256 255.893C89.8238 254.78 93.3482 253.441 96.7779 251.884C99.6376 250.644 102.018 249.522 102.959 249.069C101.71 243.314 100.552 238.255 99.4204 233.956C96.8321 224.119 94.3706 218.318 91.1759 217.413" stroke="#83ADDF" stroke-width="0.75" stroke-linecap="round" stroke-linejoin="round"/>
<path d="M103.793 252.934C98.8877 256.056 98.1094 258.608 98.1094 258.608" stroke="#F4A789" stroke-width="0.75" stroke-linecap="round" stroke-linejoin="round"/>
<path d="M163.174 234.743C159.554 234.427 157.871 234.164 157.871 234.164" stroke="#F4A789" stroke-width="0.75" stroke-linecap="round" stroke-linejoin="round"/>
<path d="M154.414 238.336C155.703 238.82 157.074 239.051 158.45 239.015C160.514 238.897 164.64 237.268 163.201 234.743C163.201 234.743 168.83 235.531 168.966 232.372C169.12 228.571 166.867 232.671 159.265 227.965C153.219 224.236 153.943 223.078 155.446 221.883C156.948 220.689 153.228 218.707 151.246 220.843C150.233 221.938 147.997 223.847 145.816 225.639" stroke="#F4A789" stroke-width="0.75" stroke-linecap="round" stroke-linejoin="round"/>
<path d="M144.143 223.141C146.333 220.082 149.338 222.236 149.401 224.797C149.464 227.359 144.342 230.68 142.885 229.322C141.428 227.965 142.912 224.852 144.143 223.141Z" fill="#B25E47"/>
<path d="M149.891 241.142C147.565 239.983 145.918 241.739 147.854 243.857C149.791 245.974 153.339 245.015 154.008 242.906L149.891 241.142Z" fill="#B25E47"/>
<path d="M149.891 241.142C147.565 239.983 145.918 241.739 147.854 243.857C149.791 245.974 153.339 245.015 154.008 242.906L149.891 241.142Z" stroke="#914839" stroke-width="0.75" stroke-linecap="round" stroke-linejoin="round"/>
<path d="M152.866 238.924C150.432 238.472 148.396 239.277 149.165 241.214C149.934 243.151 155.5 245.332 157.871 241.214L152.866 238.924Z" fill="#B25E47"/>
<path d="M152.866 238.924C150.432 238.472 148.396 239.277 149.165 241.214C149.934 243.151 155.5 245.332 157.871 241.214L152.866 238.924Z" stroke="#914839" stroke-width="0.75" stroke-linecap="round" stroke-linejoin="round"/>
<path d="M144.143 223.141C146.333 220.082 149.338 222.236 149.401 224.797C149.464 227.359 144.342 230.68 142.885 229.322C141.428 227.965 142.912 224.852 144.143 223.141Z" stroke="#914839" stroke-width="0.75" stroke-linecap="round" stroke-linejoin="round"/>
<path d="M152.758 239.829C151.129 238.2 152.089 235.847 154.297 236.408C156.505 236.97 156.957 238.282 160.758 238.508C163.283 238.617 157.129 244.21 152.758 239.829Z" fill="#B25E47"/>
<path d="M152.758 239.829C151.129 238.2 152.089 235.847 154.297 236.408C156.505 236.97 156.957 238.282 160.758 238.508C163.283 238.617 157.129 244.21 152.758 239.829Z" stroke="#914839" stroke-width="0.75" stroke-linecap="round" stroke-linejoin="round"/>
<path d="M114.88 183.439L111.749 184.624L106.952 186.389C105.39 184.82 104.009 183.08 102.834 181.204C100.961 178.154 100.02 174.914 103.106 173.964C99.5311 173.964 99.1148 170.941 102.038 170.344C97.9926 170.244 99.5221 166.253 103.703 166.724C103.703 166.724 101.115 163.221 107.948 162.497C112.771 161.99 116.527 163.194 118.808 164.85L118.989 164.995C119.918 165.642 120.648 166.535 121.097 167.574C122.093 170.199 114.88 183.439 114.88 183.439Z" fill="#BF8228"/>
<path d="M114.881 183.439L111.75 184.625L106.954 186.389C105.392 184.82 104.011 183.08 102.836 181.204C104.564 179.348 107.361 179.692 107.795 178.398C108.429 176.588 103.614 167.945 111.533 168.144C115.995 168.253 118.058 166.515 118.999 164.977C119.928 165.624 120.659 166.517 121.108 167.556C122.094 170.199 114.881 183.439 114.881 183.439Z" fill="#BF8228"/>
<path d="M103.73 166.678C103.73 166.678 110.174 166.959 112.174 167.285C114.889 167.728 115.269 168.787 115.269 168.787" stroke="#FCC71F" stroke-width="0.75" stroke-linecap="round" stroke-linejoin="round"/>
<path d="M110.048 172.326L107.523 172.063" stroke="#FCC71F" stroke-width="0.75" stroke-linecap="round" stroke-linejoin="round"/>
<path d="M102.039 170.253C103.921 170.407 105.587 170.706 105.587 170.706" stroke="#FCC71F" stroke-width="0.75" stroke-linecap="round" stroke-linejoin="round"/>
<path d="M103.105 173.918C104.11 173.906 105.114 173.966 106.11 174.099" stroke="#FCC71F" stroke-width="0.75" stroke-linecap="round" stroke-linejoin="round"/>
<path d="M111.614 178.371C108.574 178.262 104.646 178.271 104.293 177.665" stroke="#FCC71F" stroke-width="0.75" stroke-linecap="round" stroke-linejoin="round"/>
<path d="M118.212 195.358C117.615 197.14 117.11 198.953 116.7 200.788C116.628 201.107 116.556 201.433 116.483 201.765C115.108 205.856 113.424 210.716 107.831 210.019C104.284 209.584 100.193 207.177 98.157 201.276C97.3697 198.987 99.5779 196.797 99.8584 196.38C102.03 193.231 104.058 189.964 104.745 187.52C104.745 187.52 103.053 185.394 104.22 183.167C104.396 182.842 104.608 182.539 104.854 182.262C106.709 180.199 110.157 181.149 111.307 182.742C111.589 182.54 111.847 182.307 112.076 182.045C112.29 181.861 112.465 181.636 112.591 181.383C112.716 181.13 112.789 180.854 112.806 180.572C112.823 180.29 112.783 180.008 112.689 179.742C112.594 179.475 112.448 179.231 112.257 179.023C112.046 178.781 111.838 178.555 111.632 178.344L111.551 178.262C110.121 176.751 108.908 175.547 109.524 173.475C109.641 173.056 109.824 172.659 110.067 172.298C111.017 170.959 112.782 170.787 115.424 171.14C118.746 171.574 120.411 170.624 121.126 167.52C121.216 167.656 121.94 168.823 122.936 170.678C123.225 171.212 123.533 171.801 123.841 172.443C124.583 173.909 125.397 175.647 126.158 177.529C126.459 178.247 126.74 178.98 126.999 179.728C127.284 180.504 127.522 181.296 127.714 182.1C129.343 188.706 128.312 196.724 118.212 195.358Z" fill="#FEBD9D"/>
<path d="M117.146 181.566C116.739 182.742 114.938 183.186 113.101 182.561C112.736 182.439 112.387 182.275 112.06 182.072C112.274 181.888 112.449 181.663 112.575 181.41C112.7 181.157 112.774 180.881 112.79 180.599C112.807 180.317 112.767 180.035 112.673 179.769C112.579 179.503 112.432 179.258 112.241 179.05C112.006 178.778 111.77 178.525 111.535 178.289C112.508 177.917 113.585 177.917 114.558 178.289C116.404 178.932 117.553 180.389 117.146 181.566Z" fill="#F4A789"/>
<path d="M116.594 177.665C116.594 177.844 116.647 178.019 116.746 178.168C116.846 178.317 116.987 178.433 117.152 178.501C117.318 178.57 117.5 178.588 117.675 178.553C117.851 178.518 118.012 178.432 118.139 178.305C118.265 178.178 118.351 178.017 118.386 177.842C118.421 177.666 118.403 177.484 118.335 177.319C118.266 177.153 118.15 177.012 118.002 176.913C117.853 176.813 117.678 176.76 117.499 176.76C117.259 176.76 117.029 176.855 116.859 177.025C116.689 177.195 116.594 177.425 116.594 177.665Z" fill="#683F1D"/>
<path d="M123.228 176.805C123.738 176.805 124.151 176.392 124.151 175.882C124.151 175.372 123.738 174.959 123.228 174.959C122.718 174.959 122.305 175.372 122.305 175.882C122.305 176.392 122.718 176.805 123.228 176.805Z" fill="#683F1D"/>
<path d="M118.214 195.358C117.617 197.141 117.113 198.953 116.703 200.788C109.119 199.222 112.277 191.946 112.277 191.946C112.277 191.946 115.997 194.77 118.214 195.358Z" fill="#F4A789"/>
<path d="M104.727 187.53C106.111 189.475 109.668 189.421 110.871 188.435" stroke="#F4A789" stroke-width="0.75" stroke-linecap="round" stroke-linejoin="round"/>
<path d="M106.113 185.023C107.588 183.285 109.607 184.118 110.729 186.172" stroke="#F4A789" stroke-width="0.75" stroke-linecap="round" stroke-linejoin="round"/>
<path d="M109.435 187.158C107.028 187.095 107.797 184.235 110.05 185.186" stroke="#F4A789" stroke-width="0.75" stroke-linecap="round" stroke-linejoin="round"/>
<path d="M118.418 182.109C119.368 183.738 120.409 184.561 122.717 184.072" stroke="#F4A789" stroke-width="0.75" stroke-linecap="round" stroke-linejoin="round"/>
<path d="M120.745 173.52C120.428 175.529 120.22 177.276 122.356 178.262C124.491 179.249 124.075 181.204 122.075 181.801" stroke="#F4A789" stroke-width="0.75" stroke-linecap="round" stroke-linejoin="round"/>
<path d="M113.227 174.67C114.033 175.755 118.169 173.828 117.426 172.371C116.965 171.457 111.806 172.724 113.227 174.67Z" fill="#BF8228"/>
<path d="M123.84 172.47C122.754 172.923 120.555 172.597 120.555 171.936C120.555 171.276 121.84 170.742 122.926 170.706C123.215 171.24 123.523 171.828 123.84 172.47Z" fill="#BF8228"/>
<path d="M127.716 182.127C127.375 182.353 126.977 182.478 126.568 182.486C126.159 182.494 125.757 182.385 125.408 182.172C124.43 181.421 124.575 179.566 125.752 178.018C125.888 177.855 126.023 177.692 126.159 177.556C126.461 178.274 126.741 179.007 127.001 179.756C127.285 180.531 127.524 181.323 127.716 182.127Z" fill="#F4A789"/>
<path d="M99.843 196.389C97.5714 195.892 94.6302 196.969 94.2953 198.389C93.9605 199.81 93.5804 211.648 96.223 211.684C98.8656 211.72 103.273 206.335 105.572 210.58C108.422 215.838 109.318 208.906 112.984 212.462C114.278 213.72 115.834 216.263 117.436 214.272C119.038 212.281 120.233 205.222 119.735 204.064C119.237 202.905 118.006 201.485 116.45 201.774C115.4 201.964 113.735 209.195 108.115 209.494C106.956 209.557 99.1371 201.349 98.6665 199.675C98.1959 198 99.843 196.389 99.843 196.389Z" fill="white"/>
</svg>
