<svg width="39" height="39" viewBox="0 0 39 39" fill="none" xmlns="http://www.w3.org/2000/svg">
<path d="M28.9411 8.92125V10.1238L23.1886 6.7925C21.0111 5.54125 17.9723 5.54125 15.8111 6.7925L10.0586 10.14V8.92125C10.0586 5.265 12.0573 3.25 15.7136 3.25H23.2861C26.9423 3.25 28.9411 5.265 28.9411 8.92125Z" fill="black"/>
<path d="M28.99 12.9511L28.7625 12.8374L26.5525 11.5699L21.97 8.92114C20.5725 8.10864 18.4275 8.10864 17.03 8.92114L12.4475 11.5536L10.2375 12.8536L9.945 12.9999C7.10125 14.9174 6.90625 15.2749 6.90625 18.3461V25.6911C6.90625 28.7624 7.10125 29.1199 10.01 31.0861L17.03 35.1324C17.7288 35.5549 18.6063 35.7336 19.5 35.7336C20.3775 35.7336 21.2713 35.5386 21.97 35.1324L29.055 31.0374C31.915 29.1199 32.0938 28.7786 32.0938 25.6911V18.3461C32.0938 15.2749 31.8988 14.9174 28.99 12.9511ZM24.0338 21.9374L23.0425 23.1561C22.88 23.3349 22.7663 23.6761 22.7825 23.9199L22.88 25.4799C22.945 26.4386 22.2625 26.9261 21.3688 26.5849L19.9225 25.9999C19.695 25.9186 19.3213 25.9186 19.0938 25.9999L17.6475 26.5686C16.7538 26.9261 16.0713 26.4224 16.1363 25.4636L16.2338 23.9036C16.25 23.6599 16.1363 23.3186 15.9738 23.1399L14.9663 21.9374C14.3488 21.2061 14.625 20.3936 15.5513 20.1499L17.0625 19.7599C17.3063 19.6949 17.5825 19.4674 17.7125 19.2724L18.5575 17.9724C19.0775 17.1599 19.9063 17.1599 20.4425 17.9724L21.2875 19.2724C21.4175 19.4836 21.71 19.6949 21.9375 19.7599L23.4488 20.1499C24.375 20.3936 24.6513 21.2061 24.0338 21.9374Z" fill="#00D215"/>
</svg>
